<?xml version="1.0" encoding="utf-8"?>
<!-- Generator: Adobe Illustrator 16.0.3, SVG Export Plug-In . SVG Version: 6.00 Build 0)  -->
<!DOCTYPE svg PUBLIC "-//W3C//DTD SVG 1.1//EN" "http://www.w3.org/Graphics/SVG/1.1/DTD/svg11.dtd">
<svg version="1.1" id="Layer_1" xmlns="http://www.w3.org/2000/svg" xmlns:xlink="http://www.w3.org/1999/xlink" x="0px" y="0px"
	 width="824px" height="191px" viewBox="0 0 824 191" enable-background="new 0 0 824 191" xml:space="preserve">
<g>
	<path fill-rule="evenodd" clip-rule="evenodd" fill="#F8F6F4" d="M95.401,183.927c-47.336-0.02-85.412-37.562-85.348-84.151
		c0.063-46.248,38.617-83.958,85.982-83.675c49.451,0.296,85.558,40.639,85.008,84.557
		C180.465,146.91,142.828,183.947,95.401,183.927z M58.03,152.594c0-2.856,0-4.486,0-6.116c0-25.312,0.06-50.623-0.072-75.933
		c-0.018-3.359,0.686-4.605,4.331-4.551c14.151,0.21,28.308,0.177,42.46,0.015c3.265-0.037,4.235,0.868,4.188,4.198
		c-0.192,13.652-0.155,27.308-0.019,40.962c0.028,2.838-0.798,3.803-3.65,3.707c-5.489-0.184-10.991,0.037-16.483-0.097
		c-2.535-0.063-3.635,0.71-3.505,3.396c0.177,3.654,0.225,7.337-0.012,10.984c-0.201,3.092,0.913,3.993,3.961,3.953
		c11.654-0.155,23.313-0.153,34.968-0.002c2.968,0.038,4.03-0.664,4.015-3.855c-0.126-25.976-0.118-51.954-0.007-77.93
		c0.013-2.959-1.02-3.563-3.732-3.555c-27.309,0.084-54.619,0.105-81.927-0.024c-3.173-0.015-3.854,0.981-3.842,3.964
		c0.108,26.476,0.066,52.954,0.058,79.429c0,1.673-0.034,3.227,1.398,4.556C45.868,140.993,51.485,146.388,58.03,152.594z
		 M134.474,50.509c-2.373,2.79-1.855,3.989-1.857,5.072c-0.039,25.647-0.094,51.295,0.031,76.941
		c0.018,3.614-0.875,4.813-4.724,4.744c-14.151-0.258-28.312-0.208-42.465-0.023c-3.396,0.044-4.55-0.721-4.475-4.337
		c0.24-11.653,0.075-23.314,0.078-34.973c0.002-9.864,0.01-9.758,9.796-9.915c4.432-0.071,10.511,2.017,12.846-0.934
		c2.211-2.793,0.439-8.617,0.737-13.086c0.207-3.108-0.877-3.957-3.93-3.911c-11.156,0.169-22.319,0.219-33.472-0.024
		c-3.703-0.081-4.793,0.874-4.767,4.688c0.176,25.313,0.147,50.627,0.021,75.942c-0.017,3.313,0.606,4.623,4.298,4.601
		c26.812-0.157,53.625-0.144,80.438-0.017c3.247,0.015,4.163-0.826,4.146-4.117c-0.136-26.313-0.097-52.627-0.042-78.94
		c0.005-2.134-0.564-3.666-2.07-5.278C144.17,61.705,139.523,56.237,134.474,50.509z"/>
	<path fill-rule="evenodd" clip-rule="evenodd" fill="#F26922" d="M206.75,99.675c0-13.164,0.102-26.33-0.063-39.491
		c-0.048-3.851,1.149-5.274,5.151-5.224c15.162,0.19,30.328,0.158,45.49,0.017c3.572-0.033,5.186,1,5.104,4.791
		c-0.373,17.304,2.322,13.833-13.646,14.18c-5.497,0.119-11.002,0.153-16.495-0.035c-2.923-0.101-4.205,0.637-4.101,3.844
		c0.211,6.492,0.214,13-0.002,19.492c-0.107,3.219,1.189,3.951,4.104,3.834c4.825-0.193,9.68,0.198,14.49-0.126
		c4.321-0.291,5.658,1.498,5.305,5.521c-0.232,2.646-0.282,5.355,0.009,7.989c0.505,4.57-1.547,5.835-5.786,5.56
		c-4.48-0.292-9.016,0.209-13.487-0.147c-3.943-0.313-4.842,1.256-4.64,4.845c0.272,4.816-0.132,9.672,0.127,14.49
		c0.227,4.211-1.042,6.247-5.609,5.806c-3.302-0.319-6.685-0.323-9.986,0.001c-4.565,0.447-6.157-1.165-6.061-5.855
		C206.925,126.007,206.75,112.839,206.75,99.675z"/>
	<path fill-rule="evenodd" clip-rule="evenodd" fill="#EF6822" d="M382.723,100.007c0-12.823-0.007-25.646,0.003-38.468
		c0.005-6.499,0.021-6.655,6.723-6.469c9.298,0.259,18.689-1.161,27.883,0.797c13.219,2.814,22.099,10.912,25.372,23.985
		c3.386,13.529-0.951,25.098-11.917,33.647c-3.226,2.514-3.158,3.966-1.216,7.017c3.836,6.028,7.282,12.308,10.83,18.517
		c2.554,4.468,1.723,5.816-3.517,5.928c-13.453,0.286-13.451,0.285-20.185-11.554c-1.479-2.604-3.28-5.073-4.393-7.822
		c-1.616-3.993-3.962-4.997-8.055-3.673c-2.432,0.786-3.688,1.593-3.58,4.342c0.184,4.655-0.019,9.325,0.067,13.986
		c0.062,3.338-1.29,4.833-4.761,4.755c-15.807-0.353-13.028,2.253-13.228-12.515C382.605,121.656,382.723,110.831,382.723,100.007z
		 M400.733,89.078c0,0.665,0,1.33,0,1.995c0,14.862,0,14.862,14.376,10.008c9.171-3.097,12.584-13.751,6.878-21.476
		c-3.694-5.001-13.394-8.313-19.491-5.322c-4.143,2.032-0.959,7.16-1.72,10.814C400.51,86.372,400.733,87.748,400.733,89.078z"/>
	<path fill-rule="evenodd" clip-rule="evenodd" fill="#FBFAFA" d="M753.545,100.146c0-13.314,0.093-26.63-0.06-39.942
		c-0.043-3.793,1.053-5.534,5.118-5.22c3.805,0.294,7.678,0.351,11.472-0.012c4.47-0.427,5.36,1.701,5.341,5.568
		c-0.103,19.971,0.101,39.944-0.159,59.912c-0.06,4.546,1.094,5.893,5.69,5.699c9.138-0.385,18.306,0.018,27.455-0.179
		c3.609-0.078,5.185,1.06,5.118,4.79c-0.309,17.453,2.122,13.887-13.66,14.121c-13.81,0.205-27.627-0.067-41.439,0.115
		c-3.753,0.049-4.962-1.279-4.927-4.911C753.625,126.776,753.546,113.46,753.545,100.146z"/>
	<path fill-rule="evenodd" clip-rule="evenodd" fill="#EF6822" d="M481.784,89.543c-0.087-3.981-0.256-7.963-0.234-11.943
		c0.015-2.719-1.008-3.792-3.846-3.669c-4.81,0.208-9.642-0.1-14.451,0.104c-3.546,0.15-4.534-1.385-4.625-4.72
		c-0.39-14.3-0.469-14.318,13.926-14.292c11.462,0.021,22.923,0.098,34.385,0.15C498.554,66.629,490.169,78.086,481.784,89.543z"/>
	<path fill-rule="evenodd" clip-rule="evenodd" fill="#F8F6F4" d="M481.784,89.543c8.385-11.457,16.77-22.914,25.154-34.37
		c3.024-0.001,6.05-0.002,9.075-0.003c-4.366,6.289-8.731,12.578-13.098,18.867l0.058-0.078
		c-7.102,9.566-14.202,19.133-21.304,28.699C481.027,98.28,480.976,93.908,481.784,89.543z"/>
	<path fill-rule="evenodd" clip-rule="evenodd" fill="#F8F6F4" d="M502.909,86.774c0.443,4.099,0.378,8.197-0.01,12.293
		c-7.093,9.577-14.186,19.155-21.279,28.732c-0.555-4.267-0.627-8.529,0.099-12.787C488.782,105.6,495.846,96.188,502.909,86.774z"
		/>
	<path fill-rule="evenodd" clip-rule="evenodd" fill="#EC6B24" d="M502.909,86.774c-7.063,9.414-14.127,18.826-21.19,28.239
		c-0.779-4.114-0.684-8.233-0.049-12.354c7.102-9.566,14.202-19.133,21.304-28.699C502.952,78.231,502.931,82.502,502.909,86.774z"
		/>
	<path fill-rule="evenodd" clip-rule="evenodd" fill="#EC6B24" d="M481.62,127.8c7.094-9.577,14.187-19.155,21.279-28.732
		c-0.002,4.26-0.004,8.519-0.006,12.778c-7.049,9.436-14.097,18.872-21.146,28.309C480.861,136.045,481.146,131.923,481.62,127.8z"
		/>
	<path fill-rule="evenodd" clip-rule="evenodd" fill="#FCF8F5" d="M481.748,140.154c7.049-9.437,14.097-18.873,21.146-28.309
		c0.474,4.215,0.383,8.43-0.019,12.644c-5.383,6.481-10.281,13.317-14.956,20.319C484.55,144.997,480.552,146.021,481.748,140.154z"
		/>
	<path fill-rule="evenodd" clip-rule="evenodd" fill="#F26D24" d="M502.916,74.037c4.366-6.289,8.731-12.579,13.098-18.867
		c3.038,0.132,6.195-1.082,9.079,0.799c-4.339,5.95-8.678,11.9-13.017,17.85C509.023,73.892,505.97,73.964,502.916,74.037z"/>
	<path fill-rule="evenodd" clip-rule="evenodd" fill="#F26D24" d="M487.919,144.809c4.675-7.002,9.573-13.838,14.956-20.319
		c0.003,4.139,0.006,8.278,0.008,12.417c-1.973,2.636-3.947,5.272-5.922,7.908C493.947,144.813,490.934,144.811,487.919,144.809z"/>
	<path fill-rule="evenodd" clip-rule="evenodd" fill="#FCF8F5" d="M512.076,73.819c4.339-5.95,8.678-11.9,13.017-17.85
		c2.023,3.866,0.697,7.942,0.751,11.932c-1.461,1.972-2.923,3.944-4.384,5.917C518.331,73.818,515.204,73.819,512.076,73.819z"/>
	<path fill-rule="evenodd" clip-rule="evenodd" fill="#FCF8F5" d="M496.961,144.814c1.975-2.636,3.949-5.272,5.922-7.908
		C503.598,144.777,503.33,145.136,496.961,144.814z"/>
	<path fill-rule="evenodd" clip-rule="evenodd" fill="#F26D24" d="M521.46,73.818c1.461-1.972,2.923-3.944,4.384-5.917
		C526.19,71.214,526.651,74.61,521.46,73.818z"/>
	<path fill-rule="evenodd" clip-rule="evenodd" fill="#FBFAFA" d="M644.712,100.402c0.099-26.099,20.489-46.934,45.71-46.705
		c25.11,0.228,45.091,20.979,45.115,46.857c0.024,25.862-20.564,46.81-45.837,46.635
		C664.504,147.015,644.614,126.33,644.712,100.402z M690.017,127.137c14.459,0.002,25.919-11.702,25.947-26.5
		c0.029-15.107-11.454-26.9-26.134-26.84c-14.235,0.058-25.805,12.036-25.86,26.773
		C663.914,115.041,675.771,127.135,690.017,127.137z"/>
	<path fill-rule="evenodd" clip-rule="evenodd" fill="#FBFAFA" d="M581.851,53.995c20.448-0.724,39.474,15.4,43.802,37.125
		c5.036,25.268-10.554,49.432-35.638,55.236c-22.355,5.174-48.022-10.796-52.168-32.458c0.995-1.313,1.946-2.665,2.991-3.938
		c5.602-6.813,9.717-14.777,16.201-20.905c-0.426,1.936-0.864,3.869-1.273,5.809c-3.184,15.11,7.032,30.34,21.544,32.126
		c15.121,1.86,28.777-9.288,29.627-24.188c0.947-16.624-10.957-29.291-26.985-29.058c-5.219,0.076-9.44,2.675-14.064,4.303
		c-1.503-1.455,0.095-2.265,0.741-3.161C571.673,67.902,576.771,60.954,581.851,53.995z"/>
	<path fill-rule="evenodd" clip-rule="evenodd" fill="#F26D24" d="M557.039,89.055c-6.484,6.128-10.6,14.092-16.201,20.905
		c-1.045,1.272-1.996,2.624-2.991,3.938c-1.435-3.345-2.182-6.812-1.839-10.469c11.928-16.142,23.857-32.283,35.785-48.425
		c3.234-1.524,6.653-1.201,10.058-1.009c-5.08,6.959-10.178,13.907-15.223,20.892c-0.646,0.896-2.244,1.706-0.741,3.161l0.092-0.039
		c-2.213-1.249-1.986,1.186-2.889,1.914C561.072,82.967,559.056,86.011,557.039,89.055z"/>
	<path fill-rule="evenodd" clip-rule="evenodd" fill="#FCF8F5" d="M571.793,55.004c-11.928,16.142-23.857,32.283-35.785,48.425
		c-0.529-4.742-0.399-9.432,1.104-14.016c6.946-8.907,13.939-17.779,19.858-27.43l-0.06,0.052c0.474-0.404,0.947-0.808,1.421-1.211
		C562.088,57.193,566.758,55.675,571.793,55.004z"/>
	<path fill-rule="evenodd" clip-rule="evenodd" fill="#EC6B24" d="M556.97,61.983c-5.919,9.65-12.912,18.523-19.858,27.43
		c2.187-10.568,7.773-19.039,16.066-25.783C554.217,62.784,555.183,61.299,556.97,61.983z"/>
	<path fill-rule="evenodd" clip-rule="evenodd" fill="#EC6B24" d="M558.331,60.824c-0.474,0.403-0.947,0.807-1.421,1.211
		C556.81,60.957,557.531,60.844,558.331,60.824z"/>
	<path fill-rule="evenodd" clip-rule="evenodd" fill="#EF6822" d="M364.321,100.572c0.018,25.981-20.082,46.604-45.36,46.545
		c-25.115-0.059-45.055-20.487-45.128-46.232c-0.075-26.336,19.98-47.138,45.391-47.079
		C344.579,53.866,364.304,74.32,364.321,100.572z M345.009,100.459c-0.025-14.976-11.283-26.613-25.806-26.674
		c-14.537-0.061-26.213,11.953-26.199,26.956c0.014,14.483,11.913,26.459,26.238,26.406
		C333.77,127.094,345.034,115.427,345.009,100.459z"/>
	<path fill-rule="evenodd" clip-rule="evenodd" fill="#F26A22" d="M58.03,152.594c-6.544-6.206-12.162-11.601-17.87-16.898
		c-1.432-1.329-1.399-2.883-1.398-4.556c0.008-26.476,0.05-52.953-0.058-79.429c-0.012-2.983,0.669-3.979,3.842-3.964
		c27.309,0.129,54.618,0.108,81.927,0.024c2.712-0.008,3.745,0.595,3.732,3.555c-0.111,25.977-0.119,51.955,0.007,77.93
		c0.016,3.191-1.046,3.894-4.015,3.855c-11.655-0.151-23.313-0.153-34.968,0.002c-3.048,0.04-4.162-0.861-3.961-3.953
		c0.236-3.647,0.188-7.33,0.012-10.984c-0.13-2.686,0.97-3.458,3.505-3.396c5.492,0.134,10.994-0.087,16.483,0.097
		c2.852,0.096,3.678-0.869,3.65-3.707c-0.136-13.654-0.173-27.311,0.019-40.962c0.047-3.33-0.924-4.235-4.188-4.198
		c-14.152,0.162-28.31,0.195-42.46-0.015c-3.645-0.054-4.349,1.192-4.331,4.551c0.131,25.311,0.072,50.622,0.072,75.933
		C58.03,148.107,58.03,149.737,58.03,152.594z"/>
	<path fill-rule="evenodd" clip-rule="evenodd" fill="#0D0D0D" d="M134.474,50.509c5.049,5.729,9.696,11.196,14.59,16.434
		c1.506,1.613,2.075,3.145,2.07,5.278c-0.055,26.313-0.095,52.627,0.042,78.94c0.017,3.291-0.899,4.132-4.146,4.117
		c-26.813-0.127-53.626-0.141-80.438,0.017c-3.691,0.022-4.314-1.287-4.298-4.601c0.126-25.314,0.155-50.629-0.021-75.942
		c-0.026-3.814,1.064-4.769,4.767-4.688c11.153,0.243,22.316,0.193,33.472,0.024c3.052-0.046,4.137,0.802,3.93,3.911
		c-0.297,4.47,1.474,10.293-0.737,13.086c-2.334,2.95-8.414,0.862-12.846,0.934c-9.786,0.156-9.794,0.05-9.796,9.915
		c-0.002,11.658,0.163,23.319-0.078,34.973c-0.075,3.616,1.08,4.381,4.475,4.337c14.153-0.185,28.314-0.234,42.465,0.023
		c3.849,0.069,4.741-1.13,4.724-4.744c-0.125-25.646-0.07-51.294-0.031-76.941C132.619,54.498,132.101,53.299,134.474,50.509z"/>
	<path fill-rule="evenodd" clip-rule="evenodd" fill="#FBFAFA" d="M565.979,78.009c-0.362,1.545-1.468,1.969-2.889,1.914
		C563.992,79.195,563.766,76.76,565.979,78.009z"/>
</g>
</svg>
