<?xml version="1.0" encoding="utf-8"?>
<!-- Generator: Adobe Illustrator 16.0.3, SVG Export Plug-In . SVG Version: 6.00 Build 0)  -->
<!DOCTYPE svg PUBLIC "-//W3C//DTD SVG 1.1//EN" "http://www.w3.org/Graphics/SVG/1.1/DTD/svg11.dtd">
<svg version="1.1" id="Layer_1" xmlns="http://www.w3.org/2000/svg" xmlns:xlink="http://www.w3.org/1999/xlink" x="0px" y="0px"
	 width="118px" height="52px" viewBox="0 0 118 52" enable-background="new 0 0 118 52" xml:space="preserve">
<g>
	<path fill-rule="evenodd" clip-rule="evenodd" fill="#D2CC2E" d="M72.993,37.084C63.366,22.177,72.604,6.957,85.395,4.45
		c8.952-1.755,15.892,1.827,21.496,8.597c0.387,0.627,0.774,1.253,1.162,1.88l0.014,0.03c0.657,2.012,1.315,4.024,1.974,6.036
		c-0.038,1.98,0.288,4.055-0.189,5.923c-1.114,4.355-1.041,9.585-6.807,11.148c-0.048-5.658-0.279-11.322-0.078-16.971
		c0.126-3.543-1.188-5.86-4.762-8.005c0,4.923,0.051,9.189-0.011,13.453c-0.112,7.813,1.467,7.246-7.631,7.25
		c-2.084,0.001-5.154,0.397-4.411-2.905c0.691-3.072-3.441-8.052,3.087-9.09c1.261-0.2,2.299-0.464,2.445-1.938
		c0.105-1.059-0.162-1.942-1.195-2.499c-4.257-2.292-9.16,0.409-9.188,5.094c-0.022,3.496,0.292,7.024-0.079,10.48
		c-0.472,4.386,1.381,5.345,5.372,5.123c5.474-0.305,10.98-0.037,16.473-0.014c0.727,2.508-1.513,3.02-2.852,3.892
		c-5.7,3.715-11.9,3.641-18.235,2.035c-0.133-0.184-0.304-0.232-0.514-0.146c-0.491-0.269-0.982-0.538-1.474-0.808
		C77.659,41.038,75.326,39.062,72.993,37.084z M79.994,35.746c0-4.432-0.001-8.216,0-12c0.001-7.858,0.003-7.914,8.03-7.725
		c1.917,0.045,5.329-0.95,4.767,2.422c-0.542,3.246,3.542,8.405-3.167,9.645c-1.259,0.232-2.232,0.74-2.351,2.138
		c-0.083,0.973,0.519,1.386,1.416,1.698c5.13,1.783,8.278-0.298,8.291-5.56c0.009-3.497-0.107-6.998,0.035-10.488
		c0.108-2.649-0.607-4.035-3.593-3.926c-4.656,0.17-9.325,0.139-13.983,0.011c-2.633-0.072-3.522,1.024-3.463,3.556
		c0.114,4.826,0.097,9.658,0.004,14.485C75.933,32.473,77.076,34.058,79.994,35.746z"/>
	<path fill-rule="evenodd" clip-rule="evenodd" fill="#D2CC2E" d="M44.151,25.109c0-1.664,0-3.328,0-4.992
		c0.002-10.358,0.03-10.257,10.182-10.175c4.042,0.033,5.82,1.652,5.798,5.617c-0.034,6.489,0.027,12.979,0.043,19.469
		c0.009,3.465-1.634,5.262-5.194,5.162c-1.663-0.047-3.332-0.097-4.991-0.005c-4.355,0.241-5.993-1.99-5.858-6.091
		C44.23,31.102,44.151,28.104,44.151,25.109z M53.912,24.995c-0.016,0-0.032,0-0.048,0c0-2.665,0.011-5.329-0.005-7.994
		c-0.006-1.135-0.47-1.892-1.738-1.923c-1.243-0.031-1.854,0.629-1.859,1.799c-0.025,5.162-0.025,10.324-0.005,15.487
		c0.005,1.337,0.611,2.299,2.081,2.223c1.686-0.088,1.549-1.45,1.565-2.597C53.934,29.659,53.912,27.327,53.912,24.995z"/>
	<path fill-rule="evenodd" clip-rule="evenodd" fill="#D2CC2E" d="M36.605,21.672c0.867,5.103-0.905,9.738,1.876,14.157
		c1.186,1.885,0.642,4.39-3.069,4.444c-7.652,0.111-7.249,0.21-5.606-7.142c1.239-5.548,0.678-11.432-1.081-17.082
		c-1.21-3.888,0.967-6.164,4.976-6.1c2.168,0.035,2.976,0.792,2.924,2.894C36.547,15.995,36.605,19.151,36.605,21.672z"/>
	<path fill-rule="evenodd" clip-rule="evenodd" fill="#D2CC2E" d="M12.902,34.173c-0.651-0.118-1.856-0.185-1.873-0.361
		c-0.422-4.561-2.163-7.68-7.421-7.418c-0.067,0.003-0.357-1.489-0.278-2.255c0.112-1.071,1.119-1.194,1.903-1.088
		c3.708,0.499,5.668-0.656,4.975-4.77c-0.216-1.282,0.271-2.212,1.867-2.274c1.64-0.063,2.657,0.481,2.467,2.213
		c-0.393,3.58,0.888,5.126,4.701,4.844c3.074-0.228,1.997,2.245,1.922,3.924c-4.276-0.43-8.131-0.386-7.092,5.78
		C14.14,33.159,13.313,33.701,12.902,34.173z"/>
	<path fill-rule="evenodd" clip-rule="evenodd" fill="#DCDAD6" d="M108.053,14.927c-0.388-0.627-0.775-1.253-1.162-1.88
		C107.761,13.375,108.04,14.069,108.053,14.927z"/>
	<path fill-rule="evenodd" clip-rule="evenodd" fill="#F27D22" d="M103.065,38.043c-5.492-0.023-10.999-0.291-16.473,0.014
		c-3.991,0.222-5.844-0.737-5.372-5.123c0.371-3.456,0.057-6.984,0.079-10.48c0.028-4.685,4.932-7.386,9.188-5.094
		c1.033,0.556,1.301,1.439,1.195,2.499c-0.146,1.473-1.185,1.737-2.445,1.938c-6.528,1.038-2.396,6.018-3.087,9.09
		c-0.743,3.303,2.327,2.906,4.411,2.905c9.098-0.004,7.519,0.563,7.631-7.25c0.062-4.264,0.011-8.53,0.011-13.453
		c3.574,2.145,4.888,4.462,4.762,8.005c-0.201,5.648,0.03,11.313,0.078,16.97L103.065,38.043z"/>
	<path fill-rule="evenodd" clip-rule="evenodd" fill="#D7AD29" d="M79.994,35.746c-2.918-1.688-4.062-3.273-4.014-5.744
		c0.093-4.827,0.11-9.659-0.004-14.485c-0.06-2.532,0.83-3.628,3.463-3.556c4.658,0.128,9.327,0.16,13.983-0.011
		c2.985-0.109,3.701,1.276,3.593,3.926c-0.143,3.491-0.026,6.992-0.035,10.488c-0.013,5.262-3.161,7.343-8.291,5.56
		c-0.897-0.313-1.499-0.726-1.416-1.698c0.118-1.397,1.092-1.905,2.351-2.138c6.709-1.24,2.625-6.398,3.167-9.645
		c0.563-3.373-2.85-2.377-4.767-2.422c-8.027-0.189-8.029-0.133-8.03,7.725C79.993,27.53,79.994,31.314,79.994,35.746z"/>
	<path fill-rule="evenodd" clip-rule="evenodd" fill="#CFCCC1" d="M81.465,43.823c-0.491-0.269-0.982-0.538-1.474-0.808
		C80.482,43.285,80.974,43.555,81.465,43.823z"/>
</g>
</svg>
