<?xml version="1.0" encoding="utf-8"?>
<!-- Generator: Adobe Illustrator 16.0.3, SVG Export Plug-In . SVG Version: 6.00 Build 0)  -->
<!DOCTYPE svg PUBLIC "-//W3C//DTD SVG 1.1//EN" "http://www.w3.org/Graphics/SVG/1.1/DTD/svg11.dtd">
<svg version="1.1" id="Layer_1" xmlns="http://www.w3.org/2000/svg" xmlns:xlink="http://www.w3.org/1999/xlink" x="0px" y="0px"
	 width="140px" height="60px" viewBox="0 0 140 60" enable-background="new 0 0 140 60" xml:space="preserve">
<g>
	<path fill-rule="evenodd" clip-rule="evenodd" fill="#D2CC2E" d="M95.229,40.63c-6.766-10.626-5.747-23.181,3.787-30.393
		c9.382-7.096,20.692-5.303,29.893,4.816c1.026,2.648,2.054,5.296,3.08,7.944c-0.027,1.799,0.248,3.667-0.141,5.384
		c-1.031,4.563-1.092,9.804-6.813,11.663c-0.045-5.66-0.281-11.328-0.063-16.979c0.137-3.567-1.271-5.818-4.146-7.657
		c-0.323,0.609-0.59,0.878-0.592,1.149c-0.032,3.997,0.018,7.994-0.045,11.99c-0.121,7.832,1.486,7.238-7.631,7.248
		c-2.089,0.002-5.157,0.387-4.405-2.912c0.699-3.068-3.465-8.076,3.092-9.075c1.55-0.236,2.533-0.75,2.469-2.443
		c-0.065-1.722-1.199-2.048-2.687-2.251c-6.879-0.939-7.735-0.223-7.74,6.817c-0.002,3.165,0.26,6.356-0.065,9.486
		c-0.409,3.931,1.231,4.807,4.844,4.633c5.647-0.271,11.319-0.037,16.981-0.018c0.576,2.469-1.568,3.014-2.953,3.901
		c-5.671,3.637-11.808,3.593-18.087,1.983c-0.16-0.16-0.354-0.228-0.578-0.203c-0.472-0.25-0.943-0.5-1.415-0.749
		C99.673,43.644,98.091,41.135,95.229,40.63z M101.659,37.462c0.172-0.748,0.309-1.068,0.311-1.39
		c0.021-3.32,0.022-6.641,0.023-9.962c0.003-8.227,0.003-8.278,8.113-8.092c1.92,0.044,5.308-0.914,4.695,2.471
		c-0.584,3.23,3.549,8.392-3.178,9.595c-1.491,0.267-2.604,0.974-2.323,2.599c0.267,1.543,1.717,1.221,2.836,1.316
		c6.557,0.561,6.839,0.316,6.846-6.033c0.004-3.653-0.054-7.307,0.01-10.958c0.036-2.062-0.748-3.053-2.905-3.026
		c-4.98,0.062-9.963,0.049-14.943,0.003c-1.966-0.018-3.161,0.57-3.142,2.796c0.048,5.313-0.003,10.626,0.022,15.939
		C98.036,34.965,99.378,36.296,101.659,37.462z"/>
	<path fill-rule="evenodd" clip-rule="evenodd" fill="#D2CC2E" d="M47.133,41.788c-1.486-1.495-2.052-3.274-2.025-5.396
		c0.078-6.133,0.133-12.27-0.003-18.4c-0.1-4.474,1.818-6.483,6.301-6.003c3.426,0.367,7.503-1.401,9.681,2.993
		c-0.005,4.796-0.015,9.593-0.016,14.389C61.068,42.975,61.07,42.975,47.133,41.788z M54.955,27.201c-0.007,0-0.015,0-0.022,0
		c0-2.66,0.015-5.32-0.007-7.979c-0.009-1.037-0.191-2.052-1.5-2.171c-1.06-0.097-2.151,0.147-2.167,1.427
		c-0.067,5.481-0.068,10.965,0.003,16.446c0.014,1.107,0.853,1.768,2.017,1.755c1.295-0.015,1.659-0.906,1.669-1.996
		C54.971,32.188,54.955,29.694,54.955,27.201z"/>
	<path fill-rule="evenodd" clip-rule="evenodd" fill="#D2CC2E" d="M70.133,41.786c-1.483-1.496-2.054-3.275-2.027-5.396
		c0.078-6.132,0.134-12.269,0-18.399c-0.098-4.471,1.817-6.483,6.301-6.002c3.426,0.367,7.502-1.4,9.681,2.993
		c-0.006,4.796-0.016,9.593-0.017,14.389C84.068,42.98,84.07,42.98,70.133,41.786z M77.96,26.506c-0.007,0-0.013,0-0.02,0
		c0-2.328,0.007-4.655-0.003-6.982c-0.005-1.208-0.072-2.387-1.708-2.488c-1.523-0.094-2.078,0.761-2.077,2.13
		c0.006,5.153-0.006,10.307,0.054,15.459c0.016,1.38,0.879,2.161,2.267,2.05c1.286-0.104,1.476-1.146,1.481-2.189
		C77.972,31.826,77.96,29.166,77.96,26.506z"/>
	<path fill-rule="evenodd" clip-rule="evenodd" fill="#D2CC2E" d="M30.969,42.169c-2.895-0.554-2.213-3.135-1.591-4.319
		c3.451-6.568,1.837-13.117,0.283-19.625c-0.681-2.85-0.023-5.275,2.406-6.003c2.011-0.603,5.656-1.694,5.737,2.848
		c0.008,6.648-0.78,13.422,0.237,19.912c1.119,7.134,1.843,7.018-5.585,7.051C31.96,42.034,31.464,42.121,30.969,42.169z"/>
	<path fill-rule="evenodd" clip-rule="evenodd" fill="#D2CC2E" d="M13.866,36.147c-2.659,0.249-3.054-1.433-2.818-3.462
		c0.327-2.818-0.821-3.888-3.632-3.663c-1.337,0.107-3.161,0.511-3.241-1.915c-0.079-2.398,1.625-2.276,3.046-2.069
		c3.546,0.517,4.286-1.259,3.963-4.275c-0.142-1.327-0.13-2.663,1.882-2.777c2.076-0.118,2.693,0.922,2.532,2.695
		c-0.281,3.08,0.769,4.644,4.149,4.308c3.276-0.325,2.775,1.927,2.389,3.969c-4.22-0.384-8.215-0.529-7.138,5.745
		C15.067,35.107,14.264,35.662,13.866,36.147z"/>
	<path fill-rule="evenodd" clip-rule="evenodd" fill="#F27D22" d="M125.046,40.034c-5.662-0.02-11.334-0.253-16.981,0.018
		c-3.612,0.174-5.253-0.702-4.844-4.633c0.325-3.13,0.063-6.321,0.065-9.486c0.005-7.04,0.861-7.756,7.74-6.817
		c1.487,0.203,2.621,0.529,2.687,2.251c0.064,1.692-0.919,2.207-2.469,2.443c-6.557,1-2.393,6.007-3.092,9.075
		c-0.752,3.299,2.316,2.914,4.405,2.912c9.117-0.01,7.51,0.584,7.631-7.248c0.063-3.996,0.013-7.994,0.045-11.99
		c0.002-0.271,0.269-0.541,0.592-1.149c2.876,1.839,4.283,4.09,4.146,7.657c-0.218,5.65,0.019,11.318,0.063,16.979L125.046,40.034z"
		/>
	<path fill-rule="evenodd" clip-rule="evenodd" fill="#D7AD29" d="M101.659,37.462c-2.281-1.166-3.623-2.497-3.635-4.741
		c-0.025-5.313,0.025-10.626-0.022-15.939c-0.02-2.227,1.176-2.814,3.142-2.796c4.98,0.046,9.963,0.059,14.943-0.003
		c2.157-0.027,2.941,0.964,2.905,3.026c-0.063,3.651-0.006,7.305-0.01,10.958c-0.007,6.35-0.289,6.594-6.846,6.033
		c-1.119-0.096-2.569,0.227-2.836-1.316c-0.28-1.625,0.832-2.333,2.323-2.599c6.727-1.204,2.594-6.365,3.178-9.595
		c0.612-3.385-2.775-2.426-4.695-2.471c-8.11-0.187-8.11-0.135-8.113,8.092c-0.001,3.321-0.003,6.642-0.023,9.962
		C101.968,36.394,101.831,36.714,101.659,37.462z"/>
	<path fill-rule="evenodd" clip-rule="evenodd" fill="#D0CCB0" d="M103.428,45.716c-0.472-0.25-0.943-0.499-1.415-0.749
		C102.484,45.216,102.956,45.466,103.428,45.716z"/>
</g>
</svg>
