<?xml version="1.0" encoding="utf-8"?>
<!-- Generator: Adobe Illustrator 16.0.3, SVG Export Plug-In . SVG Version: 6.00 Build 0)  -->
<!DOCTYPE svg PUBLIC "-//W3C//DTD SVG 1.1//EN" "http://www.w3.org/Graphics/SVG/1.1/DTD/svg11.dtd">
<svg version="1.1" id="Layer_1" xmlns="http://www.w3.org/2000/svg" xmlns:xlink="http://www.w3.org/1999/xlink" x="0px" y="0px"
	 width="120px" height="60px" viewBox="0 0 120 60" enable-background="new 0 0 120 60" xml:space="preserve">
<g>
	<path fill-rule="evenodd" clip-rule="evenodd" fill="#E0D724" d="M102.053,43.059c0.833,2.751-1.656,3.195-3.093,4.076
		c-7.414,4.549-15.259,4.004-22.115-0.417c-6.581-4.242-9.26-11.283-8.703-19.257c0.103-1.477,0.479-2.934,0.729-4.397
		C75.308,9.409,85.946,5.66,99.88,12.138c9.667,8.889,11.923,18.624,6.269,27.813c-0.871,1.416-1.322,3.946-4.086,3.1
		c-0.052-5.813-0.261-11.631-0.095-17.438c0.097-3.406-1.443-5.446-4.775-7.628c0,6.277-0.072,11.85,0.032,17.419
		c0.048,2.565-0.707,3.781-3.478,3.157c-1.113-0.251-2.307-0.2-3.463-0.19c-2.096,0.017-5.581,1.653-5.055-2.209
		c0.428-3.134-3.698-8.371,3.201-9.393c2.632-0.389,3.234-2.44,1.632-3.795c-2.235-1.89-5.424-0.929-8.148-0.62
		c-1.902,0.216-1.606,2.237-1.617,3.691c-0.035,4.486,0.14,8.979-0.068,13.456c-0.142,3.043,1.257,3.578,3.884,3.525
		C90.09,42.909,96.072,43.033,102.053,43.059z M78.69,40.459c0.166-0.781,0.291-1.104,0.293-1.426
		c0.019-3.491,0.02-6.982,0.021-10.474c0.003-7.616,0.004-7.695,7.68-7.518c2.012,0.047,5.676-1.21,5.106,2.545
		c-0.485,3.203,3.56,8.438-3.281,9.515c-1.275,0.201-2.286,0.809-2.248,2.201c0.055,2.015,1.706,1.605,2.961,1.705
		c6.57,0.521,6.762,0.346,6.769-6.114c0.004-3.491-0.063-6.984,0.018-10.474c0.05-2.146-0.439-3.506-2.989-3.458
		c-4.986,0.094-9.976,0.062-14.962,0.012c-2.025-0.021-3.093,0.688-3.068,2.877c0.059,5.319-0.015,10.64,0.035,15.959
		C75.045,38.039,76.403,39.372,78.69,40.459z"/>
	<path fill-rule="evenodd" clip-rule="evenodd" fill="#872922" d="M60.073,16.995c2.114,8.513,0.695,17.158,0.882,25.74
		c0.043,2.001-1.486,3.289-3.645,3.34c-2.159,0.05-4.325-0.082-6.479,0.039c-4.061,0.228-5.725-1.711-5.696-5.659
		c0.051-7.141-0.046-14.283-0.081-21.425C47.729,15.589,53.88,14.755,60.073,16.995z M54.7,30.864c-0.028,0-0.057,0-0.085,0
		c0-2.638-0.002-5.276,0.002-7.914c0.001-1.144-0.388-1.903-1.702-1.813c-1.066,0.073-1.306,0.773-1.305,1.674
		c0.002,5.111,0.003,10.223,0.004,15.334c0,1.057,0.177,2.051,1.5,2.08c1.75,0.039,1.582-1.283,1.584-2.437
		C54.703,35.481,54.7,33.173,54.7,30.864z"/>
	<path fill-rule="evenodd" clip-rule="evenodd" fill="#872922" d="M37.899,17.042c0.608,3.349-0.041,5.423-4.193,4.801
		c-2.558-0.383-2.238,1.71-2.332,3.375c-0.103,1.833,0.456,2.928,2.482,2.708c4.402-0.477,5.204,1.974,5.269,5.761
		c0.222,12.938,0.321,12.937-12.655,12.154c-1.849-3.781-1.931-6.362,3.543-5.537c2.476,0.374,3.243-0.933,2.576-3.229
		c1.188-4.585-1.726-4.22-4.644-3.848c-1.973-0.647-2.938-1.979-2.865-4.083c0.051-1.484-0.123-2.986,0.039-4.455
		c0.315-2.852-1.475-7.397,0.935-8.201C29.574,15.313,34.055,14.854,37.899,17.042z"/>
	<path fill-rule="evenodd" clip-rule="evenodd" fill="#872922" d="M11.954,34.202c-1.903-0.025-3.017-0.465-2.697-2.894
		c0.271-2.066,1.229-2.549,2.928-2.312c2.747,0.384,7.184-1.95,6.616,3.974C16.836,35.146,14.177,33.459,11.954,34.202z"/>
	<path fill-rule="evenodd" clip-rule="evenodd" fill="#DAD8D6" d="M27.945,33.228c2.918-0.372,5.832-0.737,4.644,3.848
		C29.931,37.133,28.428,35.795,27.945,33.228z"/>
	<path fill-rule="evenodd" clip-rule="evenodd" fill="#F27D22" d="M102.053,43.059c-5.98-0.025-11.963-0.149-17.94-0.031
		c-2.627,0.053-4.025-0.482-3.884-3.525c0.208-4.477,0.033-8.97,0.068-13.456c0.011-1.454-0.285-3.476,1.617-3.691
		c2.725-0.309,5.913-1.27,8.148,0.62c1.603,1.354,1,3.406-1.632,3.795c-6.899,1.021-2.773,6.259-3.201,9.393
		c-0.526,3.862,2.959,2.226,5.055,2.209c1.156-0.01,2.35-0.061,3.463,0.19c2.771,0.624,3.525-0.592,3.478-3.157
		c-0.104-5.569-0.032-11.142-0.032-17.419c3.332,2.182,4.872,4.222,4.775,7.628c-0.166,5.807,0.043,11.624,0.095,17.438
		L102.053,43.059z"/>
	<path fill-rule="evenodd" clip-rule="evenodd" fill="#D7AD29" d="M78.69,40.459c-2.287-1.087-3.646-2.42-3.666-4.649
		c-0.05-5.319,0.023-10.64-0.035-15.959c-0.024-2.188,1.043-2.897,3.068-2.877c4.986,0.05,9.976,0.082,14.962-0.012
		c2.55-0.048,3.039,1.312,2.989,3.458c-0.08,3.489-0.014,6.982-0.018,10.474c-0.007,6.46-0.198,6.635-6.769,6.114
		c-1.255-0.1-2.906,0.31-2.961-1.705c-0.038-1.393,0.973-2,2.248-2.201c6.841-1.077,2.796-6.312,3.281-9.515
		c0.569-3.755-3.095-2.498-5.106-2.545c-7.676-0.178-7.677-0.099-7.68,7.518c-0.002,3.491-0.003,6.982-0.021,10.474
		C78.981,39.355,78.856,39.678,78.69,40.459z"/>
	<path fill-rule="evenodd" clip-rule="evenodd" fill="#DAD8D6" d="M54.7,30.864c0,2.309,0.003,4.617-0.002,6.925
		c-0.002,1.153,0.166,2.476-1.584,2.437c-1.323-0.029-1.5-1.023-1.5-2.08c-0.001-5.111-0.002-10.223-0.004-15.334
		c-0.001-0.9,0.238-1.601,1.305-1.674c1.314-0.091,1.703,0.669,1.702,1.813c-0.004,2.638-0.002,5.276-0.002,7.914
		C54.644,30.864,54.672,30.864,54.7,30.864z"/>
</g>
</svg>
