<?xml version="1.0" encoding="utf-8"?>
<!-- Generator: Adobe Illustrator 16.0.3, SVG Export Plug-In . SVG Version: 6.00 Build 0)  -->
<!DOCTYPE svg PUBLIC "-//W3C//DTD SVG 1.1//EN" "http://www.w3.org/Graphics/SVG/1.1/DTD/svg11.dtd">
<svg version="1.1" id="Layer_1" xmlns="http://www.w3.org/2000/svg" xmlns:xlink="http://www.w3.org/1999/xlink" x="0px" y="0px"
	 width="210px" height="180px" viewBox="0 0 210 180" enable-background="new 0 0 210 180" xml:space="preserve">
<g>
	<path fill-rule="evenodd" clip-rule="evenodd" fill="#F3BC46" d="M92.81,23.869c3.538-1.412,7.136-2.599,10.956-2.969
		c3.254-1.167,4.627,0.694,5.385,3.413c0.541,1.944,0.46,3.961,0.461,5.958c0.015,46.948,0.012,93.896,0.004,140.845
		c0,1.498-0.033,2.994-0.171,4.489c-0.258,2.798-1.578,4.167-4.566,3.912c-3.637-0.309-7.313,0.328-10.949-0.335
		c-1.756-1.922-1.517-4.334-1.52-6.631c-0.07-48.243,0.029-96.487-0.074-144.73C92.334,26.476,92.535,25.172,92.81,23.869z"/>
	<path fill-rule="evenodd" clip-rule="evenodd" fill="#F8D968" d="M144.007,179.061c-4.331,0.018-8.661,0.036-12.992,0.055
		c-2.099-2.587-1.601-5.685-1.603-8.638c-0.029-45.948-0.039-91.896,0.01-137.845c0.006-4.821-0.339-9.624-0.378-14.438
		c5.012,0.435,10.143-0.011,14.939,2.017c1.652,2.127,1.629,4.64,1.63,7.142c0.016,48.194,0.017,96.388-0.008,144.582
		C145.604,174.412,145.791,176.967,144.007,179.061z"/>
	<path fill-rule="evenodd" clip-rule="evenodd" fill="#F9E172" d="M144.007,179.061c-0.008-52.95-0.016-105.9-0.023-158.85
		c8.369,3.458,10.148,6.329,8.524,15.223c-0.598,3.279,0.93,5.819,1.675,8.635c1.144,4.317,2.561,8.562,3.861,12.836
		c0.383,3.111,0.567,6.235,0.567,9.368c-0.002,34.721,0.016,69.443-0.021,104.164c-0.003,2.943,0.52,6.039-1.583,8.62
		C152.674,179.059,148.341,179.06,144.007,179.061z"/>
	<path fill-rule="evenodd" clip-rule="evenodd" fill="#F7CF5D" d="M129.044,18.194c2.517,1.494,1.948,3.971,1.949,6.236
		c0.014,51.561,0.017,103.123,0.021,154.684c-4.001,0.004-8.001,0.008-12.001,0.012c-1.644-1.941-1.62-4.303-1.621-6.635
		c-0.026-48.928-0.028-97.855,0.008-146.783c0.002-2.306-0.184-4.711,1.593-6.614C122.311,18.434,125.627,17.746,129.044,18.194z"/>
	<path fill-rule="evenodd" clip-rule="evenodd" fill="#F1B339" d="M92.81,23.869c1.658,1.207,1.173,2.997,1.173,4.599
		c-0.002,50.121-0.029,100.242-0.051,150.363c-3.653,1.159-7.338,0.789-11.028,0.239c-1.236-0.315-2.214-0.993-2.913-2.066
		c0.619-6.298,0.395-12.615,0.413-18.926c0.122-40.71-0.223-81.421,0.174-122.13c0.023-2.324,0.06-4.657-0.544-6.936
		C84.108,26.84,88.281,24.913,92.81,23.869z"/>
	<path fill-rule="evenodd" clip-rule="evenodd" fill="#F5C752" d="M82.904,179.07c3.676-0.079,7.353-0.158,11.029-0.238
		c14.066,0.636,14.066,0.636,14.066-13.209c0-45.938,0.009-91.877-0.02-137.815c-0.002-3.073,0.653-6.721-4.212-6.908
		c5-1.24,10.067-1.904,15.226-1.805c0.007,53.344,0.014,106.687,0.021,160.031c-10.912,1.066-21.857,0.466-32.787,0.62
		C85.088,179.762,83.886,179.906,82.904,179.07z"/>
	<path fill-rule="evenodd" clip-rule="evenodd" fill="#F0AB2F" d="M80.034,29.012c2.468,0.381,1.951,2.318,1.952,3.891
		c0.017,46.747,0.016,93.493,0.002,140.24c0,1.588,0.464,3.506-1.998,3.86c-5.295-2.952-9.128-7.482-12.962-12.012
		c0.87-23.298,0.261-46.604,0.357-69.906c0.06-14.48,0.315-28.966-0.215-43.434c-0.113-1.959,0.75-3.417,2.275-4.622
		c5.369-4.238,10.431-8.654,8.802-16.625c-0.089-0.435,0.4-0.867,0.75-1.218C79.343,29.129,79.688,29.071,80.034,29.012z"/>
	<path fill-rule="evenodd" clip-rule="evenodd" fill="#ED9823" d="M54.837,152.404c-5.639-6.455-11.278-12.909-16.917-19.364
		c-0.135-1.486-0.515-2.94-0.515-4.447c-0.005-25.579,0.046-51.158-0.023-76.736c-0.003-1.008,0.276-1.97,0.453-2.949
		c0.392-0.311,0.784-0.622,1.175-0.933c0.711-0.562,1.568-0.704,2.312-0.306c4.085,2.188,8.434,3.659,12.865,4.941
		c1.3,0.376,2.357,1.165,2.834,2.544c0.627,1.942,0.575,3.947,0.576,5.94c0.019,27.606,0.045,55.212-0.035,82.818
		C57.553,146.944,58.289,150.397,54.837,152.404z"/>
	<path fill-rule="evenodd" clip-rule="evenodd" fill="#FAAA71" d="M55.999,53.989c-6.216-0.443-11.545-3.392-16.99-6.014
		c-1.006-4.471-4.262-7.782-6.146-11.817c-1.091-2.337-0.953-3.965,1.347-4.82c10.1-3.755,13.682-11.471,13.965-21.632
		c0.084-3.027,1.919-5.754,5.227-6.6c3.916-1,6.308,1.561,8.278,4.287c5.443,7.532,11.333,14.699,17.318,21.794
		c3.523,10.744-4.594,15.295-11.032,20.74C64.532,52.917,61.047,55.756,55.999,53.989z"/>
	<path fill-rule="evenodd" clip-rule="evenodd" fill="#FBEA7D" d="M157.007,179.058c-0.002-38.104,0.012-76.208-0.041-114.312
		c-0.004-2.695,0.306-5.282,1.077-7.839c4.377,10.477,7.335,21.438,10.974,32.167c0.73,2.155,0.965,4.554,2.959,6.097
		c0.814,1.171,0.768,2.504,0.751,3.843c-0.291,24.123-0.034,48.247-0.146,72.37c-0.012,2.63,0.347,5.378-1.58,7.63
		C166.337,179.027,161.672,179.043,157.007,179.058z"/>
	<path fill-rule="evenodd" clip-rule="evenodd" fill="#EEA125" d="M55.999,53.989c4.436-0.038,7.92-2.879,11.967-4.062
		c1.11,1.796,1.043,3.792,1.043,5.8c-0.013,34.792,0.006,69.585-0.056,104.378c-0.003,1.748,1.123,4.223-1.925,4.887
		c-4.386-3.884-8.479-8.052-12.19-12.588c1.254-2.105,1.173-4.428,1.172-6.762C55.994,115.092,56,84.541,55.999,53.989z"/>
	<path fill-rule="evenodd" clip-rule="evenodd" fill="#FBF393" d="M183.051,104.862c9.581,6.531,13.148,17.203,18.124,26.811
		c2.496,4.819,3.771,10.264,5.689,15.392c0.902,2.413,0.997,4.645,0.258,7.217c-1.967,6.846-3.64,13.781-5.235,20.726
		c-0.705,3.072-2.094,4.422-5.428,4.155c-4.131-0.329-8.304-0.125-12.458-0.151c-1.578-1.769-1.556-3.962-1.58-6.123
		c-0.248-21.598,0.405-43.201-0.364-64.797C182.014,106.904,182.145,105.762,183.051,104.862z"/>
	<path fill-rule="evenodd" clip-rule="evenodd" fill="#FCF188" d="M183.051,104.862c2.019,16.375,0.538,32.816,0.916,49.223
		c0.191,8.305,0.034,16.617,0.034,24.926c-4.333,0.001-8.666,0.001-13,0.002c0-25.496,0.021-50.992-0.033-76.488
		c-0.005-2.527,0.27-4.959,1.008-7.354C175.667,98.401,179.359,101.632,183.051,104.862z"/>
	<path fill-rule="evenodd" clip-rule="evenodd" fill="#EA9024" d="M37.834,48.908c1.666,1.209,1.145,3.005,1.147,4.6
		c0.027,24.964,0.028,49.928-0.002,74.892c-0.001,1.593,0.546,3.383-1.059,4.64c-4.623-5.009-9.245-10.021-13.076-15.689
		c-0.96-5.296-0.26-10.634-0.385-15.95c-0.34-14.477,0.585-28.971-0.566-43.439C28.407,54.738,32.726,51.214,37.834,48.908z"/>
	<path fill-rule="evenodd" clip-rule="evenodd" fill="#E98925" d="M23.894,57.961c2.06,0.229,2.111,1.714,2.11,3.292
		c-0.01,17.275-0.018,34.551,0.012,51.826c0.002,1.566-0.548,2.912-1.171,4.271c-6.647-7.608-13.664-14.998-18.558-23.887
		c-5.093-9.251-2.181-21.07,6.153-27.674C16.072,62.911,19.605,59.883,23.894,57.961z"/>
</g>
</svg>
