<?xml version="1.0" encoding="utf-8"?>
<!-- Generator: Adobe Illustrator 16.0.3, SVG Export Plug-In . SVG Version: 6.00 Build 0)  -->
<!DOCTYPE svg PUBLIC "-//W3C//DTD SVG 1.1//EN" "http://www.w3.org/Graphics/SVG/1.1/DTD/svg11.dtd">
<svg version="1.1" id="Layer_1" xmlns="http://www.w3.org/2000/svg" xmlns:xlink="http://www.w3.org/1999/xlink" x="0px" y="0px"
	 width="142px" height="200px" viewBox="0 0 142 200" enable-background="new 0 0 142 200" xml:space="preserve">
<g>
	<path fill-rule="evenodd" clip-rule="evenodd" fill="#71276F" d="M84.137,41.701c11.26,2.531,23.147,3.394,31.69,12.793
		c7.251,7.979,10.355,17.714,12.092,27.978c2.178,12.873,1.095,25.916,1.324,38.876c0.101,5.723,1.339,11.214,1.769,16.835
		c1.143,14.938,1.528,29.94,3.934,44.771c0.504,3.111,0.611,6.285,1.055,9.409c0.546,3.85-1.133,4.663-4.771,4.61
		c-27.159-0.391-54.322-0.576-81.484-0.804c-10.166-0.086-20.333-0.185-30.498-0.116c-2.471,0.017-3.344-0.552-3.571-3.24
		c-2.219-26.222-5.144-52.396-6.804-78.65C7.625,94.419,6.066,74.615,7.907,54.761c0.38-4.097,2.319-6.329,5.318-8.261
		c6.582-4.238,13.834-6.413,21.626-6.868c0.084,2.497,0.166,4.994,0.253,7.49c0.228,6.492,2.568,8.766,8.987,9.146
		c12.044,0.712,22.845-2.99,33.029-9.018C79.972,46.047,83.208,45.333,84.137,41.701z"/>
	<path fill-rule="evenodd" clip-rule="evenodd" fill="#F8A973" d="M42.944,22.969c6.844-3.853,12.161-9.531,17.719-14.906
		c2.433-2.353,4.118-2.77,5.836,0.823c2.697,5.641,6.419,10.761,8.692,16.637c-1.103,2.393-1.909,4.793-2.393,7.466
		c-0.653,3.609-1.029,7.557-3.792,10.502c-3.449,3.677-10.687,5.667-15.048,3.92c-6.102-2.443-9.999-6.7-11.012-13.464
		C42.394,30.248,44.516,26.617,42.944,22.969z"/>
	<path fill-rule="evenodd" clip-rule="evenodd" fill="#F5A46F" d="M42.944,22.969c1.572,3.648-0.551,7.279,0.003,10.978
		c1.013,6.764,4.91,11.021,11.012,13.464c4.361,1.746,11.599-0.243,15.048-3.92c2.763-2.945,3.139-6.893,3.792-10.502
		c0.483-2.673,1.29-5.073,2.393-7.466c3.031,4.95,5.938,9.967,8.124,15.366c-4.343-0.096-6.251,2.178-6.195,6.362
		c-10.185,6.028-20.985,9.73-33.029,9.018c-6.419-0.379-8.759-2.654-8.987-9.146c-0.087-2.496-0.168-4.993-0.253-7.49
		c0.049-1.646,0.319-3.322,0.109-4.934C34.136,28.359,37.565,25.026,42.944,22.969z"/>
	<path fill-rule="evenodd" clip-rule="evenodd" fill="#E29270" d="M77.121,47.25c-0.056-4.185,1.853-6.458,6.195-6.362
		c0.273,0.271,0.546,0.542,0.819,0.813C83.208,45.333,79.972,46.047,77.121,47.25z"/>
</g>
</svg>
