<?xml version="1.0" encoding="utf-8"?>
<!-- Generator: Adobe Illustrator 16.0.3, SVG Export Plug-In . SVG Version: 6.00 Build 0)  -->
<!DOCTYPE svg PUBLIC "-//W3C//DTD SVG 1.1//EN" "http://www.w3.org/Graphics/SVG/1.1/DTD/svg11.dtd">
<svg version="1.1" id="Layer_1" xmlns="http://www.w3.org/2000/svg" xmlns:xlink="http://www.w3.org/1999/xlink" x="0px" y="0px"
	 width="135px" height="200px" viewBox="0 0 135 200" enable-background="new 0 0 135 200" xml:space="preserve">
<g>
	<path fill-rule="evenodd" clip-rule="evenodd" fill="#C9286E" d="M76.265,41.086c7.129,3.259,14.994,3.836,22.37,6.123
		c11.24,3.485,18.426,11.487,22.66,22.212c3.494,8.852,5.765,17.99,5.717,27.617c-0.073,14.648,0.795,29.282,1.216,43.914
		c0.487,16.917,2.334,33.819,4.229,50.657c0.524,4.66-0.998,4.753-4.523,4.75c-29.813-0.026-59.625,0.06-89.437,0.14
		c-7.327,0.02-14.659-0.014-21.976,0.283c-3.412,0.139-4.38-0.976-4.758-4.389c-4.287-38.756-6.075-77.664-7.306-116.605
		c-0.215-6.806,0.402-13.637,0.538-20.458c0.049-2.453,1.151-3.96,3.27-5.093c6.578-3.518,13.225-6.821,20.679-8.079
		c0.235,2.39-0.313,4.923,3.295,5.708c13.045,2.84,25.949,3.505,38.923-0.576C74.599,46.211,76.31,44.599,76.265,41.086z"/>
	<path fill-rule="evenodd" clip-rule="evenodd" fill="#F7A672" d="M76.265,41.086c0.045,3.513-1.666,5.125-5.104,6.207
		c-12.975,4.081-25.878,3.416-38.923,0.576c-3.608-0.786-3.06-3.318-3.295-5.708c-1-7.043,2.119-10.547,8.656-13.673
		C48.273,23.382,59.01,17.56,64.402,4.44C69.946,17.004,72.415,29.278,76.265,41.086z"/>
</g>
</svg>
