<?xml version="1.0" encoding="utf-8"?>
<!-- Generator: Adobe Illustrator 16.0.3, SVG Export Plug-In . SVG Version: 6.00 Build 0)  -->
<!DOCTYPE svg PUBLIC "-//W3C//DTD SVG 1.1//EN" "http://www.w3.org/Graphics/SVG/1.1/DTD/svg11.dtd">
<svg version="1.1" id="Layer_1" xmlns="http://www.w3.org/2000/svg" xmlns:xlink="http://www.w3.org/1999/xlink" x="0px" y="0px"
	 width="85px" height="85px" viewBox="0 0 85 85" enable-background="new 0 0 85 85" xml:space="preserve">
<g>
	<path fill-rule="evenodd" clip-rule="evenodd" fill="#F47722" d="M8.191,38.002C9.943,24.14,20.338,10.971,37.189,8.289
		c14.247-2.268,27.272,2.662,35.998,16.471c2.543,4.025,4.259,8.422,4.646,13.243c-1.951,0.332-3.909,0.988-5.853,0.944
		C50.72,38.468,29.425,40.188,8.191,38.002z"/>
	<path fill-rule="evenodd" clip-rule="evenodd" fill="#F37122" d="M8.191,38.002c21.234,2.186,42.528,0.466,63.789,0.945
		c1.943,0.044,3.901-0.613,5.853-0.944c0.639,8.156,0.305,16.109-4.795,23.073c-1.422-1.714-3.383-1.043-5.118-1.048
		C49.36,59.982,30.801,60,12.242,59.999C8.009,53.198,7.474,45.716,8.191,38.002z"/>
	<path fill-rule="evenodd" clip-rule="evenodd" fill="#F36C22" d="M12.242,59.999C30.801,60,49.36,59.982,67.92,60.028
		c1.735,0.005,3.696-0.666,5.118,1.048C66.849,71.21,57.93,77.026,46.024,77.987c-10.108,0.816-19.091-1.893-26.746-8.729
		C16.316,66.611,13.975,63.551,12.242,59.999z"/>
</g>
</svg>
