<?xml version="1.0" encoding="utf-8"?>
<!-- Generator: Adobe Illustrator 16.0.3, SVG Export Plug-In . SVG Version: 6.00 Build 0)  -->
<!DOCTYPE svg PUBLIC "-//W3C//DTD SVG 1.1//EN" "http://www.w3.org/Graphics/SVG/1.1/DTD/svg11.dtd">
<svg version="1.1" id="Layer_1" xmlns="http://www.w3.org/2000/svg" xmlns:xlink="http://www.w3.org/1999/xlink" x="0px" y="0px"
	 width="210px" height="170px" viewBox="0 0 210 170" enable-background="new 0 0 210 170" xml:space="preserve">
<g>
	<path fill-rule="evenodd" clip-rule="evenodd" fill="#FFFFFE" d="M106.173,5c33.5,0,67,0.035,100.5-0.067
		c2.612-0.008,3.422,0.301,3.415,3.24c-0.121,51.833-0.11,103.667-0.021,155.5c0.004,2.611-0.301,3.419-3.239,3.414
		c-67.166-0.112-134.333-0.104-201.5-0.021c-2.612,0.003-3.422-0.3-3.415-3.238c0.121-51.833,0.14-103.667-0.031-155.5
		C1.87,4.85,3.166,4.956,5.673,4.96C39.173,5.02,72.673,5,106.173,5z M129.156,74.928c0.01,2.047,1.136,3.219,2.992,3.82
		c0.534,0.499,1.068,0.998,1.602,1.496c0.288,1.517,0.448,3.124,2.437,3.436c1.813,2.514,3.801,4.919,5.407,7.558
		c6.163,10.121,13.036,19.979,13.251,32.532c-1.994,2.021-3.654,4.132-1.955,7.161c-2.069-0.227-3.42,1.046-4.753,2.313
		c-5.76,5.475-12.542,7.373-20.477,6.938c-19.776-1.087-38.309-7.164-56.619-13.896c-8.717-3.205-17.448-3.817-26.395-3.022
		c-3.506,0.311-7.033,0.99-10.345,2.966c-11.354,6.774-18.938,16.933-25.785,27.782c-1.747,2.767-5.989,5.926-3.341,8.915
		c2.332,2.632,7.087,1.387,10.764,0.193c-0.049,2.445,1.774,1.88,3.136,1.875c5.296-0.02,10.593-0.104,15.89-0.165
		c1.684,0.003,3.367,0.006,5.051,0.009c2.328,0,4.657,0,6.985-0.001c1.974,0.056,3.969-0.051,5.918,0.201
		c3.417,0.442,3.777-1.835,2.923-3.874c-1.881-4.489-4.438-8.645-8.777-11.316c-1.992-1.835-4.418-2.531-7.051-2.684
		c-1.71-0.1-3.419-0.199-5.129-0.299c2.104-1.973,4.667-2.485,7.362-1.942c5.594,1.126,11.293,1.324,16.69-0.17
		c7.172-1.985,12.738-0.107,18.306,4.463c5.753,4.723,12.16,8.645,18.238,12.978c2.507,1.786,5.205,2.824,8.299,2.813
		c23.431-0.091,46.862-0.16,70.292-0.285c2.284-0.012,4.776,0.102,5.851-2.691c6.36-5.109,12.217-10.835,17.405-17.039
		c11.123-13.3,12.538-28.178,5.304-43.855c-5.779-12.526-12.948-24.264-21.322-35.193c-5.23-6.828-10.99-13.27-16.778-19.644
		c-4.737-5.216-8.892-11.126-15.44-14.43c0.035-1.294-0.758-2.144-1.6-2.965c-5.567-5.425-11.532-10.389-17.423-15.455
		c-5.95-5.117-11.304-4.545-17.141-0.512c-1.738-0.083-3.411,0.126-4.911,1.103c-1.125-0.034-2.283-0.174-3.057,0.937
		c-1.985,0.344-3.97,0.688-5.955,1.031c-5.349,0.91-8.817,4.107-8.954,8.799c-0.187,6.428-0.172,12.869-0.005,19.298
		c0.115,4.441,2.312,5.56,6.953,3.896c1.681-0.23,3.563,0.64,5.002-0.915c0.669-0.035,1.338-0.069,2.007-0.104
		c0.612,0.03,1.225,0.061,1.838,0.091c0.662,2.248,2.272,3.681,4.177,4.863c0.414,0.925,1.023,1.649,2.028,1.965
		c0.983,1.684,2.332,3.02,3.924,4.125c0.677,0.659,1.354,1.318,2.03,1.977c0.845,1.472,0.857,3.465,2.7,4.313
		c1.879,4.239,4.617,7.796,8.377,10.541L129.156,74.928z"/>
	<path fill-rule="evenodd" clip-rule="evenodd" fill="#FCF391" d="M149.092,31.867c6.549,3.304,10.703,9.213,15.44,14.43
		c5.788,6.374,11.548,12.816,16.778,19.644c8.374,10.929,15.543,22.667,21.322,35.193c7.234,15.678,5.819,30.556-5.304,43.855
		c-5.188,6.204-11.045,11.93-17.405,17.038c-6.278-9.499-13-18.645-21.068-26.739c-1.776-1.782-3.685-3.306-5.966-4.357
		c-1.699-3.029-0.039-5.141,1.955-7.16c0.291,1.186,0.63,2.362,2.252,1.967c1.088-0.266,1.725-1.109,1.778-2.158
		c0.144-2.814,0.333-5.615-0.305-8.437c-2.41-10.66-9.422-18.909-14.583-28.127c-0.239-7.378,1.414-14.928-1.995-22.019
		c0.001-0.999,0.002-1.997,0.002-2.996c1.796-4.405,1.634-8.773,0.452-13.376c-2.279-8.883-0.545-13.274,5.555-15.621
		C148.364,32.625,148.729,32.246,149.092,31.867z"/>
	<path fill-rule="evenodd" clip-rule="evenodd" fill="#F8B577" d="M152.89,130.931c2.281,1.052,4.189,2.575,5.966,4.357
		c8.068,8.095,14.79,17.24,21.068,26.739c-1.074,2.794-3.566,2.681-5.851,2.692c-23.431,0.125-46.861,0.194-70.292,0.285
		c-3.094,0.012-5.792-1.026-8.299-2.813c-6.078-4.333-12.485-8.255-18.238-12.978c-5.567-4.57-11.134-6.448-18.306-4.463
		c-5.397,1.494-11.096,1.296-16.69,0.17c-2.695-0.543-5.258-0.03-7.361,1.943c-0.406,0.38-0.813,0.76-1.22,1.141
		c-1.445-0.211-2.5,0.568-3.614,1.323c-5.535,3.753-9.96,8.629-14.113,13.789c-3.677,1.193-8.433,2.438-10.764-0.193
		c-2.648-2.989,1.594-6.148,3.341-8.915c6.848-10.85,14.432-21.008,25.785-27.782c3.312-1.976,6.838-2.655,10.345-2.966
		c8.947-0.795,17.678-0.183,26.395,3.022c18.31,6.732,36.842,12.81,56.619,13.896c7.935,0.436,14.717-1.463,20.477-6.938
		C149.47,131.977,150.82,130.704,152.89,130.931z"/>
	<path fill-rule="evenodd" clip-rule="evenodd" fill="#F9E67A" d="M149.092,31.867c-0.363,0.379-0.728,0.758-1.091,1.138
		c-2.193-1.423-4.349-2.91-6.593-4.248c-1.898-1.131-3.983-0.899-4.164,1.463c-0.269,3.497-1.92,7.247,0.236,10.565
		c3.435,5.289,3.908,11.051,3.546,17.074c-0.086,1.423-0.425,3.017,0.968,4.143c0,0.999-0.001,1.997-0.002,2.996
		c-2.052,0.213-1.482,1.39-1.272,2.8c0.626,4.207,0.562,8.39-1.744,12.212c-4.953-3.913-7.748-9.658-12.017-14.161
		c-2.542-2.682-4.308-6.431-8.952-5.847c-0.677-0.659-1.354-1.317-2.029-1.977c1.658-7.571-0.984-14.329-3.978-21.02
		c-1.035-2.933-1.044-5.991-1.099-9.042c0.02-3.365,0.028-6.73,0.961-10.007c0.266-1.692,1.475-3.185,1.066-5.02
		c5.837-4.033,11.19-4.605,17.141,0.512c5.891,5.066,11.855,10.029,17.423,15.455C148.334,29.723,149.127,30.572,149.092,31.867z"/>
	<path fill-rule="evenodd" clip-rule="evenodd" fill="#F7DA72" d="M118.007,60.001c4.645-0.584,6.41,3.165,8.952,5.847
		c4.269,4.503,7.063,10.248,12.017,14.161c0.932,2.864,2.367,5.368,5.012,7.007c5.161,9.218,12.173,17.467,14.583,28.127
		c0.638,2.821,0.448,5.622,0.305,8.437c-0.054,1.049-0.69,1.893-1.778,2.158c-1.622,0.396-1.961-0.781-2.252-1.967
		c-0.215-12.554-7.088-22.412-13.251-32.533c-1.606-2.639-3.595-5.044-5.409-7.555c-0.215-1.567-0.391-3.163-2.435-3.438
		c-0.533-0.499-1.067-0.997-1.603-1.494c-0.14-1.944-0.698-3.561-2.991-3.822c0,0-0.072-0.073-0.072-0.072
		c-1.172-4.801-4.083-8.221-8.377-10.542C118.864,63.466,118.852,61.473,118.007,60.001z"/>
	<path fill-rule="evenodd" clip-rule="evenodd" fill="#FCFAF3" d="M97,47.998c-4.641,1.664-6.838,0.545-6.953-3.896
		c-0.167-6.429-0.182-12.87,0.005-19.298c0.136-4.692,3.605-7.89,8.954-8.799C95.863,26.514,95.121,37.174,97,47.998z"/>
	<path fill-rule="evenodd" clip-rule="evenodd" fill="#221F51" d="M15.94,163.118c4.153-5.16,8.578-10.036,14.113-13.789
		c1.113-0.755,3.067-2.375,4.515-2.166c1.025,5.562-1.221,12.178,0.775,17.666c-5.296,0.061-10.971,0.145-16.267,0.164
		C17.714,164.998,15.891,165.563,15.94,163.118z"/>
	<path fill-rule="evenodd" clip-rule="evenodd" fill="#FCF8E8" d="M97,47.998c-1.879-10.824-1.137-21.484,2.005-31.993
		c1.985-0.343,3.97-0.687,5.956-1.031c-2.979,10.521-3.467,21.27-2.958,32.111C100.563,48.638,98.681,47.768,97,47.998z"/>
	<path fill-rule="evenodd" clip-rule="evenodd" fill="#2E2E74" d="M47.438,164.845c-2.328,0.001-5.093-0.008-7.421-0.008
		c0-5.892-0.001-11.782-0.002-17.674c2.633,0.152,5.059,0.849,7.051,2.684C47.044,154.843,47.459,159.849,47.438,164.845z"/>
	<path fill-rule="evenodd" clip-rule="evenodd" fill="#2A2864" d="M40.377,147.189c0,5.892-0.002,11.756-0.002,17.647
		c-1.683-0.003-3.726-0.006-5.41-0.009c-1.997-5.488-0.27-11.263-1.295-16.824c0.403-0.379,0.81-0.759,1.216-1.139
		C36.595,146.964,38.667,147.09,40.377,147.189z"/>
	<path fill-rule="evenodd" clip-rule="evenodd" fill="#30317B" d="M47.001,164.836c0.021-4.996,0.042-9.993,0.064-14.989
		c4.339,2.672,6.896,6.827,8.777,11.316c0.854,2.039,0.494,4.316-2.923,3.874C50.971,164.785,48.976,164.892,47.001,164.836z"/>
	<path fill-rule="evenodd" clip-rule="evenodd" fill="#FAEFBC" d="M112.929,12.935c0.408,1.835-0.801,3.328-1.065,5.021
		c-1.462,0.16-2.439,0.893-2.82,2.357c-1.898,7.294-4.377,14.517-2.344,22.242c0.412,1.564,0.829,3.278-0.852,4.517
		c-0.613-0.03-1.226-0.061-1.838-0.091c0.294-6.384-0.045-12.749,0.705-19.179c0.563-4.831,3.816-8.827,3.303-13.764
		C109.518,13.061,111.19,12.852,112.929,12.935z"/>
	<path fill-rule="evenodd" clip-rule="evenodd" fill="#F9ECAA" d="M105.848,47.071c1.681-1.239,1.264-2.953,0.852-4.517
		c-2.033-7.725,0.445-14.947,2.344-22.242c0.381-1.464,1.358-2.197,2.82-2.357c-0.934,3.277-0.942,6.642-0.961,10.007
		c-2.368,0.457-1.891,2.344-1.89,3.906c0.002,6.704-0.382,13.43,1.012,20.065C108.12,50.752,106.51,49.318,105.848,47.071z"/>
	<path fill-rule="evenodd" clip-rule="evenodd" fill="#FBF2CE" d="M108.018,14.038c0.514,4.937-2.739,8.933-3.303,13.764
		c-0.75,6.43-0.411,12.794-0.705,19.179c-0.669,0.035-1.338,0.069-2.007,0.104c-0.508-10.84-0.021-21.59,2.958-32.11
		C105.735,13.863,106.893,14.003,108.018,14.038z"/>
	<path fill-rule="evenodd" clip-rule="evenodd" fill="#FCEF85" d="M112,37.005c2.993,6.691,5.636,13.448,3.978,21.02
		c-1.593-1.105-2.941-2.441-3.926-4.125c-0.247-2.775,0.082-5.542-0.596-8.354C110.786,42.77,110.134,39.736,112,37.005z"/>
	<path fill-rule="evenodd" clip-rule="evenodd" fill="#F9E999" d="M112,37.005c-1.866,2.731-1.214,5.765-0.544,8.542
		c0.678,2.811,0.349,5.579,0.596,8.354c-1.004-0.317-1.613-1.041-2.027-1.966c-1.394-6.635-1.01-13.361-1.012-20.065
		c-0.001-1.562-0.479-3.45,1.89-3.906C110.956,31.014,110.965,34.072,112,37.005z"/>
	<path fill-rule="evenodd" clip-rule="evenodd" fill="#F9ECAA" d="M120.707,64.314c4.294,2.321,7.205,5.741,8.377,10.542
		C125.324,72.11,122.586,68.553,120.707,64.314z"/>
	<path fill-rule="evenodd" clip-rule="evenodd" fill="#F9ECAA" d="M129.156,74.928c2.293,0.261,2.852,1.878,2.991,3.822
		C130.292,78.147,129.166,76.975,129.156,74.928z"/>
	<path fill-rule="evenodd" clip-rule="evenodd" fill="#F9ECAA" d="M133.75,80.244c2.044,0.275,2.22,1.872,2.435,3.438
		C134.198,83.368,134.038,81.76,133.75,80.244z"/>
	<path fill-rule="evenodd" clip-rule="evenodd" fill="#FCEF85" d="M141.994,62.001c-1.393-1.126-1.054-2.719-0.968-4.143
		c0.362-6.023-0.111-11.786-3.546-17.074c-2.156-3.318-0.505-7.068-0.236-10.565c0.181-2.362,2.266-2.594,4.164-1.463
		c2.244,1.338,4.399,2.825,6.593,4.248c-6.1,2.347-7.834,6.737-5.555,15.621C143.628,53.229,143.79,57.596,141.994,62.001z"/>
	<path fill-rule="evenodd" clip-rule="evenodd" fill="#FCEF85" d="M143.987,87.016c-2.645-1.64-4.08-4.144-5.012-7.007
		c2.306-3.822,2.37-8.004,1.744-12.211c-0.21-1.41-0.779-2.587,1.272-2.8C145.401,72.088,143.748,79.637,143.987,87.016z"/>
</g>
</svg>
