<?xml version="1.0" encoding="utf-8"?>
<!-- Generator: Adobe Illustrator 16.0.3, SVG Export Plug-In . SVG Version: 6.00 Build 0)  -->
<!DOCTYPE svg PUBLIC "-//W3C//DTD SVG 1.1//EN" "http://www.w3.org/Graphics/SVG/1.1/DTD/svg11.dtd">
<svg version="1.1" id="Layer_1" xmlns="http://www.w3.org/2000/svg" xmlns:xlink="http://www.w3.org/1999/xlink" x="0px" y="0px"
	 width="140px" height="150px" viewBox="0 0 140 150" enable-background="new 0 0 140 150" xml:space="preserve">
<g>
	<path fill-rule="evenodd" clip-rule="evenodd" fill="#F7AC73" d="M120.2,93.098c-3.051,15.095-6.548,30.095-11.108,44.797
		c-2.239,7.218-9.443,7.814-15.227,7.907c-27.445,0.441-54.902,0.156-82.354,0.256c-2.98,0.011-3.684-1.123-3.555-3.808
		c0.175-3.652,0.284-7.34-0.024-10.974c-0.312-3.67,1.211-4.369,4.555-4.346c20.297,0.138,40.597-0.028,60.892,0.161
		c3.494,0.033,4.822-1.128,5.825-4.34c4.244-13.594,8.788-27.093,13.221-40.629c9.412,1.104,17.697,5.503,26.255,9.086
		C119.335,91.483,119.7,92.452,120.2,93.098z"/>
	<path fill-rule="evenodd" clip-rule="evenodd" fill="#71286F" d="M120.2,93.098c-0.5-0.646-0.865-1.614-1.521-1.889
		c-8.558-3.583-16.843-7.981-26.255-9.086c-0.628-1.277-0.444-2.494,0.022-3.822c7.7-21.906,17.483-42.798,30.302-62.2
		c1.897-2.872,4.424-6.949,7.38-6.537c2.367,0.33,3.587,5.126,4.085,8.438c1.671,11.116,1.646,22.345-0.586,33.264
		c-2.531,12.375-6.334,24.492-9.621,36.711C123.422,90.149,123.029,92.554,120.2,93.098z"/>
</g>
</svg>
