<?xml version="1.0" encoding="utf-8"?>
<!-- Generator: Adobe Illustrator 16.0.3, SVG Export Plug-In . SVG Version: 6.00 Build 0)  -->
<!DOCTYPE svg PUBLIC "-//W3C//DTD SVG 1.1//EN" "http://www.w3.org/Graphics/SVG/1.1/DTD/svg11.dtd">
<svg version="1.1" id="Layer_1" xmlns="http://www.w3.org/2000/svg" xmlns:xlink="http://www.w3.org/1999/xlink" x="0px" y="0px"
	 width="160px" height="110px" viewBox="0 0 160 110" enable-background="new 0 0 160 110" xml:space="preserve">
<g>
	<path fill-rule="evenodd" clip-rule="evenodd" fill="#F8A973" d="M145.839,52.779c-8.197,14.773-16.531,29.475-24.522,44.359
		c-3.005,5.598-6.909,8.039-13.449,7.995c-20.541-0.14-40.355-4.242-60.042-9.561c-3.161-0.854-6.793-3.745-9.956,0.325
		c-1.656,1.205-3.313,2.41-4.969,3.614c-4.413,0.519-1.979-2.543-1.935-4.932c-1.989,1.879-3.482,3.289-4.975,4.699
		c-1.113-0.13-2.297-0.078-2.77-1.469c-1.026-3.017-1.013-2.98-3.468-0.816c-0.836,0.737-1.85,1.273-2.783,1.902
		c-3.273-1.138-1.576-3.676-1.562-6.061c-1.917,1.263-3.649,2.402-5.38,3.542c-1.024-0.126-2.048-0.253-3.072-0.38
		c0.888-5.032,3.814-8.332,7.919-11.434c14.076-10.637,29.918-9.158,45.904-7.735c3.97,0.354,7.991,0.176,11.988,0.156
		c6.32-0.031,12.547,0.794,18.754,1.865c1.702,0.294,3.346,0.311,4.394-1.449c7.539-12.66,15.081-25.318,22.612-37.98
		C127.729,43.661,136.079,49.663,145.839,52.779z"/>
	<path fill-rule="evenodd" clip-rule="evenodd" fill="#752B70" d="M145.839,52.779c-9.76-3.117-18.109-9.118-27.311-13.357
		c-0.169-0.141-0.351-0.28-0.535-0.416c-1.711-3.495-0.345-6.2,2.11-8.728c2.131-2.194,4.041-4.577,5.007-7.562
		c8.3-7.042,20.951-7.511,29.237-1.095c0.804,0.622,1.536,1.246,1.625,2.363c0.766,9.639-0.205,18.865-5.967,27.097
		C148.866,52.71,147.675,53.305,145.839,52.779z"/>
	<path fill-rule="evenodd" clip-rule="evenodd" fill="#BA8FAA" d="M125.11,22.717c-0.966,2.985-2.876,5.368-5.007,7.562
		c-2.455,2.528-3.821,5.233-2.11,8.728c-3.99-0.027-4.432-2.859-3.499-5.493c2.768-7.813,5.921-15.492,9.026-23.181
		c0.612-1.517,1.736-3.356,3.627-2.611c1.627,0.641,0.883,2.663,0.722,4.056C127.436,15.534,124.389,18.649,125.11,22.717z"/>
	<path fill-rule="evenodd" clip-rule="evenodd" fill="#201A49" d="M16.563,99.313c0.933-0.629,2.355-1.58,3.192-2.317
		c2.455-2.164,2.442-2.2,3.468,0.816c0.473,1.391,1.657,1.339,2.77,1.469c-0.002,1.557-0.005,3.112-0.007,4.669
		c-2.997-0.029-5.994-0.06-8.991-0.09C16.986,102.205,16.57,100.967,16.563,99.313z"/>
	<path fill-rule="evenodd" clip-rule="evenodd" fill="#18163C" d="M16.972,98.897c0.007,1.654,0.014,3.308,0.021,4.962
		c-2.331-0.011-4.662-0.021-6.992-0.032c0.01-2.482-0.385-4.469-0.376-6.952c1.731-1.14,3.868-2.775,5.785-4.038
		C15.396,95.222,13.699,97.76,16.972,98.897z"/>
	<path fill-rule="evenodd" clip-rule="evenodd" fill="#2F2C63" d="M32.33,99.56c1.656-1.204,3.885-2.456,5.541-3.661
		c0.122,0.639,0.268,1.273,0.363,1.916c1.026,6.913,1.024,6.914-6.254,6.229C32.038,102.482,31.19,100.9,32.33,99.56z"/>
	<path fill-rule="evenodd" clip-rule="evenodd" fill="#2F2657" d="M32.901,99.513c-1.139,1.341-0.864,2.97-0.922,4.53
		c-1.998-0.031-3.997-0.063-5.995-0.094c0.002-1.557,0.005-3.112,0.007-4.669c1.493-1.41,2.986-2.82,4.975-4.699
		C30.922,96.97,28.489,100.031,32.901,99.513z"/>
	<path fill-rule="evenodd" clip-rule="evenodd" fill="#241E38" d="M10.03,96.379c-0.009,2.483-0.019,4.966-0.029,7.448
		c-1.761,0.024-4.425,1.074-5.026-0.591c-0.867-2.401-0.358-5.283,1.983-7.237C7.982,96.126,9.006,96.253,10.03,96.379z"/>
</g>
</svg>
