<?xml version="1.0" encoding="utf-8"?>
<!-- Generator: Adobe Illustrator 16.0.3, SVG Export Plug-In . SVG Version: 6.00 Build 0)  -->
<!DOCTYPE svg PUBLIC "-//W3C//DTD SVG 1.1//EN" "http://www.w3.org/Graphics/SVG/1.1/DTD/svg11.dtd">
<svg version="1.1" id="Layer_1" xmlns="http://www.w3.org/2000/svg" xmlns:xlink="http://www.w3.org/1999/xlink" x="0px" y="0px"
	 width="170px" height="120px" viewBox="0 0 170 120" enable-background="new 0 0 170 120" xml:space="preserve">
<g>
	<path fill-rule="evenodd" clip-rule="evenodd" fill="#F6AF79" d="M14.754,106.845c-1.689-4.063-0.228-6.916,3.145-9.444
		c9.247-6.93,19.681-10.202,31.111-10.381c14.969-0.234,29.825,1.063,44.548,3.802c4.409,0.819,7.75,0.126,10.438-4.272
		c5.901-9.659,11.35-19.563,16.926-29.399c4.493-7.924,5.217-8.222,13.054-4.142c5.012,2.609,10.557,3.936,15.489,6.796
		c2.951,1.711,3.633,3.316,1.961,6.344c-8.036,14.563-15.995,29.162-25.004,43.166c-3.076,4.782-6.988,6.635-12.821,6.856
		c-16.098,0.614-31.062-4.863-46.516-7.648c-6.017-1.084-12.001-2.408-17.919-3.94c-1.677-0.435-2.48-0.032-3.355,1.089
		c-2.054,0.263-2.83,2.088-4.08,3.336c-1.254,1.252-2.735,1.522-4.498,1.367c-2.834-0.25-0.071-2.971-1.735-3.62
		c-1.711,0.603-1.804,3.553-4.054,3.093c-2.056-0.42-1.153-2.375-1.318-3.735c0.838-0.374,1.104-0.951,0.635-1.789
		c-0.463,0.283-0.925,0.567-1.388,0.852c-1.508,1.097-3.017,2.193-4.525,3.29c-4.197,0.38-2.027-3.438-3.313-5.081
		C19.25,104.517,17.569,106.823,14.754,106.845z"/>
	<path fill-rule="evenodd" clip-rule="evenodd" fill="#2B255C" d="M23.208,109.611c1.509-1.097,4.656-3.342,6.164-4.438
		c0.251,0.313,1.23-0.672,1.481-0.359c0.165,1.36-1.466,4.612,0.59,5.032c2.25,0.46,2.343-2.49,4.054-3.093
		c1.664,0.649-1.099,3.37,1.735,3.62c1.762,0.155,3.243-0.115,4.498-1.367c1.25-1.248,2.025-3.073,4.08-3.336
		c1.441,10.335,1.441,10.351-8.991,10.33c-3.941-0.008-7.882-0.104-11.824-0.158C24.946,113.382,23.258,112.07,23.208,109.611z"/>
	<path fill-rule="evenodd" clip-rule="evenodd" fill="#252157" d="M24.847,108.463c0.05,2.459,0.099,4.919,0.149,7.379
		c-5.625,0-11.251,0-17.329,0c1.867-3.669,4.264-6.486,7.082-8.995c2.82-0.023,4.501-2.33,6.785-3.465
		C22.82,105.024,20.65,108.843,24.847,108.463z"/>
	<path fill-rule="evenodd" clip-rule="evenodd" fill="#D8B0BF" d="M135.941,9.017c-0.749,6.307-3.867,11.843-5.851,17.744
		c-2.231,6.636-6.406,12.537-7.081,19.848c-3.358-3.804-1.738-7.411-0.274-10.75c3.859-8.798,7.398-17.711,10.493-26.803
		C134.131,9.043,135.036,9.03,135.941,9.017z"/>
	<path fill-rule="evenodd" clip-rule="evenodd" fill="#D9B2C1" d="M154.908,58.196c1.708-4.618,3.561-9.704,5.486-14.763
		c0.305-0.799,1.129-1.392,1.963-0.913c0.363,0.208,0.485,1.185,0.401,1.768c-0.772,5.421-3.145,10.345-4.899,15.461
		c-0.324,0.945-0.785,2.036-2.025,1.593C154.672,60.927,155.093,59.679,154.908,58.196z"/>
	<path fill-rule="evenodd" clip-rule="evenodd" fill="#DEBDCA" d="M135.941,9.017c-0.905,0.013-1.811,0.026-2.713,0.04
		c0.144-0.873,0.646-1.587,1.482-1.673C135.777,7.275,135.904,8.183,135.941,9.017z"/>
	<path fill-rule="evenodd" clip-rule="evenodd" fill="#2B255C" d="M29.373,105.173c0.463-0.284,0.925-0.568,1.388-0.852
		c0.47,0.838,0.204,1.415-0.635,1.789C29.875,105.798,29.624,105.485,29.373,105.173z"/>
</g>
</svg>
