<?xml version="1.0" encoding="utf-8"?>
<!-- Generator: Adobe Illustrator 16.0.3, SVG Export Plug-In . SVG Version: 6.00 Build 0)  -->
<!DOCTYPE svg PUBLIC "-//W3C//DTD SVG 1.1//EN" "http://www.w3.org/Graphics/SVG/1.1/DTD/svg11.dtd">
<svg version="1.1" id="Layer_1" xmlns="http://www.w3.org/2000/svg" xmlns:xlink="http://www.w3.org/1999/xlink" x="0px" y="0px"
	 width="140px" height="150px" viewBox="0 0 140 150" enable-background="new 0 0 140 150" xml:space="preserve">
<g>
	<path fill-rule="evenodd" clip-rule="evenodd" fill="#F7B078" d="M117.01,98.161c-3.067,14.486-7.183,28.679-11.849,42.725
		c-1.404,4.227-5.08,5.008-8.542,5.973c-6.693,1.866-13.599,1.135-20.374,0.81c-21.474-1.032-42.957-0.361-64.43-0.78
		c-2.668-0.053-6.846,1.122-7.437-2.079c-0.81-4.382-1.613-9.396,1.134-13.589c1.315-2.007,3.964-1.376,6.081-1.373
		c17.489,0.019,34.979,0.107,52.468,0.144c7.285,0.015,10.621-2.196,13.182-8.986c4.276-11.339,8.426-22.726,12.627-34.094
		C98.784,90.976,108.396,93.367,117.01,98.161z"/>
	<path fill-rule="evenodd" clip-rule="evenodd" fill="#CB286F" d="M117.01,98.161c-8.614-4.794-18.226-7.186-27.141-11.251
		c-1.661-0.992-1.869-2.054-1.187-4.068c4.554-13.435,11.186-25.99,16.329-39.166c4.688-12.01,11.851-22.452,20.069-32.246
		c0.744-0.886,1.604-1.71,2.53-2.402c4.458-3.329,3.806-2.712,6.734,2.013c3.692,5.957,0.979,12.989,4.524,18.716
		c0.472,0.763,0.013,2.305-0.366,3.36c-7.111,19.81-11.816,40.359-18.594,60.267C119.331,95.087,119.557,97.548,117.01,98.161z"/>
</g>
</svg>
