<?xml version="1.0" encoding="utf-8"?>
<!-- Generator: Adobe Illustrator 16.0.3, SVG Export Plug-In . SVG Version: 6.00 Build 0)  -->
<!DOCTYPE svg PUBLIC "-//W3C//DTD SVG 1.1//EN" "http://www.w3.org/Graphics/SVG/1.1/DTD/svg11.dtd">
<svg version="1.1" id="Layer_1" xmlns="http://www.w3.org/2000/svg" xmlns:xlink="http://www.w3.org/1999/xlink" x="0px" y="0px"
	 width="1350px" height="262px" viewBox="0 0 1350 262" enable-background="new 0 0 1350 262" xml:space="preserve">
<g>
	<path fill-rule="evenodd" clip-rule="evenodd" fill="#F26922" d="M1157.926,260.144c-4.398-0.139-8.715-0.98-13.163-0.979
		c-338.603,0.079-677.205,0.072-1015.807,0.072c-19.658,0-39.315,0.011-58.973-0.007c-6.574-0.006-9.748-2.722-10.952-9.16
		C44.775,173.863,30.509,97.659,16.264,21.452c-0.149-0.8-0.061-1.644-0.083-2.467c4.55-1.301,9.218-0.978,13.858-0.978
		C335.537,18,641.035,17.999,946.532,18.001c64.167,0.001,128.333,0.018,192.499,0.028c0.704,16.512,2.476,32.941,3.772,49.407
		c1.35,17.131,2.704,34.26,4.097,51.388c1.352,16.63,2.545,33.271,4.021,49.894c1.316,14.817,1.778,29.714,3.255,44.512
		c0.495,4.959,0.551,9.911,0.991,14.853C1156.12,238.767,1157.011,249.456,1157.926,260.144z"/>
	<path fill-rule="evenodd" clip-rule="evenodd" fill="#CD5528" d="M1157.926,260.144c-0.915-10.688-1.806-21.377-2.758-32.062
		c-0.44-4.941-0.496-9.894-0.991-14.853c-1.477-14.798-1.938-29.694-3.255-44.512c-1.477-16.622-2.67-33.264-4.021-49.894
		c-1.393-17.127-2.747-34.257-4.097-51.388c-1.297-16.466-3.068-32.895-3.772-49.408c61.764-0.01,123.529-0.023,185.294-0.001
		c1.575,0,3.382-0.632,4.631,1.02c-3.131-0.108-2.135,2.618-2.401,4.004c-3.615,18.777-7.055,37.588-10.534,56.392
		c-10.681,57.717-21.349,115.437-32.063,173.148c-0.716,3.857-2.36,6.483-7.167,6.521c-38.8,0.313-77.598,0.835-116.396,1.277
		C1159.572,260.399,1158.749,260.229,1157.926,260.144z"/>
	<path fill-rule="evenodd" clip-rule="evenodd" fill="#F07E22" d="M1328.956,19.047c-1.249-1.651-3.056-1.019-4.631-1.02
		c-61.765-0.022-123.53-0.008-185.294,0.001c-64.166-0.009-128.332-0.026-192.499-0.027C641.035,17.999,335.537,18,30.039,18.006
		c-4.64,0-9.308-0.323-13.858,0.978c-2.699-1.535-6.062-2.677-5.29-6.773c0.702-3.722,3.787-4.572,6.955-5.482
		c2.479-0.712,4.923-0.714,7.409-0.714C458.506,6.008,891.758,6.011,1325.01,5.971c3.382,0,6.658,0.354,9.78,1.531
		c2.429,0.915,4.39,2.508,4.406,5.462c0.017,2.951-1.872,4.719-4.355,5.44C1333.004,18.938,1331.104,20.796,1328.956,19.047z"/>
</g>
</svg>
