<?xml version="1.0" encoding="utf-8"?>
<!-- Generator: Adobe Illustrator 16.0.3, SVG Export Plug-In . SVG Version: 6.00 Build 0)  -->
<!DOCTYPE svg PUBLIC "-//W3C//DTD SVG 1.1//EN" "http://www.w3.org/Graphics/SVG/1.1/DTD/svg11.dtd">
<svg version="1.1" id="Layer_1" xmlns="http://www.w3.org/2000/svg" xmlns:xlink="http://www.w3.org/1999/xlink" x="0px" y="0px"
	 width="1024px" height="1024px" viewBox="0 0 1024 1024" enable-background="new 0 0 1024 1024" xml:space="preserve">
<g>
	<path fill-rule="evenodd" clip-rule="evenodd" fill="#F5812C" d="M151.732,698.982c-0.118-8.82,0.403-18.306,1.489-27.752
		c0.289-2.51-0.317-3.888-2.834-4.896c-39.735-15.904-65.339-45.337-78.763-85.188c-15.227-45.204-12.826-89.485,12.837-130.66
		c15.508-24.881,36.911-44.09,63.092-57.712c4.282-2.228,8.252-5.091,12.626-7.093c4.091-1.872,4.787-4.166,3.741-8.49
		c-5.244-21.687-9.287-43.546-11.469-65.842c-7.898-80.705,52.396-142.089,118.291-151.132c26.756-3.671,53.167-1.16,79.426,4.229
		c6.522,1.339,13.035,2.753,19.485,4.396c3.017,0.769,4.268-0.039,5.432-2.967c22.792-57.313,65.726-88.928,126.265-95.73
		c48.378-5.437,90.862,9.039,125.569,43.976c13.083,13.17,22.656,28.756,29.501,45.956c1.429,3.593,3.156,4.151,6.683,3.597
		c21.072-3.313,42.218-5.669,63.622-5.648c38.184,0.037,70.273,14.047,97.257,40.783c19.019,18.844,34.296,39.867,41.052,66.239
		c5.811,22.688,5.213,45.539,1.736,68.469c-2.124,14.006-5.063,27.833-9.005,41.437c-0.713,2.458-0.877,3.875,2.265,4.58
		c35.525,7.967,61.072,29.705,79.64,59.862c24.526,39.833,31.688,82.85,18.438,128.064c-10.827,36.944-32.73,65.918-66.702,85.089
		c-7.12,4.018-13.653,8.938-20.454,13.447c-3.239,2.148-4.166,4.511-3.66,8.279c2.653,19.755,2.303,39.491,0.017,59.307
		c-7.495,64.983-52.553,112.635-117.088,123.682c-28.455,4.87-56.752,3.681-84.977-1.484c-3.05-0.559-3.95,0.138-5.03,2.778
		c-22.721,55.553-63.839,88.187-123.08,97.271c-58.972,9.043-120.807-20.958-151.143-72.37
		c-5.605-9.499-10.464-19.325-14.146-29.703c-1.135-3.201-2.497-3.824-5.814-2.863c-23.674,6.854-47.818,10.415-72.514,9.199
		c-36.645-1.804-69.516-13.205-96.479-38.936c-21.939-20.937-34.439-47.057-40.976-76.309
		C152.736,729.975,151.563,714.886,151.732,698.982z M476.198,706.893c1.662-0.143,2.121-1.134,2.737-1.874
		c2.985-3.584,5.819-7.299,8.909-10.787c21.467-24.24,46.055-45.341,68.823-68.278c41.317-41.627,83.198-82.69,123.585-125.245
		c27.066-28.52,54.319-56.908,84.748-81.959c3.337-2.748,1.295-3.913-0.427-5.688c-25.291-26.073-50.641-52.09-75.79-78.299
		c-2.971-3.098-4.413-2.259-6.93,0.239c-66.456,65.975-132.987,131.875-199.435,197.859c-2.28,2.264-3.51,2.361-5.901,0.114
		c-17.602-16.548-35.353-32.938-53.067-49.367c-25.655-23.794-51.367-47.528-76.912-71.441c-2.871-2.687-4.606-2.722-7.129,0.109
		c-2.318,2.602-5.051,4.835-7.612,7.219c-23.301,21.677-46.573,43.386-69.953,64.979c-2.496,2.305-2.884,3.691-0.219,6.204
		c5.938,5.598,11.54,11.551,17.296,17.343c64.839,65.247,129.683,130.489,194.516,195.743
		C474.492,704.824,475.423,706.009,476.198,706.893z"/>
	<path fill-rule="evenodd" clip-rule="evenodd" fill="#EBEAE9" d="M40.32,624.086c-3.035-2.701-4.683-5.559-5.876-8.938
		c-4.675-13.242-9.702-26.328-12.667-40.154c-1.346-6.276-5.639-12.303-4.494-18.729c1.182-6.625-2.088-12.613-0.872-19.331
		c0.573-3.165-1.714-7.875-1.305-11.932c0.503-4.986,1.718-9.898,2.623-14.843c0.089-0.488,0.38-1.082,0.207-1.453
		c-3.215-6.861,1.224-13.033,2.675-19.059c1.667-6.926,3.802-13.953,5.949-20.869c2.596-8.357,5.283-16.893,8.95-24.602
		c8.311-17.476,17.428-34.856,30.826-49.109c5.179-5.511,10.342-11.228,17.022-15.653c7.168-4.75,15.31-7.384,22.33-12.339
		c4.097-2.892,5.032-6.294,5.297-10.429c0.628-9.813-2.742-18.852-5.927-27.867c-0.58-1.642-1.306-3.038-0.529-4.689
		c1.203-2.56,0.151-4.993-0.629-7.272c-2.964-8.671-2.108-17.126-0.491-26.009c0.708-3.889,2.297-8.346,0.826-12.719
		c-1.601-4.755,0.85-9.201,2.319-13.309c2.677-7.488,3.889-15.4,6.784-22.711c3.397-8.583,6.695-17.263,11.374-25.328
		c2.989-5.153,5.627-10.506,9.136-15.35c0.643-0.887,0.909-2.246,3.091-1.658c-2.004,3.482-3.859,6.872-5.867,10.168
		c-12.533,20.576-19.922,43.073-23.828,66.643c-3.646,22.003-2.644,43.849,4.694,65.235c1.575,4.59,2.021,9.78,1.937,14.677
		c-0.13,7.641-4.085,13.066-11.422,15.912c-18.458,7.16-32.258,20.003-43.536,35.906c-19.259,27.158-31.066,57.534-37.587,89.908
		c-3.887,19.298-3.286,38.927-0.664,58.47c3.092,23.056,9.781,44.983,19.948,65.879C40.722,622.758,40.51,623.139,40.32,624.086z"/>
	<path fill-rule="evenodd" clip-rule="evenodd" fill="#EBEAE9" d="M615.941,976.736c-2.071,3.367-5.655,3.621-8.275,5.349
		c-10.787,7.111-23.629,8.811-35.305,13.581c-6.893,2.817-14.809,3.164-22.286,4.501c-4.195,0.751-8.407,1.049-12.445,2.849
		c-2.771,1.235-5.947,1.868-9.207,0.514c-3.032-1.261-5.283,2.542-8.504,1.725c-9.388-2.383-19.117-0.61-28.765-3.497
		c-8.529-2.552-17.696-4.123-26.69-5.33c-7.174-0.961-13.529-4.116-20.274-6.171c-10.688-3.259-20.185-9.164-30.007-14.408
		c-19.35-10.333-34.532-25.382-48.479-41.758c-6.995-8.214-12.558-17.635-19.027-26.317c-2.138-2.87-4.674-4.72-9.257-4.067
		c-9.654,1.372-19.18,3.524-28.833,4.917c-6.403,0.924-12.705,1.341-19.093,1.573c-2.989,0.108-5.723-0.197-8.546-1.837
		c-2.983-1.733-6.814-0.846-10.301-1.537c-11.243-2.231-22.865-2.64-33.453-7.715c-6.694-3.209-14.369-3.942-20.638-8.209
		c-0.756-0.515-1.497-1.053-2.926-2.063c4.083-0.729,6.556,1.208,9.09,2.3c18.591,8.013,37.912,12.442,58.123,14.279
		c19.815,1.803,38.986-0.705,58.053-5.3c3.431-0.826,5.142,0.227,7.052,2.713c10.993,14.312,20.536,29.83,33.238,42.714
		c11.647,11.814,24.508,22.372,39.23,30.322c17.919,9.677,36.64,17.289,56.797,20.867c9.933,1.763,19.938,2.845,30.023,3.646
		c23.811,1.889,46.9-1.638,69.586-8.229c11.458-3.327,22.851-7.1,33.399-12.933C610.481,977.966,612.784,976.631,615.941,976.736z"
		/>
	<path fill-rule="evenodd" clip-rule="evenodd" fill="#EBEAE9" d="M949.696,668.557c-0.377-1.243,0.469-1.936,1.198-2.557
		c12.689-10.8,19.863-25.588,28.554-39.298c14.56-22.965,22.623-48.265,26.565-74.917c2.624-17.74,2.603-35.54,0.424-53.466
		c-2.727-22.442-8.398-43.986-17.979-64.33c-6.932-14.722-15.617-28.542-27.142-40.31c-0.815-0.832-1.644-1.656-2.402-2.54
		c-0.566-0.661-0.93-1.575-0.284-2.255c1.021-1.075,1.835-0.052,2.446,0.636c6.708,7.538,13.033,15.302,18.508,23.873
		c4.346,6.8,7.268,14.322,11.918,20.968c2.564,3.663,2.904,8.801,4.984,12.899c4.783,9.419,5.086,20.079,8.712,29.73
		c2.44,6.494,2.338,13.475,4.908,19.849c0.178,0.438,0.153,0.997,0.1,1.485c-1.125,10.154,2.443,20.233,0.869,30.289
		c-1.12,7.154,0.515,14.564-1.241,21.247c-1.55,5.9-2.028,12.072-4.396,17.883c-2.476,6.078-3.29,12.812-5.213,19.142
		c-2.613,8.603-5.847,16.995-10.145,24.923c-1.507,2.778-3.154,5.464-4.046,8.534c-0.941,3.243-3.057,5.78-4.902,8.546
		c-4.381,6.563-8.178,13.514-12.396,20.19c-4.287,6.788-9.287,13.055-15.023,18.681C952.776,668.679,951.296,669.71,949.696,668.557
		z"/>
	<path fill-rule="evenodd" clip-rule="evenodd" fill="#EBEAE9" d="M158.279,847.922c-10.924-9.887-17.758-21.494-25.315-32.643
		c-3.997-5.896-5.424-13.06-10.394-18.381c-2.418-2.589-1.995-6.596-3.207-9.821c-1.549-4.123-4.09-7.923-5.271-12.124
		c-2.062-7.345-3.57-14.859-4.979-22.363c-0.53-2.823-1.052-5.483-2.723-7.88c-0.644-0.922-1.478-2.324-1.199-3.169
		c1.063-3.225-0.746-5.985-0.926-8.876c-0.442-7.105-0.5-14.271,0.146-21.434c0.531-5.882-2.333-11.22-4.163-16.63
		c-0.6-1.772-1.889-3.461-2.183-5.422c-0.309-2.063-1.559-3.199-3.246-4.112c-15.387-8.324-27.864-20.115-38.713-33.575
		c-5.206-6.458-9.301-13.819-13.799-20.837c-0.928-1.446-1.958-3.122-0.35-5.538c3.494,5.573,6.628,10.928,10.102,16.052
		c13.751,20.287,30.897,36.769,53.638,46.701c3.464,1.513,3.641,3.899,3.323,6.802c-2.656,24.182-0.957,48.032,5.515,71.495
		c7.147,25.909,19.003,49.38,36.018,70.297C153.251,839.781,157.638,842.188,158.279,847.922z"/>
	<path fill-rule="evenodd" clip-rule="evenodd" fill="#EBEAE9" d="M743.1,907.177c-7.983,1.553-16.056,0.924-24.1,1.047
		c-9.681,0.149-19.163-1.279-28.551-3.428c-7.792-1.782-9.46-1.403-10.521,6.213c-1.317,9.455-6.335,17.261-11.371,24.383
		c-7.027,9.938-15.795,18.682-26.262,25.702c-6.895,4.626-13.441,9.838-20.618,14.111c-1.021,0.608-2.262,1.608-2.981,0.267
		c-0.702-1.308,0.867-1.862,1.859-2.44c13.112-7.648,25.434-16.308,35.823-27.519c11.354-12.254,20.772-25.519,22.748-42.724
		c0.364-3.17,2.36-2.849,4.313-2.313c15.199,4.169,30.729,5.521,46.364,4.635c22.311-1.263,43.911-5.891,64.69-14.462
		c14.048-5.796,27.486-12.6,40.287-20.742c0.884-0.563,1.996-2.597,3.112-0.553c0.742,1.359-0.968,1.822-1.895,2.437
		c-13.481,8.939-27.942,16.279-42.844,22.186c-13.047,5.17-26.475,10.181-40.832,11.271
		C749.218,905.482,746.173,906.512,743.1,907.177z"/>
	<path fill-rule="evenodd" clip-rule="evenodd" fill="#EBEAE9" d="M881.818,196.396c-5.433-3.77-8.506-9.523-12.766-14.24
		c-9.261-10.251-18.918-19.974-29.67-28.723c-19.36-15.753-41.001-27.131-64.831-34.009c-19.852-5.73-40.199-8.09-60.979-5.59
		c-8.236,0.991-16.321,2.6-24.456,4.047c-0.965,0.172-2.003,0.169-2.97,0.015c-0.838-0.134-1.578-0.771-1.57-1.682
		c0.01-1.093,0.971-1.248,1.805-1.194c9.085,0.593,17.64-2.613,26.31-4.317c7.079-1.392,14.067-2.21,21.001-1.496
		c9.916,1.023,19.684,3.418,29.557,4.956c11.5,1.79,22.224,6.314,33.006,10.151c8.279,2.946,16.004,8.036,23.7,12.744
		c12.304,7.527,23.403,16.39,34.081,26.048c7.672,6.938,14.143,14.854,21.017,22.443
		C877.879,188.673,880.499,192.197,881.818,196.396z"/>
	<path fill-rule="evenodd" clip-rule="evenodd" fill="#EBEAE9" d="M417.619,52.045c3.96-7.246,11.942-6.452,17.215-10.253
		c8.453-6.092,18.847-6.746,27.998-10.991c6.726-3.121,15.06-3.453,22.558-5.462c12.563-3.367,25.291-5.26,38.249-4.219
		c7.313,0.588,14.594,2.026,21.838,3.236c7.852,1.312,15.256,5.972,23.729,3.971c1.897-0.448,4.295,1.113,5.777,2.048
		c6.151,3.879,13.083,5.113,19.838,6.964c2.806,0.769,4.109,2.961,5.903,5.407C538.088,14.92,477.207,20.286,417.619,52.045z"/>
	<path fill-rule="evenodd" clip-rule="evenodd" fill="#EBEAE9" d="M181.917,151.573c0.718-1.357,0.947-2.551,1.652-3.003
		c5.981-3.839,12.218-7.301,18.049-11.349c7.442-5.168,16.427-7.187,23.888-12.486c3.534-2.51,9.062-2.001,13.223-3.883
		c10.167-4.596,21.374-5.548,31.611-9.363c9.727-3.626,19.4-3.361,29.272-3.475c2.72-0.031,5.2,0.451,7.535,2.019
		c2.856,1.917,6.308,1.599,9.538,2.189c6.665,1.218,13.214,3.068,19.98,3.778c1.021,0.107,2.229,0.22,2.128,1.516
		c-0.137,1.761-1.431,1.285-2.627,1.073c-10.743-1.898-21.498-3.734-32.244-5.615c-11.797-2.064-23.404-0.883-35.034,1.567
		c-30.954,6.52-59.394,18.727-85.217,37.014C183.463,151.702,183.059,151.573,181.917,151.573z"/>
	<path fill-rule="evenodd" clip-rule="evenodd" fill="#EBEAE9" d="M887.202,205.045c1.043,0.061,2.165,0.304,2.516,1.323
		c2.54,7.398,7.311,13.671,10.928,20.471c6.646,12.495,7.723,26.751,14.185,39.16c1.557,2.986-0.678,6.256-0.138,9.725
		c1.685,10.813,2.204,21.798,1.221,32.763c-0.79,8.827-2.6,17.663-2.357,26.451c0.183,6.633-0.313,13.621,2.471,20.091
		c0.675,1.566,1.729,3.297,0.702,5.764c-5.402-5.857-6.148-12.972-6.411-19.893c-0.378-9.952,2.121-19.721,3.121-29.6
		c0.908-8.965,0.516-17.802,0.043-26.769c-0.825-15.652-5.146-30.332-10.269-44.906c-3.755-10.682-9.264-20.537-14.605-30.459
		c-0.726-1.348-1.56-2.526-1.405-4.118V205.045z"/>
	<path fill-rule="evenodd" clip-rule="evenodd" fill="#EBEAE9" d="M904.837,779.178c-2.691-0.784-2.165-2.597-1.701-4.685
		c2.222-10,4.601-19.979,6.341-30.064c1.344-7.794,2.455-15.73,2.525-23.613c0.08-8.972,1.114-17.865,1.26-26.818
		c0.078-4.806,3.9-6.427,8.265-7.44c-6.631,5.4-6.126,12.728-6.453,20.119c-0.465,10.516,0.36,21.048-0.762,31.556
		c-0.477,4.463-3.256,7.974-3.912,12.426C908.988,760.231,906.74,769.684,904.837,779.178z"/>
	<path fill-rule="evenodd" clip-rule="evenodd" fill="#EBEAE9" d="M416.82,52.714c-25.469,15.51-49.642,30.73-58.995,60.292
		c-2.372-1.396-1.081-2.648-0.769-3.408c3.419-8.321,5.821-17.156,12.624-23.74c5.495-5.318,9.966-12.079,16.235-16.109
		c7.015-4.51,13.125-10.393,20.823-13.895C409.601,54.552,411.69,51.37,416.82,52.714z"/>
	<path fill-rule="evenodd" clip-rule="evenodd" fill="#EBEAE9" d="M663.143,89.028c-1.05-0.033-1.949-0.412-2.645-1.207
		c-15.739-18.004-34.846-31.526-56.101-42.199c-0.688-0.345-1.28-0.88-2.149-1.489c3.069-0.633,8.886,1.182,11.481,2.949
		c6.556,4.464,12.978,9.224,19.938,12.965c4.937,2.653,7.905,7.23,12.392,10.302c5.372,3.678,9.777,8.741,14.786,12.987
		c1.906,1.617,2.494,3.397,2.313,5.677L663.143,89.028z"/>
	<path fill-rule="evenodd" clip-rule="evenodd" fill="#EBEAE9" d="M902.327,780.729c-5.679,26.112-18.334,48.337-37.739,66.8
		C881.93,827.915,893.857,805.286,902.327,780.729z"/>
	<path fill-rule="evenodd" clip-rule="evenodd" fill="#EBEAE9" d="M181.126,151.792c-1.274,4.282-4.485,5.262-6.625,7.072
		c-10.707,9.055-20.151,19.303-29.292,29.867c-0.714,0.825-1.151,2.591-2.444,1.714c-1.259-0.854,0.268-2.035,0.644-3.03
		c1.294-3.422,4.657-5.045,6.917-7.648c8.291-9.553,17.516-18.209,27.175-26.384C178.205,152.786,179.251,152.594,181.126,151.792z"
		/>
	<path fill-rule="evenodd" clip-rule="evenodd" fill="#EBEAE9" d="M211.81,887.632c-2.212,0.277-3.933-0.395-5.396-1.321
		c-7.875-4.994-15.672-10.111-23.496-15.186c-0.833-0.54-1.954-1.18-1.294-2.256c0.637-1.039,1.771-0.542,2.596,0.1
		c8.491,6.607,17.851,11.844,27.111,17.24C211.536,886.328,211.54,886.793,211.81,887.632z"/>
	<path fill-rule="evenodd" clip-rule="evenodd" fill="#EBEAE9" d="M947.583,669.724c-5.153,10.034-16.969,9.041-24.499,15.243
		C929.458,677.011,939.677,675.282,947.583,669.724z"/>
	<path fill-rule="evenodd" clip-rule="evenodd" fill="#EBEAE9" d="M854.196,855.816c-2.707,7.848-8.917,9.332-14.384,11.791
		C843.656,863.019,848.399,859.61,854.196,855.816z"/>
	<path fill-rule="evenodd" clip-rule="evenodd" fill="#EBEAE9" d="M957.361,388.835c-5.542-3.872-8.581-8.543-13.139-11.372
		c-0.398-0.248-0.73-1.345-0.518-1.685c0.504-0.802,1.405-0.737,2.115-0.096C949.772,379.253,955.092,381.518,957.361,388.835z"/>
	<path fill-rule="evenodd" clip-rule="evenodd" fill="#EBEAE9" d="M940.108,373.188c-5.276-1.457-9.232-5.072-13.595-8.027
		c5.83,0.527,10.541,2.939,13.793,7.831L940.108,373.188z"/>
	<path fill-rule="evenodd" clip-rule="evenodd" fill="#EBEAE9" d="M170.014,857.313c2.95,2.418,5.916,4.815,8.833,7.271
		c0.6,0.505,1.264,1.251,0.547,2.077c-0.65,0.749-1.605,0.513-2.213-0.029c-2.889-2.571-5.707-5.224-8.55-7.847
		C169.092,858.295,169.553,857.804,170.014,857.313z"/>
	<path fill-rule="evenodd" clip-rule="evenodd" fill="#EBEAE9" d="M346.633,118.763c3.177-0.565,5.436-3.516,8.934-3.414
		C354.271,120.502,352.8,121.097,346.633,118.763z"/>
	<path fill-rule="evenodd" clip-rule="evenodd" fill="#EBEAE9" d="M158.301,847.192c3.894,2.482,7.076,5.395,9.267,9.292
		C162.931,854.893,160.227,851.308,158.301,847.192z"/>
	<path fill-rule="evenodd" clip-rule="evenodd" fill="#EBEAE9" d="M863.067,849.323c-1.471,1.954-2.891,3.948-4.438,5.84
		c-0.636,0.776-1.7,1.38-2.62,0.63c-1.167-0.953-0.103-1.822,0.568-2.423C858.454,851.69,859.773,849.264,863.067,849.323z"/>
	<path fill-rule="evenodd" clip-rule="evenodd" fill="#EBEAE9" d="M887.202,205.047c-3.063-0.977-3.626-3.737-4.35-6.382
		c2.576,1.322,4.422,3.167,4.35,6.38V205.047z"/>
	<path fill-rule="evenodd" clip-rule="evenodd" fill="#EBEAE9" d="M137.785,197.534c0.066-2.496,0.869-4.457,3.904-5.394
		C141.412,195.036,139.263,196.081,137.785,197.534z"/>
	<path fill-rule="evenodd" clip-rule="evenodd" fill="#EBEAE9" d="M940.307,372.992c0.703,0.202,1.563,0.242,1.462,1.317
		c-0.012,0.117-0.195,0.298-0.313,0.311c-1.067,0.117-1.141-0.724-1.345-1.433C940.108,373.188,940.307,372.992,940.307,372.992z"/>
	<path fill-rule="evenodd" clip-rule="evenodd" fill="#EBEAE9" d="M663.158,89.013c0.134,0.141,0.268,0.282,0.401,0.423
		c-0.087-0.022-0.205-0.018-0.253-0.074c-0.08-0.09-0.111-0.22-0.162-0.333C663.143,89.028,663.158,89.013,663.158,89.013z"/>
	<path fill-rule="evenodd" clip-rule="evenodd" fill="#FEFEFE" d="M476.198,706.893c-0.775-0.884-1.706-2.068-2.76-3.13
		c-64.833-65.254-129.676-130.496-194.516-195.743c-5.756-5.792-11.357-11.746-17.296-17.343c-2.666-2.512-2.277-3.899,0.219-6.204
		c23.379-21.592,46.652-43.301,69.953-64.979c2.562-2.383,5.294-4.617,7.612-7.219c2.523-2.831,4.259-2.796,7.129-0.109
		c25.544,23.913,51.256,47.646,76.912,71.441c17.714,16.429,35.465,32.819,53.067,49.367c2.392,2.247,3.622,2.149,5.901-0.114
		c66.447-65.984,132.979-131.884,199.435-197.859c2.517-2.498,3.959-3.337,6.93-0.239c25.149,26.209,50.499,52.227,75.79,78.299
		c1.722,1.775,3.764,2.94,0.427,5.688c-30.429,25.051-57.682,53.439-84.748,81.959c-40.387,42.555-82.268,83.618-123.585,125.245
		c-22.769,22.938-47.356,44.038-68.823,68.278c-3.09,3.488-5.924,7.203-8.909,10.787
		C478.319,705.759,477.859,706.75,476.198,706.893z"/>
</g>
</svg>
