<?xml version="1.0" encoding="utf-8"?>
<!-- Generator: Adobe Illustrator 16.0.3, SVG Export Plug-In . SVG Version: 6.00 Build 0)  -->
<!DOCTYPE svg PUBLIC "-//W3C//DTD SVG 1.1//EN" "http://www.w3.org/Graphics/SVG/1.1/DTD/svg11.dtd">
<svg version="1.1" id="Layer_1" xmlns="http://www.w3.org/2000/svg" xmlns:xlink="http://www.w3.org/1999/xlink" x="0px" y="0px"
	 width="65px" height="15px" viewBox="0 0 65 15" enable-background="new 0 0 65 15" xml:space="preserve">
<g>
	<path fill-rule="evenodd" clip-rule="evenodd" fill="#2F3896" d="M4,10c0-2,0-4,0-6c16.311,0.006,32.622-0.013,48.933,0.056
		c1.686,0.007,4.471-1.104,4.021,2.457c-0.366,2.89,0.805,3.874,3.587,3.521c1.071-0.136,2.47-0.33,2.44,1.528
		c-0.03,1.93-1.516,1.418-2.534,1.416c-9.482-0.014-18.965-0.085-28.448-0.139C31.985,9.868,29.869,10,27.826,10
		C19.884,10.004,11.942,10.001,4,10z"/>
	<path fill-rule="evenodd" clip-rule="evenodd" fill="#2D338C" d="M33,12.845C23.667,12.898,13.333,12.946,4,13c0-1,0-2,0-3
		c7.942,0.001,15.884,0.004,23.826,0C29.869,10,32.986,9.874,33,12.845z"/>
</g>
</svg>
