<?xml version="1.0" encoding="utf-8"?>
<!-- Generator: Adobe Illustrator 16.0.3, SVG Export Plug-In . SVG Version: 6.00 Build 0)  -->
<!DOCTYPE svg PUBLIC "-//W3C//DTD SVG 1.1//EN" "http://www.w3.org/Graphics/SVG/1.1/DTD/svg11.dtd">
<svg version="1.1" id="Layer_1" xmlns="http://www.w3.org/2000/svg" xmlns:xlink="http://www.w3.org/1999/xlink" x="0px" y="0px"
	 width="30px" height="30px" viewBox="0 0 30 30" enable-background="new 0 0 30 30" xml:space="preserve">
<g>
	<path fill-rule="evenodd" clip-rule="evenodd" fill="#FEFEFE" d="M11,4c0.333,0.345,0.438,0.743,0.281,1.203
		c-2.015,2.056-3.741,4.4-6.075,6.145C4.742,11.449,4.337,11.342,4,11"/>
	<path fill-rule="evenodd" clip-rule="evenodd" fill="#0C0806" d="M27.151,16.957c0.003,1.029,0.006,2.059,0.009,3.089
		c-3.123,2.289-6.351,6.605-9.349,6.451C11.368,26.165,7.289,21.091,4.909,15.06c-0.021-1.384-0.043-2.768-0.065-4.151
		c1.994-2.021,3.988-4.043,5.981-6.064c1.723,0.053,3.446,0.106,5.17,0.16C21.67,7.162,25.291,11.238,27.151,16.957z"/>
	<path fill-rule="evenodd" clip-rule="evenodd" fill="#FBBF41" d="M12.03,8.02c7.517,0.098,10.104,5.193,12.606,11.898
		c-7.255-0.019-10.337-3.975-12.778-8.834C11.421,10.035,11.244,9,12.03,8.02z"/>
	<path fill-rule="evenodd" clip-rule="evenodd" fill="#EA6F71" d="M10.382,15.799c1.972,1.919,5.47,4.985,7.442,6.905
		c-0.383,0.375-1.144,0.799-1.525,1.175c-1.998-2.223-5.143-5.64-7.141-7.862c0.169-0.231,0.339-0.463,0.508-0.694
		C9.905,15.481,10.144,15.64,10.382,15.799z"/>
	<path fill-rule="evenodd" clip-rule="evenodd" fill="#D46163" d="M10.382,15.799c-0.408,0.072-0.816,0.145-1.224,0.217
		c-0.466-1.082-0.932-2.163-1.397-3.245c0.295-0.141,0.589-0.282,0.884-0.424C9.224,13.499,9.803,14.649,10.382,15.799z"/>
	<path fill-rule="evenodd" clip-rule="evenodd" fill="#98722B" d="M12.03,8.02c-0.057,1.021-0.114,2.043-0.172,3.064
		C11.916,10.063,11.973,9.041,12.03,8.02z"/>
</g>
</svg>
