<?xml version="1.0" encoding="utf-8"?>
<!-- Generator: Adobe Illustrator 16.0.3, SVG Export Plug-In . SVG Version: 6.00 Build 0)  -->
<!DOCTYPE svg PUBLIC "-//W3C//DTD SVG 1.1//EN" "http://www.w3.org/Graphics/SVG/1.1/DTD/svg11.dtd">
<svg version="1.1" id="Layer_1" xmlns="http://www.w3.org/2000/svg" xmlns:xlink="http://www.w3.org/1999/xlink" x="0px" y="0px"
	 width="190px" height="190px" viewBox="0 0 190 190" enable-background="new 0 0 190 190" xml:space="preserve">
<g>
	<path fill-rule="evenodd" clip-rule="evenodd" fill="#211D52" d="M160.969,158.393c-11.32,0.493-22.641,0.524-33.961,0.001
		c-0.003-49.398-0.006-98.797-0.009-148.195c6.939-0.26,13.878-0.695,20.818-0.733c8.361-0.047,10.802,2.16,12.19,10.26
		c0.752,4.39,1.534,8.969,2.282,13.359c-1.574,0.992-1.014,2.543-1.039,4c-0.495,28.407,0.845,56.8-0.917,85.208
		c-0.489,7.893,0.589,15.78,0.923,23.724c-3.682-0.499-7.401,0.973-11.021,1.176c-1.601,0.09-3.303,0.924-3.129,3.119
		c0.168,2.109,1.632,2.675,3.475,2.679c3.141,0.006,7.009-0.632,10.149-0.627C161.053,154.159,160.646,156.596,160.969,158.393z"/>
	<path fill-rule="evenodd" clip-rule="evenodd" fill="#1F1A4E" d="M126.999,10.198c0.003,49.398,0.006,98.797,0.009,148.195
		c-4.999,0.496-9.998,0.494-14.998,0.021c-0.003-24.14-0.04-48.278,0.028-72.417c0.01-3.441-0.284-7.012-2.461-9.458
		c-5.088-5.716-4.537-11.54-1.673-17.824c0.899-1.972,1.479-4.107,0.984-6.311c-3.076-13.711-3.1-27.631-2.893-41.568
		C112.974,9.83,119.988,10.089,126.999,10.198z"/>
	<path fill-rule="evenodd" clip-rule="evenodd" fill="#191644" d="M37.996,158.709c-0.494,0.053-0.987,0.147-1.482,0.153
		c-8.975,0.103-10.742-1.835-11.458-10.295c-1.951-23.055-6.221-45.784-9.381-68.667c-2.587-18.731-5.758-37.38-8.453-56.097
		c-0.958-6.651-0.497-11.293,9.366-11.005c7.125,0.208,14.721-0.267,21.857-0.437c0.386,2.002-1.7,3.138-2.45,4.653
		c-5.926-0.64-11.748-0.313-17.435,1.67c-5.009,1.747-7.232,5.61-6.266,10.797c1.955,10.495,3.826,21.006,5.731,31.51
		c1.406,8.109,2.832,16.216,4.212,24.33c0.994,5.84,1.811,11.713,2.957,17.522c0.36,1.823,1.004,4.346,3.65,3.883
		c2.709-0.475,2.546-3.018,1.864-4.815c-0.98-2.581-0.647-5.235-1.11-7.831c-2.024-11.337-3.78-22.723-5.633-34.091
		c-1.886-10.816-3.759-21.634-5.667-32.446c-0.494-2.797,1.088-3.627,3.39-3.525c4.799,0.213,9.529-0.262,14.244-1.062
		c2.804,1.331,2.501,4.011,2.503,6.23C38.465,72.395,37.998,115.502,37.996,158.709z"/>
	<path fill-rule="evenodd" clip-rule="evenodd" fill="#1A1546" d="M87.083,182.832c-14.466,0.056-29.018,0.193-43.482,0.066
		c-1.826-0.017-5.083,0.787-5.66-2.953c-0.593-3.847,0.893-5.724,4.955-6.9c3.713-1.075,7.861-0.674,11.686-0.815
		c1.555-0.057,3.657,1.024,4.322-1.475c0.887-3.331,1.936-7.044,0.477-10.159c-0.555-1.184-4.183-0.963-6.422-1.309
		c-1.308-0.202-2.639-0.257-3.96-0.377C49,110,49,61.09,49,12.18c5.333-0.103,10.666-0.206,15.998-0.31
		c0.491,21.024-1.076,42.08,0.998,63.079c-0.33,0.036-0.658,0.078-0.986,0.126c-4.003,0.325-5.216,2.626-5.081,6.434
		c0.218,6.156,0.072,12.325,0.079,18.489c0.008,6.664,0.016,13.328,0.024,19.993c-0.001,5.001-0.002,10.002-0.003,15.003
		c0.001,4.333,0.002,8.667,0.004,13c-0.692,4.487,0.995,8.794,0.983,13.243c-0.028,10.75,0.107,10.751,11.066,10.768
		c-1.671,6.357-0.226,7.848,6.563,7.934c1.33,0.017,2.576-0.064,3.9,0.021C84.561,180.088,86.472,180.33,87.083,182.832z"/>
	<path fill-rule="evenodd" clip-rule="evenodd" fill="#191645" d="M49,12.18C49,61.09,49,110,49,158.91
		c-3.668-0.067-7.335-0.134-11.003-0.201c0.001-43.207,0.01-86.414-0.018-129.621c-0.001-2.219,0.76-4.8-2.043-6.13
		c1.362-1.967,1.332-3.949,0.062-5.943c0.75-1.515,2.384-2.65,1.998-4.653C41.663,12.301,45.332,12.24,49,12.18z"/>
	<path fill-rule="evenodd" clip-rule="evenodd" fill="#1E194C" d="M105.996,10.837c-0.207,13.937-0.184,27.856,2.893,41.568
		c0.494,2.204-0.085,4.339-0.984,6.311c-2.864,6.285-3.415,12.108,1.673,17.824c2.177,2.446,2.471,6.017,2.461,9.458
		c-0.068,24.139-0.031,48.277-0.028,72.417c-2.276,0.251-3.871,1.688-3.239,3.918c0.923,3.265-2.198,7.889,3.458,9.601
		c-0.711,3.973,1.013,6.015,4.938,6.838c2.243,0.471,4.214,1.373,6.583,1.188c2.096-0.163,4.053,0.171,4.354,2.876
		c-7.667-0.001-15.438-0.001-23.105-0.002c-1.691-2.89-4.621-2.199-7.202-2.822c-5.763-1.39-8.037-1.795-5.797-8.006
		c3.001-0.004,6.003-0.009,9.004-0.013c2.855,0.348,4.188-0.66,4.049-3.787c-0.209-4.728-0.06-9.472-0.063-14.209
		c-0.002-6.668-0.004-13.335-0.007-20.003c-0.003-6.333-0.005-12.667-0.008-19.001c-0.001-5.332-0.003-10.665-0.004-15.998
		c0.013-4.322-0.323-8.682,0.125-12.959c0.608-5.803-1.135-9.651-7.114-10.978c-0.007-1.251-0.665-2.051-1.589-2.88
		c-4.344-3.899-3.254-8.437,2.178-10.596c2.236-0.889,5.498-0.27,6.427-3.589c2.259-6.599-1.4-12.553-2.373-18.757
		c-0.322-2.059-0.808-5.894-4.62-6.24c-1.373-3.713-4.895-3.369-7.798-3.97c-5.981-1.239-8.204-3.768-8.206-9.816
		c-0.001-2.649-0.002-5.297-0.003-7.946C89.997,11.122,97.996,10.979,105.996,10.837z"/>
	<path fill-rule="evenodd" clip-rule="evenodd" fill="#282358" d="M161.005,146.001c-0.334-7.943-1.367-15.93-0.878-23.822
		c1.762-28.408,0.387-56.827,0.882-85.233c0.025-1.457-0.329-3.058,1.245-4.05c3.898,20.178,7.821,40.352,11.687,60.537
		c3.276,17.113,6.435,34.248,9.744,51.354c2.266,11.711,0.563,13.922-11.282,13.908c-3.812-0.005-7.622-0.196-11.434-0.302
		c-0.322-1.797-0.645-3.593-0.967-5.39c1.465-1.772,3.721-0.907,5.557-1.647c4.347-1.752,7.083-5.505,6.31-9.974
		c-1.15-6.644-2.548-13.243-3.791-19.871c-0.445-2.37-0.802-4.938-4.069-4.389c-3.349,0.563-2.085,3.463-1.844,5.246
		c0.813,6.027,1.684,12.092,3.214,17.965C166.528,144.744,165.308,146.3,161.005,146.001z"/>
	<path fill-rule="evenodd" clip-rule="evenodd" fill="#1A1547" d="M81.997,11.265c0.001,2.648,0.002,5.297,0.003,7.946
		c0.002,6.048,2.224,8.577,8.206,9.816c2.904,0.601,6.425,0.257,7.798,3.97C96.629,33.585,92.918,29.5,94,34.999
		c0.181,3.461,0.362,6.923,0.543,10.384c-1.461-1.718-1.949-3.422-2.311-5.153c-1.571-7.507-1.559-7.28-9.4-7.33
		c-3.69-0.023-3.693,1.483-2.83,4.094c-1.274,0.082-2.727-0.126-2.913,1.755C76.953,40.151,77.627,40.874,79,41
		c0.352,2.773,0.631,5.558,1.071,8.318c1.006,6.318,2.658,7.541,9.075,7.742c3.071,0.096,6.37-0.99,9.974,1.213
		c-7.355,1.808-14.156,3.1-20.526,0.205c-4.118-1.872-3.471,0.159-3.625,2.668c-0.285,4.66,0.454,9.221,1.028,13.804
		c-3.333,0-6.666,0-9.999-0.001c-2.074-20.999-0.507-42.055-0.998-63.079C70.64,10.963,76.318,11.116,81.997,11.265z"/>
	<path fill-rule="evenodd" clip-rule="evenodd" fill="#1C164A" d="M92.125,172.004c-2.24,6.211,0.003,6.497,5.766,7.887
		c2.581,0.623,5.543,0.053,7.234,2.942c-6,0-12.126-0.001-18.126-0.001c-0.611-2.502-2.652-2.681-4.667-2.81
		c-1.324-0.085-2.658-0.008-3.988-0.024c-6.788-0.086-8.017-1.637-6.345-7.994C78.665,172.004,85.458,172.004,92.125,172.004z"/>
	<path fill-rule="evenodd" clip-rule="evenodd" fill="#211D52" d="M128,182.835c-0.301-2.705-2.249-2.977-4.345-2.813
		c-2.369,0.186-4.515-0.656-6.758-1.127c-3.926-0.823-5.609-3.007-4.898-6.979c6.725,0.592,14.13-1.834,19.896,3.731
		c0.472,0.455,1.002,0.835,1.449,1.307c1.396,1.471,1.269,2.618,0.488,4.526c-0.689,1.688-1.247,1.199-2.791,1.355
		C130.07,182.934,128.987,182.89,128,182.835z"/>
	<path fill-rule="evenodd" clip-rule="evenodd" fill="#292864" d="M161.005,146.001c4.303,0.299,5.523-1.257,4.373-5.668
		c-1.53-5.873-2.4-11.938-3.214-17.965c-0.241-1.783-1.505-4.684,1.844-5.246c3.268-0.55,3.624,2.019,4.069,4.389
		c1.243,6.628,2.641,13.228,3.791,19.871c0.773,4.469-1.963,8.222-6.31,9.974c-1.836,0.74-4.092-0.125-5.557,1.647
		c-1.989-0.003-5.097-0.006-9.421-0.014c-1.843-0.004-3.307-0.569-3.475-2.679c-0.174-2.195,1.528-3.029,3.129-3.119
		C153.855,146.988,157.323,145.502,161.005,146.001z"/>
	<path fill-rule="evenodd" clip-rule="evenodd" fill="#23285B" d="M35.997,17.014c1.271,1.995,1.301,3.976-0.062,5.943
		c-4.715,0.799-9.445,1.274-14.244,1.062c-2.302-0.103-3.884,0.728-3.39,3.525c1.909,10.812,3.781,21.63,5.667,32.446
		c-1.98,0.334-3.96,0.668-5.941,1.002c-1.905-10.504-3.776-21.015-5.731-31.51c-0.967-5.188,1.256-9.05,6.266-10.797
		C24.249,16.701,30.071,16.374,35.997,17.014z"/>
	<path fill-rule="evenodd" clip-rule="evenodd" fill="#232055" d="M18.027,60.992c1.98-0.334,3.961-0.668,5.941-1.002
		c1.853,11.368,3.609,22.753,5.633,34.091c0.463,2.595,0.13,5.25,1.11,7.831c0.682,1.798,0.845,4.341-1.864,4.815
		c-2.646,0.463-3.29-2.06-3.65-3.883c-1.146-5.809-1.963-11.682-2.957-17.522C20.859,77.208,19.434,69.101,18.027,60.992z"/>
	<path fill-rule="evenodd" clip-rule="evenodd" fill="#282660" d="M104.975,114.992c0.003,6.334,0.005,12.668,0.008,19.001
		c-9.128,0.53-16.246-5.581-24.624-7.663c-2.158-0.536-4.758-0.864-6.883-2.316c-4.006-2.736-8.636-3.765-13.443-4.022
		c-0.008-6.665-0.016-13.329-0.024-19.993c7.576,0.326,14.382,3.546,20.992,6.461C88.844,109.918,96.559,113.392,104.975,114.992z"
		/>
	<path fill-rule="evenodd" clip-rule="evenodd" fill="#292864" d="M104.975,114.992c-8.416-1.601-16.173-4.84-24.017-8.299
		c-6.609-2.915-13.373-6.369-20.949-6.695c-0.007-6.164,0.139-12.333-0.079-18.489c-0.135-3.807,1.078-6.109,5.081-6.434
		c-0.395,2.978,2.367,3.346,4.24,4.217c3.392,1.577,6.08,3.521,9.115,6c4.13,3.375,7.576,7.522,13.552,8.125
		c1.647,0.166,3.906,1.671,5.208,2.875c2.402,2.224,4.729,2.972,7.846,2.702C104.972,104.327,104.974,109.66,104.975,114.992z"/>
	<path fill-rule="evenodd" clip-rule="evenodd" fill="#26235B" d="M60.033,119.991c4.807,0.258,9.437,1.286,13.443,4.022
		c2.125,1.452,4.725,1.78,6.883,2.316c8.377,2.082,15.495,8.193,24.624,7.663c0.003,6.668,0.005,13.335,0.007,20.003
		c-4.089,1.05-5.968-3.305-9.317-3.854c-5.085-0.836-9.784-2.168-13.854-5.663c-6.238-5.356-15.763-3.442-21.788-9.484
		C60.031,129.993,60.032,124.992,60.033,119.991z"/>
	<path fill-rule="evenodd" clip-rule="evenodd" fill="#252258" d="M60.03,134.994c6.025,6.042,15.55,4.128,21.788,9.484
		c4.07,3.495,8.769,4.827,13.854,5.663c3.349,0.55,5.228,4.904,9.317,3.854c0.003,4.737-0.146,9.481,0.063,14.209
		c0.139,3.127-1.193,4.135-4.05,3.787c-0.464-2.573-2.664-2.357-4.488-3.075c-4.362-1.718-9.568-1.45-12.494-6.742
		c-1.046-1.892-3.555-4.892-5.505-5.478c-6.666-2-12.568-5.288-18.481-8.703C60.032,143.661,60.031,139.327,60.03,134.994z"/>
	<path fill-rule="evenodd" clip-rule="evenodd" fill="#2A2967" d="M104.971,98.994c-3.116,0.27-5.836-0.425-8.238-2.648
		c-1.302-1.203-3.032-2.506-4.679-2.672c-5.977-0.603-9.75-4.919-13.688-8.38c-2.943-2.587-6.039-4.297-9.43-5.874
		c-1.873-0.871-4.319-1.366-3.924-4.344c0.328-0.048,0.657-0.09,0.986-0.126c3.333,0,6.666,0,9.999,0.001
		c7.329,0.036,14.657,0.072,21.986,0.107c5.979,1.326,7.723,5.175,7.114,10.978C104.647,90.313,104.983,94.672,104.971,98.994z"/>
	<path fill-rule="evenodd" clip-rule="evenodd" fill="#232055" d="M60.034,147.994c5.913,3.415,11.815,6.703,18.481,8.703
		c1.951,0.586,4.459,3.586,5.505,5.478c2.925,5.292,8.131,5.024,12.494,6.742c1.824,0.718,4.024,0.502,4.488,3.075
		c-3,0.004-6.002,0.009-9.003,0.013c-6.667,0-13.334-0.001-20.001-0.001c-10.959-0.017-11.009-0.017-10.981-10.767
		C61.028,156.788,59.342,152.481,60.034,147.994z"/>
	<path fill-rule="evenodd" clip-rule="evenodd" fill="#1C164A" d="M97.981,75.058c-7.329-0.036-14.657-0.071-21.986-0.107
		c-0.574-4.583-1.313-9.144-1.028-13.804c0.154-2.509-0.493-4.54,3.625-2.668c6.371,2.895,13.171,1.603,20.526-0.205
		c-3.604-2.203-6.903-1.117-9.974-1.213c-6.417-0.202-8.069-1.424-9.075-7.742C79.631,46.558,79.352,43.773,79,41
		c0.462-5.884,5.769-1.229,8.195-4.006c-2.62,0-4.906,0-7.191,0c-0.864-2.611-0.86-4.117,2.83-4.094
		c7.841,0.05,7.829-0.177,9.4,7.33c0.362,1.731,0.85,3.435,2.311,5.153C94.362,41.922,94.181,38.46,94,34.999
		c1.861,0.973,3.972,1.574,4.024,4.372c0.09,4.751,2.019,9.229,2.138,14.032c0.066,2.699,1.118,5.288,4.835,4.59
		c-0.929,3.319-4.19,2.7-6.427,3.589c-5.432,2.159-6.521,6.697-2.178,10.596C97.316,73.007,97.975,73.806,97.981,75.058z
		 M85.429,52.652c-0.958-2.805-0.416-3.998,2.321-5.079c2.523-0.997,1.126-4.078,1.018-6.237c-0.061-1.196-1.272-1.337-2.317-0.963
		c-1.967,0.705-3.466,1.709-3.479,4.185C82.956,47.362,83.555,49.948,85.429,52.652z M95.921,50.136
		c0.033-0.669-0.022-1.412-0.751-1.587c-0.938-0.226-0.989,0.628-1.072,1.245c-0.088,0.655,0.008,1.407,0.74,1.584
		C95.784,51.605,95.761,50.733,95.921,50.136z"/>
	<path fill-rule="evenodd" clip-rule="evenodd" fill="#191644" d="M104.997,57.993c-3.717,0.698-4.769-1.891-4.835-4.59
		c-0.119-4.803-2.048-9.281-2.138-14.032c-0.053-2.798-2.164-3.399-4.024-4.372c-1.082-5.499,2.629-1.414,4.004-2.002
		c3.813,0.346,4.298,4.181,4.62,6.24C103.597,45.44,107.256,51.394,104.997,57.993z"/>
	<path fill-rule="evenodd" clip-rule="evenodd" fill="#191644" d="M80.003,36.994c2.286,0,4.571,0,7.191,0
		C84.768,39.771,79.461,35.115,79,41c-1.373-0.125-2.047-0.849-1.909-2.25C77.276,36.867,78.729,37.076,80.003,36.994z"/>
	<path fill-rule="evenodd" clip-rule="evenodd" fill="#191644" d="M85.429,52.652c-1.875-2.704-2.474-5.29-2.458-8.094
		c0.013-2.475,1.512-3.48,3.479-4.185c1.045-0.374,2.257-0.233,2.317,0.963c0.109,2.16,1.505,5.241-1.018,6.237
		C85.014,48.654,84.471,49.847,85.429,52.652z"/>
	<path fill-rule="evenodd" clip-rule="evenodd" fill="#1A1547" d="M95.926,50.139c-0.165,0.594-0.142,1.467-1.087,1.238
		c-0.732-0.177-0.828-0.929-0.74-1.584c0.083-0.616,0.134-1.471,1.072-1.245C95.899,48.724,95.955,49.467,95.926,50.139z"/>
</g>
</svg>
