<?xml version="1.0" encoding="utf-8"?>
<!-- Generator: Adobe Illustrator 16.0.3, SVG Export Plug-In . SVG Version: 6.00 Build 0)  -->
<!DOCTYPE svg PUBLIC "-//W3C//DTD SVG 1.1//EN" "http://www.w3.org/Graphics/SVG/1.1/DTD/svg11.dtd">
<svg version="1.1" id="Layer_1" xmlns="http://www.w3.org/2000/svg" xmlns:xlink="http://www.w3.org/1999/xlink" x="0px" y="0px"
	 width="520px" height="520px" viewBox="0 0 520 520" enable-background="new 0 0 520 520" xml:space="preserve">
<g>
	<path fill-rule="evenodd" clip-rule="evenodd" fill="#F26A23" d="M428.013,310.998c0.131-5.039-0.13-10.054-0.957-15.032
		c0.441-2.409,0.646-4.792-0.786-6.991c-0.051-1.654-0.103-3.309-0.153-4.963c1.15-3.647-0.267-6.85-1.742-10.041
		c-0.176-0.631-0.352-1.262-0.527-1.893c-0.648-5.054-0.896-10.219-4.047-14.577c-0.002-0.527-0.004-1.055-0.005-1.583
		c-0.237-7.36-2.811-13.999-5.519-20.79c-8.29-20.789-20.872-38.712-35.054-55.773c-3.38-4.066-6.159-3.318-9.808-1.454
		c-3.572,1.825-7.405-2.851-11.263,0.958c-27.088,26.746-51.602,55.845-77.175,83.974c-17.866,19.65-35.281,39.729-53.613,58.933
		c-27.405,28.71-54.85,57.383-80.863,87.355c-24.683,28.438-48.7,57.455-73.063,86.172c-6.924,8.162-7.007,8.088-15.513,2.006
		c-0.256-0.183-0.631-0.201-0.95-0.296c-0.324-1.589-0.554-3.204-0.989-4.763c-1.094-3.922-0.272-7.21,2.357-10.423
		c13.132-16.05,26.213-32.142,39.136-48.359c15.796-19.825,31.8-39.502,47.008-59.772c15.811-21.074,32.375-41.505,49.911-61.125
		c17.723-19.83,33.109-41.456,49.26-62.493c16.118-20.994,30.175-43.469,45.833-64.795c9.023-12.289,18.594-24.178,27.965-36.21
		c1.484-1.906,2.581-3.653,1.118-6.12c-1.058-1.782-0.307-3.507,0.734-5.13c1.433-2.235,2.79-4.519,4.18-6.782
		c2.547-1.699,2.144-3.398,0.598-5.797c-5.289-8.205-10.029-16.772-15.493-24.852c-4.346-6.425-7.265-13.768-12.854-19.398
		c-14.301-14.405-29.703-27.419-47.048-38.054c-7.458-4.573-15.326-8.237-23.615-11.014c-2.056-1.074-4.215-1.995-6.119-3.292
		c-0.844-0.575-3.134-0.12-2.314-2.325c0.732-1.971,2.154-1.74,3.907-1.311c13.501,3.303,26.957,6.849,40.566,9.639
		c20.427,4.188,39.209,12.961,58.343,20.616c17.191,6.878,34.402,14.4,48.515,26.75c8.885,7.775,18.229,14.618,27.886,21.338
		c6.227,4.333,10.516,11.746,14.124,18.892c0.367,0.727,1.021,1.947,0.752,2.261c-4.438,5.179,1.021,7.63,3.176,10.511
		c13.677,18.282,22.313,38.938,29.105,60.493c1.917,6.08,4.694,11.903,5.566,18.301c-0.141,2.522-0.102,5.01,1.408,7.211
		c0.078,1.295,0.156,2.591,0.234,3.887c3.019,15.798,1.591,31.684,0.731,47.528c-0.631,11.638-4.411,22.727-6.685,34.08
		c-1.013,5.06-3.188,8.913-8.009,10.341C431.655,318.202,430.537,313.315,428.013,310.998z"/>
	<path fill-rule="evenodd" clip-rule="evenodd" fill="#FBC3A0" d="M419.8,257.501c3.151,4.358,3.398,9.523,4.047,14.577"/>
	<path fill-rule="evenodd" clip-rule="evenodd" fill="#FBC3A0" d="M424.374,273.971c1.476,3.191,2.893,6.394,1.742,10.041"/>
	<path fill-rule="evenodd" clip-rule="evenodd" fill="#FBC3A0" d="M449.992,221.001c-1.51-2.201-1.549-4.688-1.408-7.211
		C450.888,215.835,451.828,218.147,449.992,221.001z"/>
	<path fill-rule="evenodd" clip-rule="evenodd" fill="#FBC3A0" d="M426.27,288.975c1.432,2.199,1.228,4.582,0.786,6.991"/>
</g>
</svg>
