<?xml version="1.0" encoding="utf-8"?>
<!-- Generator: Adobe Illustrator 16.0.3, SVG Export Plug-In . SVG Version: 6.00 Build 0)  -->
<!DOCTYPE svg PUBLIC "-//W3C//DTD SVG 1.1//EN" "http://www.w3.org/Graphics/SVG/1.1/DTD/svg11.dtd">
<svg version="1.1" id="Layer_1" xmlns="http://www.w3.org/2000/svg" xmlns:xlink="http://www.w3.org/1999/xlink" x="0px" y="0px"
	 width="80px" height="70px" viewBox="0 0 80 70" enable-background="new 0 0 80 70" xml:space="preserve">
<g>
	<path fill-rule="evenodd" clip-rule="evenodd" fill="#212020" d="M41,5c3,0,6,0,9,0c4.965,1.1,6.226,4.497,5.714,9.075
		c-0.146,1.306,0.106,2.657-0.045,3.961c-0.325,2.789,0.786,3.701,3.586,3.663c6.592-0.089,13.188,0.129,19.781,0.223
		c0.051,4.124,0.102,8.247,0.152,12.371c-5.463-0.385-6.5,2.425-6.095,7.342c0.488,5.932-0.128,11.948,0.175,17.905
		c0.174,3.426-0.963,4.126-4.184,4.078c-12.263-0.184-24.53-0.081-36.796-0.028c-1.8,0.008-4.25-0.848-4.337,2.395
		c-6.937,0.022-13.874,0.076-20.811,0.042c-1.689-0.009-3.832,0.648-4.325-2.031c0.079-11.939,0.157-23.88,0.235-35.82
		c7.469-0.059,14.938-0.139,22.407-0.153c1.025-0.002,2.155-0.439,2.76,1.264c1.215,3.42,3.531,2.041,5.268,0.575
		c4.731-3.99,9.017-8.157,7.54-15.418C40.409,11.418,40.973,8.155,41,5z M28.989,34.942c-1.997,7.771-0.438,15.674-0.841,23.505
		c-0.109,2.105,1.706,1.628,2.912,1.624c6.651-0.019,13.303-0.104,19.955-0.168c0.705,0.113,1.045-0.151,0.927-0.893
		c0.07-15.243,0.037-30.487,0.29-45.727c0.059-3.554-1.096-4.342-4.493-4.471c-4.03-0.153-3.711,2.064-3.611,4.639
		c0.063,1.655,0.012,3.314,0.012,4.972c0,6.976-7.2,15.359-14.114,16.435C29.679,34.886,29.333,34.914,28.989,34.942z
		 M24.962,47.207c0-4.153-0.033-8.307,0.014-12.459c0.024-2.11-0.528-3.609-2.998-3.578c-4.15,0.053-8.301,0.038-12.449,0.166
		c-2.552,0.078-3.821,1.292-3.702,4.103c0.188,4.477,0.047,8.968,0.046,13.453c-0.001,14.58-0.001,14.58,14.637,14.245
		c0.332-0.008,0.667-0.032,0.996-0.001c2.563,0.244,3.574-0.889,3.492-3.47C24.867,55.516,24.963,51.359,24.962,47.207z
		 M65.967,31.198c2.316,0,4.644-0.143,6.946,0.038c2.584,0.204,3.443-0.72,3.418-3.346c-0.025-2.538-1.098-3.001-3.293-2.946
		c-4.629,0.118-9.266,0.105-13.896,0.006c-2.248-0.048-3.709,0.116-3.697,3.075c0.012,2.806,1.182,3.351,3.575,3.203
		C61.327,31.087,63.65,31.198,65.967,31.198z M62.731,41.004c0.988,0,1.977,0,2.965,0c2.25,0,4.471,0.597,4.443-3.246
		c-0.027-3.763-2.145-3.317-4.454-3.297c-2.471,0.022-4.948,0.111-7.411-0.023c-2.542-0.138-2.969,1.187-2.972,3.346
		c-0.003,2.171,0.42,3.511,2.983,3.246C59.753,40.877,61.248,41.002,62.731,41.004z M62.886,44.066
		c-0.999,0-1.997,0.013-2.996-0.002c-2.319-0.033-4.594-0.535-4.611,3.266c-0.019,3.749,2.155,3.407,4.546,3.364
		c2.495-0.044,4.998-0.122,7.486,0.014c2.835,0.155,2.678-1.637,2.71-3.574c0.031-1.914-0.234-3.286-2.644-3.087
		C65.89,44.17,64.384,44.069,62.886,44.066z M62.627,60.087c0.997,0,1.994,0.009,2.991-0.001c2.241-0.022,4.582,0.688,4.474-3.26
		c-0.101-3.64-2.247-2.914-4.284-2.939c-2.658-0.032-5.322,0.088-7.975-0.035c-2.109-0.099-2.555,0.951-2.368,2.733
		c0.161,1.533-0.552,3.558,2.177,3.503C59.303,60.055,60.965,60.082,62.627,60.087z"/>
	<path fill-rule="evenodd" clip-rule="evenodd" fill="#585555" d="M2,28c0.351,0.058,0.701,0.116,1.052,0.174
		c-0.078,11.94-0.157,23.88-0.234,35.82C2.545,63.997,2.273,63.999,2,64C2,52,2,40,2,28z"/>
	<path fill-rule="evenodd" clip-rule="evenodd" fill="#575453" d="M2,64c0.273-0.001,0.545-0.003,0.817-0.006
		c0.493,2.68,2.635,2.022,4.324,2.031c6.937,0.034,13.874-0.02,20.811-0.042C27.968,66.322,27.984,66.661,28,67
		c-7.833,0-15.679-0.252-23.494,0.123C1.356,67.274,2.048,65.654,2,64z"/>
	<path fill-rule="evenodd" clip-rule="evenodd" fill="#5F5B5B" d="M80,34c-0.271,0.097-0.541,0.194-0.812,0.292
		c-0.051-4.124-0.102-8.247-0.152-12.371C79.357,21.948,79.679,21.974,80,22C80,26,80,30,80,34z"/>
	<path fill-rule="evenodd" clip-rule="evenodd" fill="#CCCBCB" d="M51.014,59.903c-6.651,0.063-13.303,0.149-19.955,0.168
		c-1.206,0.004-3.021,0.481-2.912-1.624c0.404-7.831-1.156-15.733,0.841-23.505c0.392,0.546,0.732,0.467,1.035-0.084
		c6.914-1.075,14.114-9.459,14.114-16.435c0-1.657,0.052-3.317-0.012-4.972c-0.1-2.575-0.419-4.792,3.611-4.639
		c3.397,0.129,4.552,0.917,4.493,4.471c-0.253,15.239-0.22,30.483-0.29,45.727C51.631,59.308,51.322,59.605,51.014,59.903z"/>
	<path fill-rule="evenodd" clip-rule="evenodd" fill="#626262" d="M24.962,47.207c0,4.152-0.096,8.309,0.036,12.458
		c0.082,2.581-0.929,3.714-3.492,3.47c-0.329-0.031-0.664-0.007-0.996,0.001C5.873,63.471,5.873,63.471,5.874,48.891
		c0-4.485,0.142-8.977-0.046-13.453c-0.119-2.81,1.15-4.024,3.702-4.103c4.147-0.127,8.299-0.113,12.449-0.166
		c2.47-0.031,3.022,1.468,2.998,3.578C24.929,38.9,24.962,43.054,24.962,47.207z M9.259,40.148c0.191,0.527-1.422,3.308,1.162,3.519
		c2.447,0.2,1.322-2.5,1.604-3.934c0.3-1.524,1.316-1.577,2.499-1.866c2.328-0.568,6.761,1.571,6.537-1.786
		c-0.181-2.696-4.833-0.811-7.459-1.218C10.491,34.381,8.209,35.182,9.259,40.148z"/>
	<path fill-rule="evenodd" clip-rule="evenodd" fill="#ABAAAB" d="M65.967,31.198c-2.316,0-4.64-0.111-6.947,0.031
		c-2.394,0.147-3.563-0.397-3.575-3.203c-0.012-2.959,1.449-3.123,3.697-3.075c4.631,0.099,9.268,0.111,13.896-0.006
		c2.195-0.056,3.268,0.408,3.293,2.946c0.025,2.626-0.834,3.55-3.418,3.346C70.61,31.055,68.283,31.198,65.967,31.198z"/>
	<path fill-rule="evenodd" clip-rule="evenodd" fill="#AEADAD" d="M62.731,41.003c-1.483-0.001-2.979-0.126-4.445,0.026
		c-2.563,0.265-2.986-1.075-2.983-3.246c0.003-2.159,0.43-3.483,2.972-3.346c2.463,0.134,4.94,0.046,7.411,0.023
		c2.31-0.021,4.427-0.466,4.454,3.297c0.027,3.843-2.193,3.246-4.443,3.246C64.708,41.004,63.72,41.004,62.731,41.003z"/>
	<path fill-rule="evenodd" clip-rule="evenodd" fill="#9F9F9F" d="M62.886,44.068c1.498,0.001,3.004,0.102,4.491-0.021
		c2.409-0.199,2.675,1.173,2.644,3.087c-0.032,1.938,0.125,3.729-2.71,3.574c-2.488-0.136-4.991-0.058-7.486-0.014
		c-2.391,0.043-4.564,0.385-4.546-3.364c0.018-3.801,2.292-3.299,4.611-3.266C60.889,44.079,61.887,44.066,62.886,44.068z"/>
	<path fill-rule="evenodd" clip-rule="evenodd" fill="#B9B9B9" d="M62.627,60.084c-1.662-0.002-3.324-0.029-4.985,0.004
		c-2.729,0.055-2.016-1.97-2.177-3.503c-0.187-1.782,0.259-2.832,2.368-2.733c2.652,0.123,5.316,0.003,7.975,0.035
		c2.037,0.025,4.184-0.7,4.284,2.939c0.108,3.947-2.232,3.237-4.474,3.26C64.621,60.096,63.624,60.087,62.627,60.084z"/>
	<path fill-rule="evenodd" clip-rule="evenodd" fill="#D3D3D3" d="M30.023,34.858c-0.302,0.552-0.643,0.63-1.035,0.084
		C29.333,34.914,29.679,34.886,30.023,34.858z"/>
	<path fill-rule="evenodd" clip-rule="evenodd" fill="#D3D3D3" d="M51.014,59.903c0.309-0.298,0.617-0.596,0.927-0.893
		C52.059,59.752,51.719,60.017,51.014,59.903z"/>
	<path fill-rule="evenodd" clip-rule="evenodd" fill="#131414" d="M9.259,40.148c-1.049-4.967,1.232-5.768,4.342-5.286
		c2.626,0.407,7.279-1.478,7.459,1.218c0.224,3.357-4.209,1.218-6.537,1.786c-1.182,0.289-2.199,0.342-2.499,1.866
		c-0.282,1.434,0.843,4.134-1.604,3.934C7.837,43.456,9.45,40.676,9.259,40.148z"/>
</g>
</svg>
