<?xml version="1.0" encoding="utf-8"?>
<!-- Generator: Adobe Illustrator 16.0.3, SVG Export Plug-In . SVG Version: 6.00 Build 0)  -->
<!DOCTYPE svg PUBLIC "-//W3C//DTD SVG 1.1//EN" "http://www.w3.org/Graphics/SVG/1.1/DTD/svg11.dtd">
<svg version="1.1" id="Layer_1" xmlns="http://www.w3.org/2000/svg" xmlns:xlink="http://www.w3.org/1999/xlink" x="0px" y="0px"
	 width="520px" height="520px" viewBox="0 0 520 520" enable-background="new 0 0 520 520" xml:space="preserve">
<g>
	<path fill-rule="evenodd" clip-rule="evenodd" fill="#694199" d="M5,281c0-13.333,0-26.667,0-40
		c0.994-0.363,0.925-1.237,0.988-2.05c0.729-9.474,2.13-18.854,3.979-28.167C30.871,105.465,116.471,23.794,222.576,7.857
		C228.719,6.934,235.048,7.151,241,5c13,0,26,0,39,0c0.507,1.236,1.635,0.895,2.562,0.965c19.341,1.462,38.422,4.785,56.637,11.301
		C437.57,52.46,496.226,121.434,514.379,224.551c1.021,5.799,0.693,11.793,2.621,17.449c0,10.667,0,21.334,0,32
		c-2.574-0.341-3.881-2.447-5.492-4.058c-37.399-37.359-74.77-74.748-112.171-112.105c-1.597-1.595-2.876-3.793-5.604-3.755
		c-0.529-0.62-1.106-1.206-1.581-1.865c-15.916-22.14-37.229-35.046-64.553-37.405c-19.447-1.678-38.951-0.373-58.428-0.687
		c-3.303-0.053-6.657-0.519-9.93,0.445c-19.502-0.263-39.001-0.487-58.5,0.113c-0.62-0.405-1.201-0.319-1.754,0.136
		c-8.762-0.229-17.234,1.483-25.411,4.392c-36.636,13.035-59.007,45.073-59.174,84.981c-0.158,37.822-0.085,75.646-0.002,113.469
		c0.024,10.688,1.377,21.205,4.984,31.371c6.636,18.702,18.603,33.191,34.746,44.436c-0.191,2.972,2.183,4.35,3.893,6.061
		c37.291,37.336,74.613,74.64,111.907,111.973c1.612,1.614,3.72,2.924,4.068,5.498c-11,0-22,0-33,0
		c-0.363-0.994-1.237-0.926-2.05-0.988c-9.474-0.729-18.854-2.13-28.167-3.979C105.465,491.129,23.794,405.529,7.857,299.424
		C6.934,293.281,7.151,286.952,5,281z"/>
	<path fill-rule="evenodd" clip-rule="evenodd" fill="#532E8F" d="M393.733,154.083c2.728-0.038,4.007,2.16,5.604,3.755
		c37.401,37.357,74.771,74.746,112.171,112.105c1.611,1.61,2.918,3.717,5.492,4.058c0,2.667,0,5.333,0,8
		c-1.047,0.311-0.959,1.188-0.995,2c-0.385,8.48-1.725,16.859-3.355,25.148c-8.143,41.403-25.003,78.892-51.64,111.703
		c-41.716,51.387-95.288,82.516-160.687,93.271c-6.433,1.059-13.058,0.774-19.323,2.877c-2.333,0-4.667,0-7,0
		c-0.349-2.574-2.456-3.884-4.068-5.498c-37.293-37.333-74.616-74.637-111.907-111.973c-1.709-1.711-4.084-3.089-3.893-6.061
		c13.522,8.176,27.886,13.647,43.946,13.664c0.32,0.023,0.639,0.046,0.959,0.069c1.638,0.151,3.277,0.433,4.916,0.435
		c19.016,0.021,38.031,0.001,57.047-0.009c22.804,0.202,45.635,1.355,68.396-0.636c21.74-1.901,39.924-11.462,54.785-27.315
		c16.619-17.729,23.748-39.095,23.743-63.114c-0.006-34.657-0.301-69.318,0.11-103.971
		C408.282,191.727,405.004,171.999,393.733,154.083z"/>
	<path fill-rule="evenodd" clip-rule="evenodd" fill="#D0D0D2" d="M393.733,154.083c11.271,17.917,14.549,37.645,14.301,58.509
		c-0.411,34.653-0.116,69.314-0.11,103.971c0.005,24.02-7.124,45.385-23.743,63.114c-14.861,15.854-33.045,25.414-54.785,27.315
		c-22.761,1.991-45.592,0.838-68.396,0.636c-0.032-9.813-0.063-19.626-0.095-29.439c19.159-0.064,38.317-0.191,57.475-0.146
		c4.534,0.012,9.041-0.434,13.378-1.371c27.512-5.947,46.188-29.338,46.226-57.683c0.052-38.659,0.01-77.319,0.018-115.979
		c0-4.672-0.554-9.286-1.695-13.797c-7.049-27.838-29.285-45.152-57.926-45.214c-19.158-0.041-38.316-0.124-57.475-0.188
		c0.005-7.954,0.018-15.907,0.01-23.861c-0.002-1.955,0.386-4.053-1.67-5.379c3.271-0.964,6.625-0.499,9.928-0.445
		c19.477,0.313,38.98-0.992,58.428,0.687c27.324,2.358,48.637,15.265,64.553,37.405
		C392.627,152.877,393.204,153.462,393.733,154.083z"/>
	<path fill-rule="evenodd" clip-rule="evenodd" fill="#FCFBFD" d="M260.905,378.188c0.031,9.813,0.063,19.626,0.095,29.439
		c-19.015,0.01-38.031,0.03-57.046,0.009c-1.639-0.002-3.277-0.283-4.912-0.434c-0.307-0.177-0.629-0.2-0.963-0.07
		c-16.06-0.017-30.424-5.488-43.946-13.664c-16.144-11.244-28.11-25.733-34.746-44.436c-3.607-10.166-4.96-20.684-4.984-31.371
		c-0.083-37.822-0.156-75.646,0.002-113.469c0.167-39.908,22.538-71.946,59.174-84.981c8.177-2.909,16.648-4.622,25.408-4.392
		c0.583-0.045,1.17-0.091,1.757-0.136c19.498-0.6,38.998-0.376,58.5-0.113c2.059,1.327,1.67,3.424,1.672,5.379
		c0.008,7.954-0.005,15.907-0.009,23.861c-19.643,0.062-39.287,0.079-58.931,0.195c-32.402,0.191-57.862,25.613-57.953,58.05
		c-0.109,39.295-0.011,78.591-0.045,117.887c-0.004,4.521,0.502,8.967,1.584,13.326c6.685,26.944,29.173,44.608,56.913,44.731
		C221.95,378.088,241.427,378.128,260.905,378.188z"/>
	<path fill-rule="evenodd" clip-rule="evenodd" fill="#D0D0D2" d="M200.743,114.685c-0.587,0.045-1.173,0.091-1.757,0.136
		C199.542,114.366,200.123,114.279,200.743,114.685z"/>
	<path fill-rule="evenodd" clip-rule="evenodd" fill="#D0D0D2" d="M198.079,407.133c0.333-0.13,0.656-0.106,0.963,0.07
		C198.718,407.179,198.398,407.156,198.079,407.133z"/>
	<path fill-rule="evenodd" clip-rule="evenodd" fill="#532E8F" d="M260.905,378.188c-19.478-0.061-38.955-0.101-58.432-0.188
		c-27.739-0.123-50.228-17.787-56.913-44.731c-1.082-4.359-1.588-8.806-1.584-13.326c0.034-39.296-0.064-78.592,0.045-117.887
		c0.091-32.438,25.551-57.859,57.953-58.05c19.644-0.116,39.288-0.133,58.931-0.195c19.158,0.064,38.316,0.146,57.475,0.188
		c28.641,0.062,50.877,17.376,57.926,45.214c1.142,4.512,1.695,9.125,1.695,13.797c-0.008,38.66,0.034,77.32-0.018,115.979
		c-0.038,28.345-18.714,51.735-46.226,57.683c-4.337,0.938-8.844,1.383-13.378,1.371
		C299.222,377.997,280.063,378.124,260.905,378.188z M260.943,336.759c4.871,0.904,9.677-0.167,14.329-1.11
		c50.388-10.224,76.751-64.589,52.755-109.875c-14.048-26.512-36.878-40.018-67.09-40.546c-41.283-0.21-75.625,33.99-75.839,75.525
		C184.885,302.332,219.389,336.909,260.943,336.759z M336.71,167.802c-10.096,0.091-17.87,8.062-17.775,18.225
		c0.094,10.008,8.293,18.057,18.244,17.909c9.947-0.148,17.896-8.344,17.822-18.375C354.927,175.554,346.848,167.71,336.71,167.802z
		"/>
	<path fill-rule="evenodd" clip-rule="evenodd" fill="#D0D0D2" d="M260.937,185.227c30.213,0.529,53.043,14.035,67.091,40.546
		c23.996,45.286-2.367,99.651-52.755,109.875c-4.652,0.943-9.458,2.015-14.329,1.11c0.003-9.838,0.006-19.676,0.008-29.515
		c2.626-0.371,5.251-0.753,7.879-1.112c29.566-4.043,47.326-39.066,33.379-65.48c-8.815-16.694-22.875-24.641-41.258-25.896
		C260.947,204.913,260.942,195.07,260.937,185.227z"/>
	<path fill-rule="evenodd" clip-rule="evenodd" fill="#FCFBFD" d="M260.952,307.244c-0.002,9.839-0.005,19.677-0.008,29.515
		c-41.555,0.15-76.059-34.427-75.846-76.006c0.213-41.535,34.556-75.736,75.838-75.525c0.005,9.843,0.011,19.686,0.016,29.529
		c-1.161,0.085-2.32,0.177-3.481,0.254c-32.927,2.195-53.014,38.743-37.109,67.711C229.114,298.66,242.971,306.437,260.952,307.244z
		"/>
	<path fill-rule="evenodd" clip-rule="evenodd" fill="#D0D0D2" d="M336.71,167.802c10.138-0.091,18.217,7.752,18.291,17.758
		c0.074,10.032-7.875,18.228-17.822,18.375c-9.951,0.147-18.15-7.901-18.244-17.909C318.84,175.863,326.614,167.893,336.71,167.802z
		"/>
	<path fill-rule="evenodd" clip-rule="evenodd" fill="#532E8F" d="M260.952,307.244c-17.981-0.808-31.838-8.584-40.589-24.523
		c-15.905-28.968,4.182-65.516,37.109-67.711c1.161-0.077,2.32-0.169,3.481-0.254c18.382,1.255,32.442,9.202,41.257,25.896
		c13.947,26.414-3.813,61.437-33.379,65.48C266.203,306.491,263.578,306.873,260.952,307.244z"/>
</g>
</svg>
