<?xml version="1.0" encoding="utf-8"?>
<!-- Generator: Adobe Illustrator 16.0.3, SVG Export Plug-In . SVG Version: 6.00 Build 0)  -->
<!DOCTYPE svg PUBLIC "-//W3C//DTD SVG 1.1//EN" "http://www.w3.org/Graphics/SVG/1.1/DTD/svg11.dtd">
<svg version="1.1" id="Layer_1" xmlns="http://www.w3.org/2000/svg" xmlns:xlink="http://www.w3.org/1999/xlink" x="0px" y="0px"
	 width="520px" height="520px" viewBox="0 0 520 520" enable-background="new 0 0 520 520" xml:space="preserve">
<g>
	<path fill-rule="evenodd" clip-rule="evenodd" fill="#F26A22" d="M365,517c-2,0-4,0-6,0c-0.546-1.873-1.091-3.747-1.906-6.546
		c-0.915,2.861-1.505,4.703-2.094,6.546c-71,0-142,0-213,0c0.864-3.277,2.693-6.347,0.169-9.914
		c-1.955-2.764-6.967-4.116-5.972-7.849c0.986-3.696,6.061-3.473,9.162-5.31c3.492-2.068,4.612-4.444,1.812-7.544
		c-1.905-2.109-1.726-3.231,0.638-4.543c3.985-2.212,4.713-5.483,2.354-9.243c-2.3-3.665-0.952-5.105,2.739-6.354
		c3.067-1.037,6.805-2.525,7.29-6.116c0.515-3.817,2.823-5.351,5.563-7.015c5.958-3.62,12.973-5.013,18.658-9.377
		c2.67-2.049,4.441-4.85,7.24-6.721c11.222-7.503,17.409-18.895,23.04-30.631c1.46-3.043,0.455-6.021-1.878-8.201
		c-8.791-8.215-18.663-14.437-31-15.615c-3.279-0.313-6.186-2.332-9.744-1.526c-5.502,1.245-11.065,2.37-16.663,3.013
		c-7.741,0.888-15.378,3.307-23.279,2.164c-11.217-1.623-21.951-5.12-32.653-8.717c-2.005-0.673-3.507-1.978-4.755-3.517
		c-5.954-7.346-11.542-14.955-16.302-23.147c-1.42-2.443-1.027-4.429,1.817-4.866c5.752-0.886,8.14-4.823,9.292-9.767
		c0.742-3.182,2.575-3.959,5.421-3.714c10.103,0.871,20.229,1.564,30.198,3.54c2.989,0.593,5.985,0.821,8.915,0.161
		c2.027-0.457,4.653-0.893,5.036-3.436c0.346-2.299-1.24-4.396-3.164-5.281c-5.337-2.459-9.544-6.618-14.703-9.291
		c-6.733-3.49-7.416-5.333-3.541-12.09c7.192-12.539,14.38-25.091,22.022-37.355c2.24-3.596,4.086-7.826,9.129-9.341
		c10.021-3.011,19.847-6.669,29.76-10.042c17.633-5.999,35.265-12,52.909-17.965c8.967-3.031,17.831-6.893,27.232-7.89
		c16.713-1.772,33.564-1.715,50.37-2.095c9.265-0.21,11.437-2.845,10.104-12.04c-2.199-15.163-5.473-30.018-10.924-44.407
		c-5.182-13.68-9.38-27.727-12.894-41.909c-2.792-11.271-6.363-22.405-7.79-33.98c-0.808-6.548,7.087-11.99,13.083-9.25
		c10.901,4.982,19.385,12.255,24.182,23.678c6.366,15.16,14.106,29.673,22.641,43.721c2.896,4.767,4.319,10.494,9.082,14.136
		c1.743,1.333,3.259,2.159,5.419,1.239c2.058-0.875,3.188-2.2,3.089-4.567c-0.262-6.151-0.086-12.34-0.687-18.455
		c-1.64-16.697-3.818-33.342-5.34-50.048c-1.127-12.365,0.361-13.356,12.021-8.795c7.953,3.111,15.905,6.821,19.703,15.057
		c5.634,12.217,8.846,25.354,13.17,38.067c3.9,11.465,6.742,23.278,10.479,34.827c3.669,11.344,6.972,22.822,7.321,34.991
		c0.311,10.787,1.834,21.534,2.342,32.321c0.447,9.528,2.456,19.297-2.839,28.317c-2.187,3.726-3.937,7.717-6.247,11.357
		c-1.679,2.645-1.934,5.339-1.255,8.122c3.202,13.133,3.639,26.661,5.914,39.904c0.838,4.882-1.48,9.575,0.327,14.268
		c1.732,4.5,1.793,9.241,0.893,13.803c-1.935,9.8,1.704,17.999,6.838,25.755c3.019,4.562,6.648,8.713,9.877,13.141
		c0.807,1.105,2.39,2.302,1.311,3.937c-0.963,1.459-2.718,1.042-4.159,0.916c-1.127-0.098-2.479-0.304-3.279-0.989
		c-3.631-3.113-7.554-3.103-10.896-0.262c-3.494,2.969-1.124,6.567-0.019,10.06c2.567,8.109,7.888,16.143,1.188,24.84
		c-0.875,1.136-1.589,2.414-2.678,3.432c-1.665,1.556-2.747,3.328-1.913,5.767c1.384,4.049-0.381,5.175-4.326,5.436
		c-3.289,0.217-7.551-0.157-9.049,3.908c-1.824,4.949-3.717,3.381-5.981,0.565c-2.714-3.373-5.552-3.25-9.141-1.033
		c-4.02,2.481-4.454,5.996-3.904,9.947c0.898,6.457,2.798,12.64,5.401,18.633c2.121,4.886,1.607,5.567-3.436,5.495
		c-7.22-0.102-8.959,1.703-8.061,9c0.911,7.401,2.144,14.748,2.556,22.228c0.191,3.466-1.018,4.067-3.851,3.932
		C373.243,516.27,369.076,515.646,365,517z"/>
	<path fill-rule="evenodd" clip-rule="evenodd" fill="#FBCEB1" d="M355,517c0.589-1.843,1.179-3.685,2.094-6.546
		c0.815,2.799,1.36,4.673,1.906,6.546C357.667,517,356.333,517,355,517z"/>
</g>
</svg>
