<?xml version="1.0" encoding="utf-8"?>
<!-- Generator: Adobe Illustrator 16.0.3, SVG Export Plug-In . SVG Version: 6.00 Build 0)  -->
<!DOCTYPE svg PUBLIC "-//W3C//DTD SVG 1.1//EN" "http://www.w3.org/Graphics/SVG/1.1/DTD/svg11.dtd">
<svg version="1.1" id="Layer_1" xmlns="http://www.w3.org/2000/svg" xmlns:xlink="http://www.w3.org/1999/xlink" x="0px" y="0px"
	 width="105px" height="90px" viewBox="0 0 105 90" enable-background="new 0 0 105 90" xml:space="preserve">
<g>
	<path fill-rule="evenodd" clip-rule="evenodd" fill="#595757" d="M103,67c-0.901,0.356-1.774,0.885-2.709,1.035
		c-1.96,0.314-2.045,1.134-1.09,2.649c1.473,2.336,0.887,4.514-1.009,6.278c-1.759,1.639-4.046,1.777-6.075,0.841
		c-2.305-1.064-3.558-3.132-2.672-5.74c1.04-3.063-1.247-2.069-2.352-1.913c-7.398,1.041-14.776,2.219-22.16,3.358
		c-4.426,0.683-8.843,1.436-13.279,2.042c-2.17,0.297-2.559,0.803-1.397,2.94c1.561,2.874,0.642,5.273-1.893,6.819
		c-2.14,1.306-5.073,0.847-6.756-1.148c-1.74-2.063-1.881-4.39-0.018-6.288c1.418-1.445,0.895-1.789-0.405-2.773
		c-4.536-3.435-5.011-6.956-1.784-11.495c0.384-0.54,0.836-1.033,1.273-1.534c4.849-5.567,4.878-5.583,1.256-11.797
		c-7.022-12.047-14.181-24.017-21.045-36.153c-1.553-2.746-3.418-3.535-6.326-3.551C10.664,10.548,6.581,11.468,3,9
		c0-0.667,0-1.333,0-2c1.401-0.705,2.316-2.125,4.293-1.99c3.809,0.262,7.646,0.172,11.471,0.135
		c2.285-0.022,3.657,1.085,4.725,3.011c2.014,3.631,4.29,7.119,6.235,10.784c1.109,2.089,2.427,2.666,4.779,2.341
		c12.329-1.701,24.682-3.227,37.027-4.801c7.076-0.902,14.142-1.914,21.238-2.614c3.472-0.343,4.05,0.39,4.197,3.875
		c0.337,7.969,0.657,15.939,0.903,23.912c0.154,5.018-0.068,5.263-4.825,6.418c-10.79,2.62-21.499,5.713-32.414,7.632
		c-6.961,1.225-11.801,4.638-15.924,9.882c-1.059,1.347-2.409,2.609-1.475,4.367c1.006,1.893,3.003,1.098,4.507,0.867
		c13.915-2.131,27.784-4.588,41.732-6.459C93.884,63.768,98.438,61.384,103,64C103,65,103,66,103,67z M47.25,32.692
		c1.67-1.604,5.615,1.042,6.36-2.514c0.736-3.507-1.243-7.386-2.672-6.835c-2.238,0.863-5.919-1.188-6.658,2.368
		C43.58,29.083,45.426,32.691,47.25,32.692z M56.938,49.31c-2.403-1.252,1.375-6.114-2.979-5.679
		c-1.929,0.192-6.336-1.853-6.408,2.831c-0.059,3.788,2.202,6.988,4.025,6.28C53.4,52.032,56.525,52.906,56.938,49.31z
		 M59.964,22.017c-1.503,0.89-5.253-1.012-4.952,3.101c0.152,2.085-0.9,5.406,2.689,5.799c3.809,0.417,6.307-1.157,6.282-3.355
		C63.939,23.647,62.864,22.001,59.964,22.017z M62.49,32.03c-1.638,1.341-5.652-0.837-5.955,2.66
		c-0.144,1.667-1.224,5.839,2.38,5.842c2.119,0.001,5.896,1.079,6.716-2.244C66.416,35.099,64.557,32.043,62.49,32.03z
		 M82.942,28.97c-3.837,0.032-6.171,1.133-5.672,2.892c0.549,1.933-0.728,5.185,2.526,5.521c4.299,0.443,6.512-0.926,6.465-3.2
		C86.168,29.649,85.722,28.948,82.942,28.97z M75.887,22.591c0.176,4.464,0.602,5.267,2.741,5.171
		c5.075-0.228,6.672-1.008,6.119-3.42c-0.424-1.849,0.927-5.157-2.776-5.149C77.234,19.203,75.791,20.144,75.887,22.591z
		 M66.913,34.021c0.865,1.515-0.877,4.798,2.859,4.975c3.708,0.175,6.432-1.148,6.134-3.041c-0.314-1.998,0.553-5.207-2.532-5.417
		C68.481,30.204,66.917,31.301,66.913,34.021z M74.17,24.884c-0.353-4.318-0.379-4.498-4.471-3.897
		c-1.639,0.241-4.829-1.446-4.492,2.603c0.455,5.481,0.714,5.937,4.642,5.403C71.824,28.724,74.991,29.52,74.17,24.884z
		 M51.206,33.948c-1.708,0.729-5.366-0.971-5.091,3.13c0.124,1.846-0.83,5.054,2.774,5.103c5.037,0.069,6.363-0.735,6.044-3.574
		C54.703,36.551,55.287,33.556,51.206,33.948z M57.993,45.647c0.843,1.421-0.521,4.473,2.175,4.924
		c3.419,0.572,6.936-2.017,6.806-4.286c-0.198-3.489-0.966-4.365-3.752-4.28C59.09,42.131,57.9,42.888,57.993,45.647z
		 M77.146,44.146c-0.808-1.226,1.025-4.693-2.383-3.91c-2.156,0.495-5.865-0.963-6.308,2.533c-0.186,1.471-1.12,5.139,2.563,5.152
		C75.204,47.936,77.194,46.57,77.146,44.146z M78.876,41.893c0.652,1.178-0.806,3.549,1.803,3.828
		c3.028,0.324,7.342-1.668,6.967-3.173c-0.357-1.434,0.596-4.023-2.303-4.02C80.315,38.534,78.88,39.293,78.876,41.893z
		 M39.583,24.893c-1.521,0.076-2.518,0.124-3.513,0.177c-0.719,0.039-1.268,0.319-1.374,1.103c-0.125,0.927,3.709,7.238,4.582,7.487
		c1.215,0.348,2.725,0.049,3.236-0.763c1.365-2.169-0.014-4.446-0.378-6.68C41.793,24.11,40.28,24.877,39.583,24.893z
		 M93.066,21.952c-0.462-1.452,1.07-4.402-2.523-3.865c-1.73,0.259-4.665-0.528-4.307,2.593c0.218,1.889-0.775,5.053,2.732,5.326
		C92.234,26.26,93.064,25.344,93.066,21.952z M90.821,27.782c-1.263,0.558-4.094-0.646-3.012,2.31
		c0.715,1.952-1.585,5.54,2.635,5.734c1.932,0.088,3.984-0.619,3.062-3.117C92.885,31.026,94.992,27.541,90.821,27.782z"/>
</g>
</svg>
