<?xml version="1.0" encoding="utf-8"?>
<!-- Generator: Adobe Illustrator 16.0.3, SVG Export Plug-In . SVG Version: 6.00 Build 0)  -->
<!DOCTYPE svg PUBLIC "-//W3C//DTD SVG 1.1//EN" "http://www.w3.org/Graphics/SVG/1.1/DTD/svg11.dtd">
<svg version="1.1" id="Layer_1" xmlns="http://www.w3.org/2000/svg" xmlns:xlink="http://www.w3.org/1999/xlink" x="0px" y="0px"
	 width="600px" height="400px" viewBox="0 0 600 400" enable-background="new 0 0 600 400" xml:space="preserve">
<g>
	<path fill-rule="evenodd" clip-rule="evenodd" fill="#F37029" d="M511.776,48.931c3.15,0.498,5.15,2.311,5.099,5.556
		c-0.055,3.45-2.068,5.655-5.621,5.449c-3.269-0.189-5.063-2.482-4.911-5.659C506.493,51.129,508.41,49.21,511.776,48.931z"/>
	<path fill-rule="evenodd" clip-rule="evenodd" fill="#F37029" d="M58.349,66.071c-3.187-0.551-5.119-2.486-5.018-5.666
		c0.099-3.109,1.897-5.416,5.257-5.354c3.543,0.064,5.44,2.336,5.271,5.798C63.7,64.085,61.63,65.8,58.349,66.071z"/>
	<path fill-rule="evenodd" clip-rule="evenodd" fill="#F37029" d="M370.349,77.071c-3.187-0.551-5.118-2.486-5.018-5.666
		c0.099-3.109,1.897-5.416,5.258-5.354c3.543,0.064,5.44,2.336,5.271,5.798C375.7,75.085,373.631,76.8,370.349,77.071z"/>
	<path fill-rule="evenodd" clip-rule="evenodd" fill="#F37029" d="M207.689,125.129c-3.526-0.609-5.458-2.545-5.357-5.725
		c0.099-3.109,1.897-5.416,5.257-5.354c3.543,0.064,5.422,2.334,5.276,5.799C212.727,123.134,210.519,124.68,207.689,125.129z"/>
	<path fill-rule="evenodd" clip-rule="evenodd" fill="#F37029" d="M522.349,159.071c-3.186-0.551-5.118-2.486-5.018-5.666
		c0.099-3.109,1.897-5.416,5.258-5.354c3.543,0.064,5.44,2.336,5.271,5.798C527.7,157.085,525.631,158.8,522.349,159.071z"/>
	<path fill-rule="evenodd" clip-rule="evenodd" fill="#F37029" d="M52.292,222.919c3.366,0.303,5.429,2.023,5.569,5.263
		c0.15,3.463-1.759,5.733-5.302,5.766c-3.327,0.03-5.176-2.232-5.237-5.368C47.261,225.408,49.204,223.48,52.292,222.919z"/>
	<path fill-rule="evenodd" clip-rule="evenodd" fill="#F37029" d="M402.689,245.074c-3.301-0.349-5.285-2.232-5.356-5.396
		c-0.071-3.114,1.649-5.489,4.979-5.622c3.554-0.142,5.543,2.061,5.56,5.515C407.888,242.82,405.874,244.609,402.689,245.074z"/>
	<path fill-rule="evenodd" clip-rule="evenodd" fill="#F37029" d="M158.776,265.932c3.15,0.498,5.15,2.311,5.099,5.556
		c-0.054,3.45-2.069,5.655-5.621,5.449c-3.269-0.19-5.063-2.483-4.911-5.66C153.493,268.129,155.41,266.21,158.776,265.932z"/>
	<path fill-rule="evenodd" clip-rule="evenodd" fill="#F37029" d="M69.024,365.242c-0.435,3.425-1.983,5.635-5.308,5.714
		c-3.344,0.08-5.291-2.097-5.369-5.22c-0.083-3.339,1.776-5.741,5.397-5.69C67.103,360.093,68.522,362.437,69.024,365.242z"/>
	<path fill-rule="evenodd" clip-rule="evenodd" fill="#F37029" d="M295.612,376.075c-3.283-0.395-5.254-2.298-5.283-5.462
		c-0.028-3.105,1.704-5.476,5.049-5.56c3.553-0.09,5.52,2.127,5.492,5.584C300.844,373.886,298.817,375.657,295.612,376.075z"/>
	<path fill-rule="evenodd" clip-rule="evenodd" fill="#F37029" d="M522.903,377.115c-3.594-0.452-5.563-2.362-5.575-5.526
		c-0.012-3.103,1.725-5.471,5.075-5.536c3.552-0.07,5.492,2.149,5.472,5.61C527.854,374.958,525.686,376.564,522.903,377.115z"/>
</g>
</svg>
