<?xml version="1.0" encoding="utf-8"?>
<!-- Generator: Adobe Illustrator 16.0.3, SVG Export Plug-In . SVG Version: 6.00 Build 0)  -->
<!DOCTYPE svg PUBLIC "-//W3C//DTD SVG 1.1//EN" "http://www.w3.org/Graphics/SVG/1.1/DTD/svg11.dtd">
<svg version="1.1" id="Layer_1" xmlns="http://www.w3.org/2000/svg" xmlns:xlink="http://www.w3.org/1999/xlink" x="0px" y="0px"
	 width="520px" height="520px" viewBox="0 0 520 520" enable-background="new 0 0 520 520" xml:space="preserve">
<g>
	<path fill-rule="evenodd" clip-rule="evenodd" fill="#FBCEB1" d="M355,517c0.589-1.843,1.179-3.685,2.094-6.546
		c0.815,2.799,1.36,4.673,1.906,6.546C357.667,517,356.333,517,355,517z"/>
</g>
<g>
	<path fill-rule="evenodd" clip-rule="evenodd" fill="#F26A22" d="M209.273,341.033c1.075,1.935,2.726,2.159,4.715,1.733
		c1.713-0.366,2.776,0.478,4.231,1.605c4.806,3.724,4.759,7.229,0.759,11.321c-0.678,0.693-1.017,1.707-1.571,2.533
		c-5.537,8.249-5.473,8.191,0.8,15.869c12.476,15.271,27.267,27.919,43.686,38.716c1.658,1.09,3.245,2.952,5.826,1.774
		c2.595-1.183,4.996-1.199,6.917,1.6c1.873,2.731-1.209,3.633-1.676,5.47c-0.12,0.471-0.448,0.889-0.68,1.331
		c-5.866,9.125-11.944,18.124-17.532,27.417c-4.263,7.091-11.944,9.59-17.888,14.397c-1.095,0.886-2.116-0.439-3.158-0.793
		c-0.553-1.059-1.918-1.598-1.923-3.007c1.997-3.447,1.07-6.001-1.939-8.531c-17.073-14.356-32.349-30.456-44.943-48.876
		c-3.035-4.44-5.493-4.969-9.28-2.102c-2.472,1.87-4.092,1.531-5.507-1.126c-0.855-1.605-1.934-1.091-3.303-0.406
		c-6.788,3.396-7.778,6.53-4.242,14.146c0.088,0.492,0.003,1.148,0.291,1.45c5.414,5.69,5.296,12.625,5.356,19.9
		c0.044,5.354,3.422,10.034,7.499,13.599c2.404,2.103,1.805,3.354-0.207,4.908c-4.007,0.871-6.813,3.939-10.381,5.666
		c-16.271,7.871-24.675,4.057-29.318-13.598c-1.753-6.665-3.426-13.352-5.136-20.028c-0.093-1.612-0.186-3.226-0.279-4.838
		c-0.544-5.592-0.839-11.224-1.733-16.76c-0.487-3.015-0.625-6.205-2.663-8.938c-1.808-2.423-3.214-3.001-5.509-0.69
		c-2.454,2.471-5.154,4.697-7.723,7.056c-8.484,7.791-17.414,14.877-28.591,18.532c-0.907,0.297-2.815,0.571-1.885,2.19
		c1.528,2.658,0.581,5.975,2.533,8.44c-0.812,9.906,1.623,18.854,7.982,26.592c1.823,2.218,2.317,4.673,1.901,7.413
		c-6.893,7.753-16.343,11.729-25.136,16.563c-2.397,1.317-6.215,1.793-8.218-2.07c-7.634-14.727-16.7-28.608-25.461-42.659
		c-4.445-7.129-8.105-14.821-14.015-20.984c-1.596-4.731,0.29-8.287,4.266-10.527c7.456-4.2,14.811-8.865,23.748-9.271
		c1.981-0.091,2.458-1.174,2.834-2.764c3.436-14.541,10.704-27.023,19.173-39.269c3.757-5.432,7.948-10.28,12.146-15.228
		c1.705-2.009,1.526-2.556-1.022-3.675c-7.021-3.081-9.821-16.433-4.545-22.104c1.813-1.949,0.974-2.423-0.25-3.588
		c-3.356-3.199-6.7-6.412-9.985-9.683c-1.882-1.872-1.065-3.046,1.186-3.621c0.963-0.246,2-0.641,2.931-0.499
		c4.63,0.705,7.883-1.459,11.287-4.316c4.983-4.184,7.393-3.24,9.379,2.843c0.663,2.029,1.116,4.16,2.043,6.06
		c0.875,1.793,0.141,4.102,2.006,5.611c2.68-1.963,5.591-3.195,9.081-2.765c1.882,0.232,3.322,0.033,3.57-2.747
		c0.199-2.23,2.739-3.55,4.333-5.195c32.284-33.336,64.435-66.803,96.904-99.958c14.21-14.51,27.941-29.487,42.609-43.569
		c3.989-3.83,7.711-8.126,11.537-12.225c6.004-1.75,6.163-2.003,2.487-6.966c-5.325-7.189-10.799-14.268-16.209-21.394
		c-2.732-2.38-2.605-4.541-0.43-7.563c6.568-9.124,15.932-12.746,26.445-14.389c3.343-0.523,5.452,1.384,6.394,4.26
		c1.779,5.437,5.915,10.114,4.302,16.734c-0.53,2.179,0.203,6.209,4.242,7.128c1.735,0.395,1.669,2.4,2.086,3.723
		c1.24,3.934,2.164,7.966,3.293,11.936c0.474,1.667,1.152,3.275,1.738,4.91c2.105-1.857,5.674-0.465,7.337-3.303
		c0.084-0.143,0.16-0.294,0.266-0.421c4.69-5.649,6.129-6.121,10.465-3.441c5.063,3.129,7.233,9.507,4.893,14.376
		c-3.528,1.756-4.767,5.06-6.644,8.299c-2.768,4.774-1.582,7.698,1.909,10.788c1.174,1.702,2.142,2.681,4.172,0.589
		c3.356-3.456,7.103-6.531,10.669-9.783c2.76-2.516,5.665-4.846,9.708-3.647c2.138,0.634,3.124-0.835,4.297-1.827
		c18.388-15.548,36.706-31.179,55.109-46.708c3.229-2.726,6.33-4.837,5.991-10.147c-0.285-4.45,11.612-12.293,16.129-11.216
		c3.67,0.875,5.016-0.423,4.858-3.841c-0.106-2.323,0.706-3.936,2.42-5.603c12.137-11.8,24.145-23.734,36.17-35.648
		c2.095-2.076,4.441-2.896,7.226-1.688c3.185,1.382,6.02,3.08,5.114,7.344c-1.711,1.525-3.33,3.173-5.156,4.544
		c-2.387,1.792-1.058,3.21,0.028,4.984c1.566,2.558,2.707,0.679,3.877-0.197c1.846-1.382,3.588-2.902,5.373-4.363
		c2.114-2.677,3.843-2.325,5.797,0.369c2.415,3.33,4.319,6.875,5.74,10.708c0.114,0.309,0.414,0.782,0.31,0.903
		c-2.614,3.03-0.246,6.951-1.844,10.145c-0.745,0.344-1.563,0.586-2.226,1.049c-11.506,8.05-22.97,16.161-34.502,24.172
		c-2.679,1.86-5.315,5.249-8.396,4.771c-7.003-1.086-6.869,2.416-5.867,7.213c0.135,0.643,0.167,1.308,0.246,1.963
		c-0.35,0.693-0.698,1.386-1.048,2.079c-0.833,0.517-1.614,1.159-2.508,1.528c-4.815,1.992-8.924,6.5-14.683,5.096
		c-2.628-0.641-4.099,0.363-5.739,1.698c-18.538,15.092-36.924,30.377-55.694,45.174c-3.884,3.062-5.34,5.948-4.234,10.463
		c0.044,1.445-0.408,2.726-1.275,3.871c-7.249,4.609-14.472,9.258-21.754,13.813c-5.242,3.278-5.277,3.222-1.265,8.146
		c0.747,1.816,1.147,3.901,2.309,5.395c3.033,3.901,2.825,8.104,1.885,12.504c-0.3,1.135-0.711,2.131-1.761,2.883
		c-7.961,5.704-15.896,11.443-23.815,17.205c-18.535,13.486-36.932,27.167-55.627,40.428c-13.004,9.224-25.431,19.272-39.041,27.629
		c-2.285,1.402-1.915,2.993-1.477,5.088c0.445,2.129,1.783,4.189,0.211,6.605c-3.345,5.145-6.208,10.609-9.652,15.681
		C205.458,336.787,205.869,339.067,209.273,341.033z M152.086,371.257c-0.375,6.167,1.832,10.282,4.263,14.125
		c2.336,3.692,0.753,4.39-2.834,4.323c1.645,3.406,4.389,4.687,7.66,4.93c3.046,0.227,6.378-3.468,4.915-5.44
		C161.784,383.391,157.214,377.783,152.086,371.257z"/>
	<path fill-rule="evenodd" clip-rule="evenodd" fill="#FAB88F" d="M322.411,144.95"/>
	<path fill-rule="evenodd" clip-rule="evenodd" fill="#FAB88F" d="M317.677,164.037"/>
</g>
</svg>
