<?xml version="1.0" encoding="utf-8"?>
<!-- Generator: Adobe Illustrator 16.0.3, SVG Export Plug-In . SVG Version: 6.00 Build 0)  -->
<!DOCTYPE svg PUBLIC "-//W3C//DTD SVG 1.1//EN" "http://www.w3.org/Graphics/SVG/1.1/DTD/svg11.dtd">
<svg version="1.1" id="Layer_1" xmlns="http://www.w3.org/2000/svg" xmlns:xlink="http://www.w3.org/1999/xlink" x="0px" y="0px"
	 width="140px" height="240px" viewBox="0 0 140 240" enable-background="new 0 0 140 240" xml:space="preserve">
<g>
	<path fill-rule="evenodd" clip-rule="evenodd" fill="#6A64AD" d="M82.946,235.821c-15.635,0.004-31.255,1.733-46.902,0.416
		c-0.015-52.558-0.008-105.116-0.091-157.674c-0.006-3.693,0.253-7.205,2.057-10.481c3.841,0.616,6.094-0.591,6.823-4.814
		c1.461-8.471,3.327-16.871,5.003-25.305c0.578-2.907-0.12-4.782-3.564-5.146c-2.774-0.293-5.486-1.175-8.226-1.795
		c-2.71-0.012-1.795-3.767-4.213-4.081c1.497-6.829,3.651-13.46,5.994-20.036c0.399-0.234,0.798-0.469,1.197-0.704
		c1.654-0.047,3.308-0.095,4.962-0.143c0.18,1.436,1.099,1.841,2.427,1.938c13.533,0.996,27.063,2.03,40.593,3.053
		c-0.002,9.597,0.028,19.194-0.035,28.79c-0.012,1.741,0.654,3.681-0.951,5.157c-1.433-5.114-5.66-5.529-9.935-6.017
		c-3.678-0.42-5.398,0.545-5.202,4.761c0.345,7.432,0.482,14.917-0.019,22.33c-0.333,4.923,1.756,6.821,6.039,7.792
		c3.558,0.807,7.81,0.937,10.639,3.72c-0.035,39.124-0.51,78.417-0.528,117.541c0,1.578-0.497,3.515,1.979,3.874
		c-0.216,1.466-0.339,2.953-0.664,4.395C87.891,214.208,85.412,225.014,82.946,235.821z"/>
	<path fill-rule="evenodd" clip-rule="evenodd" fill="#867DBB" d="M82.946,235.821c2.466-10.808,4.944-21.613,7.382-32.429
		c0.325-1.441,0.448-2.929,0.664-4.395c1.003-3.665,2.172-7.294,2.981-11.001c7.239-33.16,15.368-66.108,23.545-99.046
		c0.739-2.976,0.771-5.87-0.32-8.805c-8.441-22.71-16.84-45.436-25.252-68.156c-0.311-0.308-0.622-0.615-0.933-0.923
		c-0.67-0.005-1.339-0.011-2.008-0.017c-13.53-1.023-27.06-2.057-40.593-3.053c-1.328-0.098-2.247-0.503-2.427-1.938
		c7.358-1.847,14.876-1.122,22.32-1.224c13.524-0.187,26.802,2.321,40.138,4.17c2.295,0.318,2.975,1.662,3.606,3.486
		c7.463,21.524,14.938,43.042,22.473,64.541c0.814,2.325,0.725,4.597,0.258,6.886c-10.012,49.172-20.083,98.332-30.012,147.52
		c-0.727,3.599-2.118,4.922-5.848,4.646C93.619,235.691,88.273,235.881,82.946,235.821z"/>
	<path fill-rule="evenodd" clip-rule="evenodd" fill="#6D67AF" d="M38.01,68.082c-1.804,3.276-2.063,6.789-2.057,10.481
		c0.083,52.558,0.076,105.117,0.091,157.674c-0.157,0.056-0.31,0.146-0.471,0.164c-11.148,1.22-10.998,1.164-12.593-9.656
		c-5.119-34.723-10.392-69.423-15.592-104.135c-0.419-2.797-0.73-5.61-1.09-8.417c0.446-0.406,0.891-0.812,1.336-1.217
		c-0.508-0.326-1.016-0.652-1.524-0.978c0.013-0.494-0.123-1.053,0.062-1.472c11.521-26.259,17.81-54.231,26.686-81.355
		c0.251-0.768,0.647-1.487,0.975-2.229c2.418,0.314,1.502,4.069,4.212,4.081c-2.385,8.944-4.537,17.958-7.216,26.813
		C27.864,67.638,27.653,67.575,38.01,68.082z"/>
	<path fill-rule="evenodd" clip-rule="evenodd" fill="#7069B0" d="M6.111,111.999c0.508,0.326,1.016,0.652,1.524,0.978
		c-0.445,0.406-0.89,0.812-1.336,1.217C6.235,113.462,6.173,112.73,6.111,111.999z"/>
	<path fill-rule="evenodd" clip-rule="evenodd" fill="#867DBB" d="M41.024,6.201c-0.399,0.235-0.798,0.47-1.197,0.704
		C39.986,6.264,40.378,6.017,41.024,6.201z"/>
	<path fill-rule="evenodd" clip-rule="evenodd" fill="#6762AC" d="M89.006,11.05c0.669,0.006,1.338,0.012,2.007,0.017
		c0.312,0.308,0.622,0.615,0.934,0.923c8.412,22.721,16.811,45.446,25.252,68.156c1.091,2.935,1.06,5.829,0.32,8.805
		c-8.177,32.938-16.306,65.886-23.545,99.046c-0.81,3.707-1.979,7.336-2.981,11.001c-2.476-0.359-1.979-2.296-1.979-3.874
		c0.019-39.123-1.028-79.603-0.994-118.724c1.661,0.093,4.535,1.17,6.046,1.694c5.576,1.931,4.668-0.702,3.433-4.304
		c-3.277-9.558-6.334-19.19-9.479-28.793c1.605-1.476,0.939-3.417,0.951-5.157C89.034,30.244,89.004,20.647,89.006,11.05z"/>
	<path fill-rule="evenodd" clip-rule="evenodd" fill="#8C84BF" d="M88.02,44.998c3.145,9.603,6.201,19.235,9.479,28.793
		c1.235,3.602,2.144,6.234-3.433,4.304c-1.511-0.523-2.862-0.418-4.523-0.511c-2.828-2.786-7.081-2.913-10.639-3.72
		c-4.283-0.971-6.372-2.87-6.039-7.792c0.501-7.414,0.363-14.898,0.019-22.33c-0.196-4.216,1.524-5.181,5.202-4.761
		C82.359,39.469,86.587,39.883,88.02,44.998z"/>
	<path fill-rule="evenodd" clip-rule="evenodd" fill="#8C83BE" d="M38.01,68.082c-10.356-0.507-10.146-0.443-7.18-10.247
		c2.679-8.855,4.831-17.869,7.216-26.813c2.74,0.621,5.452,1.502,8.226,1.795c3.445,0.364,4.142,2.238,3.564,5.146
		c-1.676,8.434-3.542,16.834-5.003,25.305C44.104,67.491,41.851,68.698,38.01,68.082z"/>
	<path fill-rule="evenodd" clip-rule="evenodd" fill="#6A64AD" d="M91.946,11.99c-0.312-0.308-0.622-0.616-0.934-0.923
		C91.324,11.375,91.636,11.683,91.946,11.99z"/>
</g>
</svg>
