<?xml version="1.0" encoding="utf-8"?>
<!-- Generator: Adobe Illustrator 16.0.3, SVG Export Plug-In . SVG Version: 6.00 Build 0)  -->
<!DOCTYPE svg PUBLIC "-//W3C//DTD SVG 1.1//EN" "http://www.w3.org/Graphics/SVG/1.1/DTD/svg11.dtd">
<svg version="1.1" id="Layer_1" xmlns="http://www.w3.org/2000/svg" xmlns:xlink="http://www.w3.org/1999/xlink" x="0px" y="0px"
	 width="110px" height="110px" viewBox="0 0 110 110" enable-background="new 0 0 110 110" xml:space="preserve">
<g>
	<path fill-rule="evenodd" clip-rule="evenodd" fill="#E3E1E1" d="M61.058,2.908C60.988,2.609,60.967,2.306,60.992,2c1,0,2,0,3,0
		c0.012,0.304,0,0.607-0.035,0.909l0.133,0.288C63.079,3.101,62.068,3.004,61.058,2.908z"/>
	<path fill-rule="evenodd" clip-rule="evenodd" fill="#494949" d="M63.957,2.909c3.981,1.067,8.248,1.271,11.728,3.863
		c-2.777,2.385-3.067,5.804-3.765,9.054c-3.288-0.103-6.18-1.677-9.275-2.493c0.409-3.389,0.448-6.831,1.445-10.137L63.957,2.909z"
		/>
	<path fill-rule="evenodd" clip-rule="evenodd" fill="#484848" d="M6.489,75.461c-1.958-3.553-2.955-7.383-3.291-11.403
		c3.445,0.207,6.651-1.389,10.076-1.332c1.345,2.953,1.903,6.127,2.609,9.26C12.446,72.316,9.514,74.014,6.489,75.461z"/>
	<path fill-rule="evenodd" clip-rule="evenodd" fill="#484848" d="M37.934,105.772c-4.297-0.836-8.032-2.796-11.306-5.674
		c2.427-2.332,4.458-4.92,5.372-8.238c3.343,1.268,6.615,2.666,9.352,5.057C38.487,99.203,38.112,102.45,37.934,105.772z"/>
	<path fill-rule="evenodd" clip-rule="evenodd" fill="#484848" d="M98.045,87.996c-2.007,4.079-5.21,7.016-8.982,9.41
		c-1.653-2.874-3.075-5.943-6.331-7.456c2.108-2.711,4.547-5.094,7.21-7.254c1.628,1.523,3.272,3.03,4.878,4.578
		C95.767,88.188,96.909,88.034,98.045,87.996z"/>
	<path fill-rule="evenodd" clip-rule="evenodd" fill="#484848" d="M17.871,93.077c-3.04-2.461-5.402-5.433-6.863-9.087
		c1.3,0.104,2.383-0.195,3.546-0.969c1.806-1.198,3.316-2.998,5.669-3.263c1.65,2.024,3.301,4.047,4.952,6.07
		C23.854,89.368,21.481,91.847,17.871,93.077z"/>
	<path fill-rule="evenodd" clip-rule="evenodd" fill="#727271" d="M105.55,36.94c1.961,3.447,2.487,7.317,3.282,11.109
		c-3.661-0.731-7.1,0.834-10.671,1.032c-0.755-3.004-1.511-6.008-2.267-9.012C99.112,39.026,102.332,37.983,105.55,36.94z"/>
	<path fill-rule="evenodd" clip-rule="evenodd" fill="#484848" d="M107.525,69.004c-0.907,3.923-1.808,7.849-4.354,11.131
		c-2.863-1.727-5.415-4.133-9.061-4.147c0.945-3.178,1.979-6.323,3.637-9.221C101.004,67.529,104.089,69.037,107.525,69.004z"/>
	<path fill-rule="evenodd" clip-rule="evenodd" fill="#494949" d="M80.131,103.176c-3.079,2.109-6.447,3.487-10.148,4.029
		c-1.413-2.954-1.264-6.433-3.094-9.249c2.687-2.108,5.975-2.815,9.1-3.901C76.658,97.418,78.852,100.089,80.131,103.176z"/>
	<path fill-rule="evenodd" clip-rule="evenodd" fill="#727271" d="M107.525,69.004c-3.437,0.033-6.521-1.475-9.777-2.237
		c0.416-2.926,0.831-5.854,1.247-8.779c3.352,0.013,6.703,0.025,10.056,0.038C109.127,61.766,109.064,65.487,107.525,69.004z"/>
	<path fill-rule="evenodd" clip-rule="evenodd" fill="#464646" d="M83.999,10.918c3.659,1.494,6.564,3.976,9.107,6.936
		c-1.952,2.873-4.392,5.26-7.228,7.253c-2.213-2.2-5.243-3.446-7.079-6.084C81.544,16.969,83.316,14.294,83.999,10.918z"/>
	<path fill-rule="evenodd" clip-rule="evenodd" fill="#727272" d="M85.879,25.107c2.836-1.993,5.275-4.38,7.228-7.253
		c3.148,2.336,5.438,5.37,7.186,8.844c-2.779,1.827-5.296,4.072-8.452,5.3C89.853,29.701,87.866,27.404,85.879,25.107z"/>
	<path fill-rule="evenodd" clip-rule="evenodd" fill="#737373" d="M20.224,79.759c-2.353,0.265-3.864,2.064-5.669,3.263
		c-1.163,0.773-2.246,1.073-3.546,0.969c-2.474-2.33-3.711-5.316-4.519-8.529c3.024-1.447,5.957-3.145,9.395-3.476
		C17.463,74.502,19.102,76.986,20.224,79.759z"/>
	<path fill-rule="evenodd" clip-rule="evenodd" fill="#737272" d="M80.131,103.176c-1.279-3.087-3.473-5.758-4.143-9.121
		c2.046-1.7,4.204-3.217,6.743-4.104c3.256,1.513,4.678,4.582,6.331,7.456C86.561,100.064,83.585,101.991,80.131,103.176z"/>
	<path fill-rule="evenodd" clip-rule="evenodd" fill="#464646" d="M91.84,31.999c3.156-1.228,5.673-3.473,8.452-5.3
		c2.564,2.998,4.19,6.477,5.258,10.242c-3.218,1.042-6.438,2.085-9.655,3.129C94.543,37.379,93.191,34.688,91.84,31.999z"/>
	<path fill-rule="evenodd" clip-rule="evenodd" fill="#464646" d="M58.944,108.942c-3.629,0.429-7.245,0.33-10.851-0.257
		c-0.603-3.574,1.464-6.89,1.005-10.45c3.006,0.232,6.013,0.466,9.021,0.698C58.511,102.261,59.198,105.562,58.944,108.942z"/>
	<path fill-rule="evenodd" clip-rule="evenodd" fill="#727272" d="M94.111,75.987c3.646,0.015,6.197,2.421,9.061,4.147
		c-1.061,3.042-2.546,5.81-5.127,7.861c-1.136,0.038-2.278,0.191-3.226-0.722c-1.605-1.548-3.25-3.055-4.878-4.578
		C90.904,80.195,92.322,77.977,94.111,75.987z"/>
	<path fill-rule="evenodd" clip-rule="evenodd" fill="#A0A0A0" d="M58.944,108.942c0.254-3.381-0.434-6.682-0.825-10.009
		c2.932-0.245,5.767-1.37,8.77-0.978c1.83,2.816,1.681,6.295,3.094,9.249C66.421,108.533,62.758,109.212,58.944,108.942z"/>
	<path fill-rule="evenodd" clip-rule="evenodd" fill="#737272" d="M17.871,93.077c3.611-1.23,5.983-3.709,7.305-7.248
		C27.45,87.84,29.725,89.85,32,91.86c-0.915,3.318-2.945,5.906-5.372,8.238C23.087,98.532,20.241,96.102,17.871,93.077z"/>
	<path fill-rule="evenodd" clip-rule="evenodd" fill="#727272" d="M49.099,98.235c0.459,3.561-1.608,6.876-1.005,10.45
		c-3.505-0.556-7.081-0.868-10.16-2.913c0.178-3.322,0.553-6.569,3.417-8.855C44.082,96.486,46.492,97.937,49.099,98.235z"/>
	<path fill-rule="evenodd" clip-rule="evenodd" fill="#737373" d="M83.999,10.918c-0.683,3.376-2.455,6.051-5.199,8.105
		c-2.55-0.515-4.685-1.919-6.88-3.197c0.697-3.25,0.987-6.669,3.765-9.054C78.913,7.236,81.781,8.426,83.999,10.918z"/>
	<path fill-rule="evenodd" clip-rule="evenodd" fill="#454545" d="M109.051,58.025c-3.353-0.013-6.704-0.025-10.056-0.038
		c-0.154-2.98-0.091-5.981-0.834-8.906c3.571-0.197,7.01-1.763,10.671-1.032C109.142,51.369,109.346,54.691,109.051,58.025z"/>
	<path fill-rule="evenodd" clip-rule="evenodd" fill="#717171" d="M13.275,62.726c-3.425-0.057-6.631,1.539-10.076,1.332
		c-0.096-0.668-0.191-1.337-0.286-2.005c0.05-3.032,0.101-6.064,0.151-9.096c3.194,1.244,6.53,1.079,9.857,0.994
		C13.04,56.875,13.157,59.8,13.275,62.726z"/>
	<path fill-rule="evenodd" clip-rule="evenodd" fill="#737272" d="M4.121,43.037c1.123-4.239,2.181-8.503,4.785-12.159
		c2.41,2.795,5.16,4.985,9.075,5.104c-1.236,3.003-2.473,6.006-3.708,9.01C10.958,43.975,7.71,42.621,4.121,43.037z"/>
	<path fill-rule="evenodd" clip-rule="evenodd" fill="#484848" d="M17.98,35.983c-3.915-0.119-6.665-2.31-9.075-5.104
		c1.169-2.97,3.033-5.49,5.104-7.875c3.263,1.334,6.157,3.158,8.166,6.157C20.777,31.434,19.378,33.708,17.98,35.983z"/>
	<path fill-rule="evenodd" clip-rule="evenodd" fill="#484848" d="M22.968,13.952c2.407-2.036,4.892-3.947,7.879-5.083
		c2.906,2.344,4.092,5.657,5.108,9.067c-2.255,1.429-4.511,2.859-6.766,4.288C26.368,20.028,23.489,17.876,22.968,13.952z"/>
	<path fill-rule="evenodd" clip-rule="evenodd" fill="#484848" d="M4.121,43.037c3.589-0.416,6.838,0.938,10.151,1.956
		c-0.45,2.985-0.9,5.971-1.35,8.957c-3.328,0.085-6.664,0.25-9.857-0.994c-0.066-1.008-0.132-2.016-0.198-3.024
		C2.838,47.553,3.491,45.297,4.121,43.037z"/>
	<path fill-rule="evenodd" clip-rule="evenodd" fill="#737373" d="M35.955,17.936c-1.016-3.41-2.202-6.723-5.108-9.067
		c3.359-2.349,7.12-3.65,11.143-4.262c1.019,3.389,2.374,6.715,1.975,10.375C41.1,15.437,38.567,16.795,35.955,17.936z"/>
	<path fill-rule="evenodd" clip-rule="evenodd" fill="#717171" d="M22.968,13.952c0.521,3.925,3.4,6.077,6.221,8.272
		c-2.338,2.312-4.676,4.624-7.013,6.936c-2.008-2.999-4.902-4.823-8.166-6.157C16.484,19.48,19.539,16.53,22.968,13.952z"/>
	<path fill-rule="evenodd" clip-rule="evenodd" fill="#A2A1A1" d="M43.965,14.981c0.398-3.66-0.956-6.985-1.975-10.375
		c2.491-1.327,5.168-1.76,7.956-1.672c0.992-0.016,1.984-0.032,2.977-0.048l0.129,0.198c0.021,3.271,0.041,6.541,0.062,9.812
		C49.93,13.002,46.917,13.862,43.965,14.981z"/>
	<path fill-rule="evenodd" clip-rule="evenodd" fill="#727271" d="M53.113,12.896c-0.021-3.271-0.041-6.541-0.062-9.812
		c2.668-0.059,5.338-0.118,8.006-0.176c1.011,0.096,2.021,0.192,3.032,0.289c-0.997,3.306-1.036,6.748-1.445,10.137
		C59.467,13.188,56.29,13.042,53.113,12.896z"/>
	<path fill-rule="evenodd" clip-rule="evenodd" fill="#6C6C6C" d="M62.105,19.111c3.708,0.401,7.076,1.929,10.489,3.263
		c1.115,0.436,2.572,0.819,2.586,2.519c-1.761,2.694-4.595,4.698-5.222,8.122c-2.809-1.684-5.875-2.767-8.939-3.858
		C60.804,25.746,62.495,22.541,62.105,19.111z"/>
	<path fill-rule="evenodd" clip-rule="evenodd" fill="#6C6C6C" d="M49.86,92.845c-5.012-0.96-9.761-2.542-13.776-5.851
		c2.912-1.602,3.791-4.938,6.052-7.093c1.63,0.096,3.266-0.002,4.734,1.033c1.223,0.862,2.67,1.223,4.196,1.13
		C49.865,85.569,50.027,89.227,49.86,92.845z"/>
	<path fill-rule="evenodd" clip-rule="evenodd" fill="#6B6B6B" d="M78.998,27.885c0.82-0.005,1.578,0.102,2.218,0.728
		c3.086,3.021,6.168,6.038,7.629,10.265c-1.919-0.111-3.424,0.967-5.047,1.728c-1.466,0.687-2.84,1.712-4.612,1.428
		c-1.739-2.061-3.479-4.122-5.219-6.183C75.084,32.842,78.114,31.042,78.998,27.885z"/>
	<path fill-rule="evenodd" clip-rule="evenodd" fill="#6C6C6C" d="M27.928,32.997c-0.309-1.773,1.036-2.636,2.057-3.638
		c2.645-2.598,5.146-5.418,8.999-6.292c0.259,3.25,2.579,5.813,3.002,9.007c-1.948,2.667-4.353,4.883-6.884,6.974
		C34.115,35.365,30.841,34.395,27.928,32.997z"/>
	<path fill-rule="evenodd" clip-rule="evenodd" fill="#6C6C6C" d="M84.115,80.042c-2.924,3.89-6.608,6.831-11.038,8.843
		c-0.284-3.483-3.158-6.136-3.12-9.723c2.022-1.726,4.044-3.451,6.064-5.176C78.652,76.095,82.002,77.241,84.115,80.042z"/>
	<path fill-rule="evenodd" clip-rule="evenodd" fill="#6C6C6C" d="M32.997,84.039c-4.822-2.22-8.251-5.622-9.343-11.008
		c3.041-1.068,5.638-3.411,9.132-3.178c1.285,2.445,4.016,3.673,5.217,6.188C36.705,78.939,33.567,80.686,32.997,84.039z"/>
	<path fill-rule="evenodd" clip-rule="evenodd" fill="#6C6C6C" d="M19.797,50.03c-0.103-4.84,1.167-9.246,4.162-13.103
		c3.405,0.655,5.417,3.481,8.128,5.215c-0.403,3.115-1.498,6.006-2.85,8.814C26.206,49.47,22.964,50.128,19.797,50.03z"/>
	<path fill-rule="evenodd" clip-rule="evenodd" fill="#6C6C6C" d="M92.178,61.958c0.229,4.866-2.052,8.927-4.188,13.032
		c-3.43-0.614-5.421-3.467-8.121-5.215c0.107-1.623,0.07-3.254,1.083-4.699c0.861-1.229,1.181-2.67,1.139-4.178
		C85.481,60.981,88.716,62.559,92.178,61.958z"/>
	<path fill-rule="evenodd" clip-rule="evenodd" fill="#6B6B6B" d="M20.932,68.087c-2.313-4.121-2.082-8.621-1.945-13.106
		c3.382-0.177,6.563,1.663,9.994,0.994c-0.116,3.193,1.029,6.114,1.964,9.081C27.204,64.736,24.385,67.457,20.932,68.087z"/>
	<path fill-rule="evenodd" clip-rule="evenodd" fill="#6C6C6C" d="M67.997,90.994c-4.146,1.814-8.49,2.325-12.967,1.96
		c-0.247-3.382,1.606-6.559,0.979-9.979c2.845-1.358,6.218-0.312,8.994-1.979C64.738,84.707,67.475,87.52,67.997,90.994z"/>
	<path fill-rule="evenodd" clip-rule="evenodd" fill="#6B6B6B" d="M91.058,43.895c1.882,4.169,2.197,8.564,1.887,13.049
		c-3.235-1.246-6.625-0.898-9.975-0.977c-1.362-2.799-0.799-5.839-1.094-8.771C85.016,46.318,87.791,44.422,91.058,43.895z"/>
	<path fill-rule="evenodd" clip-rule="evenodd" fill="#6C6C6C" d="M43.838,20.897c4.16-2.225,8.664-2.076,13.17-1.912
		c-1.224,3.243-1.091,6.622-0.998,9.996c-3.035-0.362-5.791,1.464-8.823,1.127C46.071,27.038,44.955,23.968,43.838,20.897z"/>
	<path fill-rule="evenodd" clip-rule="evenodd" fill="#959595" d="M67.997,90.994c-0.522-3.475-3.259-6.287-2.994-9.997
		c1.681-0.531,2.99-2.067,4.954-1.835c-0.038,3.587,2.836,6.239,3.12,9.723C71.388,89.597,69.984,90.997,67.997,90.994z"/>
	<path fill-rule="evenodd" clip-rule="evenodd" fill="#959595" d="M91.058,43.895c-3.267,0.527-6.042,2.423-9.182,3.302
		c-1.725-1.29-2.533-3.056-2.69-5.163c1.772,0.284,3.146-0.741,4.612-1.428c1.623-0.761,3.128-1.839,5.047-1.728
		C89.597,40.544,90.93,41.954,91.058,43.895z"/>
	<path fill-rule="evenodd" clip-rule="evenodd" fill="#969595" d="M20.932,68.087c3.453-0.63,6.272-3.351,10.013-3.031
		c-0.261,1.935,2.251,2.806,1.841,4.798c-3.494-0.233-6.091,2.109-9.132,3.178C21.065,72.31,21.084,70.151,20.932,68.087z"/>
	<path fill-rule="evenodd" clip-rule="evenodd" fill="#969595" d="M43.838,20.897c1.117,3.07,2.233,6.141,3.35,9.211
		c-1.458,1.389-3.19,2.048-5.203,1.965c-0.423-3.195-2.743-5.758-3.002-9.007C40.078,21.17,41.961,21.042,43.838,20.897z"/>
	<path fill-rule="evenodd" clip-rule="evenodd" fill="#969595" d="M79.868,69.775c2.7,1.748,4.691,4.601,8.121,5.215
		c-1.359,1.632-1.86,3.921-3.874,5.052c-2.113-2.801-5.463-3.947-8.094-6.056C77.185,72.474,77.628,70.304,79.868,69.775z"/>
	<path fill-rule="evenodd" clip-rule="evenodd" fill="#959595" d="M82.97,55.968c3.35,0.078,6.739-0.27,9.975,0.977
		c-0.27,1.67,0.786,3.541-0.767,5.014c-3.462,0.601-6.696-0.977-10.088-1.06C82.068,59.198,83.27,57.718,82.97,55.968z"/>
	<path fill-rule="evenodd" clip-rule="evenodd" fill="#959595" d="M78.998,27.885c-0.884,3.157-3.914,4.958-5.031,7.966
		c-1.336-0.945-2.672-1.891-4.008-2.836c0.627-3.423,3.461-5.428,5.222-8.122C77.184,24.958,79.015,25.243,78.998,27.885z"/>
	<path fill-rule="evenodd" clip-rule="evenodd" fill="#969595" d="M32.087,42.142c-2.712-1.734-4.724-4.56-8.128-5.215
		c1.138-1.497,1.178-4.103,3.969-3.931c2.913,1.398,6.187,2.368,7.173,6.051C34.309,40.286,33.458,41.467,32.087,42.142z"/>
	<path fill-rule="evenodd" clip-rule="evenodd" fill="#969595" d="M32.997,84.039c0.57-3.354,3.708-5.1,5.006-7.998
		c1.495,1.161,3.695,1.568,4.133,3.86c-2.262,2.155-3.141,5.491-6.052,7.093C34.854,86.218,32.848,86.255,32.997,84.039z"/>
	<path fill-rule="evenodd" clip-rule="evenodd" fill="#969595" d="M56.009,82.976c0.628,3.42-1.226,6.597-0.979,9.979
		c-1.724-0.036-3.446-0.072-5.17-0.109c0.167-3.618,0.005-7.275,1.206-10.78C52.602,82.977,54.324,82.875,56.009,82.976z"/>
	<path fill-rule="evenodd" clip-rule="evenodd" fill="#959595" d="M28.981,55.975c-3.431,0.669-6.612-1.171-9.994-0.994
		c0.346-1.638-0.748-3.511,0.81-4.951c3.167,0.099,6.409-0.56,9.44,0.926C29.152,52.629,29.066,54.302,28.981,55.975z"/>
	<path fill-rule="evenodd" clip-rule="evenodd" fill="#979797" d="M56.011,28.981c-0.093-3.375-0.226-6.753,0.998-9.996
		c1.699,0.042,3.397,0.084,5.097,0.126c0.39,3.43-1.302,6.635-1.086,10.045C59.35,29.098,57.681,29.04,56.011,28.981z"/>
	<path fill-rule="evenodd" clip-rule="evenodd" fill="#4A4A4B" d="M56.011,28.981c1.67,0.059,3.339,0.117,5.009,0.175
		c3.064,1.091,6.131,2.174,8.939,3.858c1.336,0.945,2.672,1.891,4.008,2.836c1.739,2.061,3.479,4.123,5.219,6.183
		c0.157,2.107,0.966,3.873,2.69,5.163c0.295,2.932-0.269,5.972,1.094,8.771c0.3,1.75-0.901,3.23-0.88,4.931
		c0.042,1.508-0.277,2.948-1.139,4.178c-1.013,1.445-0.976,3.076-1.083,4.699c-2.24,0.528-2.684,2.698-3.847,4.211
		c-2.021,1.725-4.042,3.45-6.064,5.176c-1.964-0.232-3.273,1.304-4.954,1.835c-2.776,1.667-6.149,0.62-8.994,1.979
		c-1.685-0.101-3.407,0.001-4.943-0.911c-1.526,0.093-2.973-0.268-4.196-1.13c-1.468-1.035-3.104-0.938-4.734-1.033
		c-0.438-2.292-2.638-2.699-4.133-3.86c-1.202-2.515-3.933-3.742-5.217-6.188c0.41-1.992-2.102-2.863-1.841-4.798
		c-0.935-2.967-2.08-5.888-1.964-9.081c0.085-1.673,0.171-3.346,0.256-5.019c1.353-2.808,2.447-5.699,2.85-8.814
		c1.371-0.675,2.221-1.856,3.014-3.095c2.531-2.091,4.936-4.308,6.884-6.974c2.013,0.083,3.746-0.576,5.203-1.965
		C50.22,30.445,52.976,28.62,56.011,28.981z M46.118,45.809c-0.086-0.821-0.241-1.584-0.848-2.241
		c-1.362-1.471-2.949-2.193-4.813-1.205c-1.5,0.796-2.65,2.044-2.417,3.942c0.248,2.026,1.535,3.193,3.477,3.606
		c0.796,0.169,1.634,0.139,2.454,0.199c2.046,2.016,4.234,3.844,6.808,5.164c0.037,1.233,0.074,2.467,0.111,3.698
		c-2.164,1.334-3.305,3.379-3.991,5.74c-1.16,0.609-2.469,1.042-3.442,1.87c-1.341,1.14-1.896,2.822-1.309,4.528
		c0.602,1.75,2.256,2.438,3.923,2.674c1.703,0.24,2.724-0.99,3.542-2.3c0.66-1.056,0.278-2.279,0.443-3.417
		c2.344-1.842,3.463-4.588,5.116-6.94c1.274-0.05,2.549-0.1,3.823-0.149c1.722,2.485,4.581,3.464,6.877,5.188
		c0.082,0.827,0.271,1.583,0.89,2.226c1.241,1.287,2.704,2.061,4.409,1.298c1.781-0.796,2.826-2.429,2.617-4.347
		c-0.185-1.697-1.348-2.985-3.169-3.337c-0.8-0.153-1.639-0.107-2.46-0.152c-1.872-2.327-4.343-3.837-6.987-5.11
		c-0.071-1.252-0.143-2.504-0.215-3.756c1.958-2.127,3.778-4.357,5.157-6.916c0.823-0.074,1.543-0.338,2.2-0.896
		c1.53-1.301,2.245-2.869,1.282-4.726c-0.774-1.493-2.029-2.602-3.905-2.386c-1.982,0.228-3.235,1.397-3.664,3.336
		c-0.174,0.784-0.118,1.618-0.167,2.43c-2.465,1.745-3.711,4.415-5.221,6.884c-1.212,0.074-2.424,0.147-3.636,0.221
		C50.998,48.839,48.783,47.022,46.118,45.809z"/>
	<path fill-rule="evenodd" clip-rule="evenodd" fill="#BFBEBE" d="M60.956,52.989c0.072,1.252,0.144,2.504,0.215,3.756
		c0.294,1.936-1.686,2.702-2.177,4.234c-1.274,0.05-2.549,0.1-3.823,0.149c-1.979,0.377-2.672-1.799-4.282-2.155
		c-0.037-1.231-0.074-2.465-0.111-3.698c-0.151-1.904,1.665-2.798,2.225-4.337c1.211-0.074,2.424-0.147,3.636-0.221
		C58.498,50.676,59.476,52.31,60.956,52.989z"/>
	<path fill-rule="evenodd" clip-rule="evenodd" fill="#BAB9B9" d="M50.055,68.069c-0.166,1.138,0.217,2.361-0.443,3.417
		c-0.818,1.31-1.839,2.54-3.542,2.3c-1.667-0.236-3.321-0.924-3.923-2.674c-0.587-1.706-0.032-3.389,1.309-4.528
		c0.974-0.828,2.283-1.261,3.442-1.87C47.28,66.463,49.828,66.175,50.055,68.069z"/>
	<path fill-rule="evenodd" clip-rule="evenodd" fill="#BAB9B9" d="M61.859,43.833c0.049-0.812-0.007-1.646,0.167-2.43
		c0.429-1.939,1.682-3.108,3.664-3.336c1.876-0.216,3.131,0.893,3.905,2.386c0.963,1.856,0.248,3.424-1.282,4.726
		c-0.657,0.558-1.377,0.821-2.2,0.896C64.284,46.107,62.568,45.925,61.859,43.833z"/>
	<path fill-rule="evenodd" clip-rule="evenodd" fill="#BAB9B9" d="M68.158,61.855c0.821,0.045,1.66-0.001,2.46,0.152
		c1.821,0.352,2.984,1.64,3.169,3.337c0.209,1.918-0.836,3.551-2.617,4.347c-1.705,0.763-3.168-0.011-4.409-1.298
		c-0.619-0.643-0.808-1.398-0.89-2.226C65.898,64.34,66.034,62.57,68.158,61.855z"/>
	<path fill-rule="evenodd" clip-rule="evenodd" fill="#BAB9B9" d="M43.97,50.112c-0.819-0.06-1.658-0.03-2.454-0.199
		c-1.942-0.414-3.229-1.581-3.477-3.606c-0.233-1.898,0.917-3.146,2.417-3.942c1.864-0.989,3.451-0.267,4.813,1.205
		c0.607,0.657,0.762,1.42,0.848,2.241C46.531,47.807,44.334,48.502,43.97,50.112z"/>
	<path fill-rule="evenodd" clip-rule="evenodd" fill="#9C9C9C" d="M43.97,50.112c0.364-1.609,2.561-2.305,2.147-4.303
		c2.665,1.213,4.88,3.03,6.885,5.129c-0.56,1.54-2.376,2.434-2.225,4.337C48.205,53.956,46.016,52.127,43.97,50.112z"/>
	<path fill-rule="evenodd" clip-rule="evenodd" fill="#9E9D9D" d="M68.158,61.855c-2.124,0.715-2.26,2.484-2.287,4.313
		c-2.296-1.725-5.155-2.703-6.877-5.188c0.491-1.532,2.471-2.299,2.177-4.234C63.815,58.019,66.286,59.528,68.158,61.855z"/>
	<path fill-rule="evenodd" clip-rule="evenodd" fill="#9E9D9D" d="M61.859,43.833c0.709,2.092,2.425,2.275,4.254,2.241
		c-1.379,2.559-3.199,4.789-5.157,6.916c-1.48-0.679-2.458-2.313-4.317-2.272C58.148,48.247,59.395,45.578,61.859,43.833z"/>
	<path fill-rule="evenodd" clip-rule="evenodd" fill="#9C9C9C" d="M50.055,68.069c-0.227-1.895-2.775-1.606-3.157-3.355
		c0.687-2.361,1.827-4.406,3.991-5.74c1.609,0.356,2.303,2.532,4.282,2.155C53.519,63.481,52.399,66.228,50.055,68.069z"/>
</g>
</svg>
