<?xml version="1.0" encoding="utf-8"?>
<!-- Generator: Adobe Illustrator 16.0.3, SVG Export Plug-In . SVG Version: 6.00 Build 0)  -->
<!DOCTYPE svg PUBLIC "-//W3C//DTD SVG 1.1//EN" "http://www.w3.org/Graphics/SVG/1.1/DTD/svg11.dtd">
<svg version="1.1" id="Layer_1" xmlns="http://www.w3.org/2000/svg" xmlns:xlink="http://www.w3.org/1999/xlink" x="0px" y="0px"
	 width="125px" height="115px" viewBox="0 0 125 115" enable-background="new 0 0 125 115" xml:space="preserve">
<g>
	<path fill-rule="evenodd" clip-rule="evenodd" fill="#F4A16F" d="M99.714,87.349c-7.568,10.274-14.282,21.13-28.604,23.813
		c-11.427,2.142-20.802-0.098-26.891-9.953c-6.534-10.576-12.518-21.83-14.531-34.404c0.369-0.32,0.8-0.807,1.168-1.127
		c1.66-0.381,3.474-0.472,5.134-0.852c1.698-0.596,3.396-1.191,5.094-1.787c1.306-0.399,2.611-0.798,3.917-1.197
		c1.677-0.585,3.354-1.17,5.03-1.756c1.69-0.68,3.381-1.357,5.071-2.037c1.318-0.629,2.635-1.259,3.953-1.889
		c4.984-2.716,9.967-5.432,14.951-8.147c0.968,0.07,1.936,0.14,2.903,0.21c1.385,2.629,2.769,5.258,4.153,7.887
		c0.323,2.962,0.646,5.924,0.969,8.886c-3.936,0.475-5.362-3.491-8.434-4.729C58.32,54.109,45.112,64.987,45,84.001
		c0.666,0.666,1.332,1.333,1.998,1.999c0.431,5.062,2.33,8.967,7.875,10.001c0.087,1.933-0.202,4.062,2.477,4.606
		c3.103,0.631,6.164,1.067,8.595-1.696C78.264,98.52,83.4,88.591,90.09,80.725c2.271,0.481,4.542,0.964,6.813,1.445
		C97.84,83.896,98.776,85.622,99.714,87.349z"/>
	<path fill-rule="evenodd" clip-rule="evenodd" fill="#63A2D6" d="M96.903,82.17c-2.271-0.481-4.543-0.964-6.813-1.445
		c-0.527-0.922-1.055-1.844-1.582-2.766c-2.159-4.321-4.317-8.642-6.477-12.963c-0.323-2.962-0.646-5.924-0.969-8.886
		c3.319-7.687,3.311-14.893-3.05-21.186c-0.282-0.317-0.564-0.634-0.847-0.951l-0.104-0.137c-0.028-2.145-0.638-3.792-3.214-3.759
		c-1.277-1.046-2.555-2.092-3.833-3.138c-0.715-0.865-1.43-1.731-2.145-2.596l-0.353-0.327c-0.262-0.056-0.441-0.208-0.541-0.456
		c-0.182-0.268-0.423-0.462-0.724-0.582c-1.425-0.623-2.85-1.246-4.274-1.868c-1.044-0.572-2.088-1.144-3.133-1.715
		c-0.198-0.228-0.447-0.365-0.746-0.415c-0.716-0.078-1.431-0.156-2.146-0.234c-0.917-0.254-1.834-0.509-2.751-0.763
		c-0.224-0.265-0.315-0.569-0.273-0.914c3.62-4.261,7.958-1.971,12.116-1.326c0.587,2.051,2.164,2.344,3.967,2.236
		c0.357,0.167,0.715,0.334,1.071,0.5c0.158,0.264,0.385,0.442,0.679,0.535c0.422,0.32,0.843,0.641,1.265,0.961
		c2.498,4.884,6.014,8.732,11.146,10.931c1.277,1.383,2.555,2.766,3.832,4.149c-0.083,2.148,0.446,3.817,3.032,3.878l0.029,0.046
		c-0.116,1.42-0.097,2.763,1.759,3.044c0.976,1.583,1.717,3.445,4.053,3.411c1.955,1.915,3.91,3.829,5.865,5.743
		c4.525,7.786,6.596,16.096,5.372,25.111c-0.765,1.087-1.53,2.174-2.296,3.256C102.181,80.416,99.542,81.293,96.903,82.17z"/>
	<path fill-rule="evenodd" clip-rule="evenodd" fill="#452862" d="M107.115,76.375c1.224-9.014-0.926-17.402-5.451-25.189
		c0.746-1.191,2.063-2.234,2.243-3.506c2.175-15.313-13.163-36.055-28.289-38.617c4.137-5.988,9.657-3.189,14.455-1.726
		c6.456,1.969,11.703,5.868,12.678,13.157c0.396,2.962,1.5,4.54,4.248,5.184c1.957,8.136,3.914,16.271,5.872,24.407
		C111.115,58.885,113.634,68.619,107.115,76.375z"/>
	<path fill-rule="evenodd" clip-rule="evenodd" fill="#462665" d="M75.714,8.899c15.126,2.562,30.576,23.382,28.401,38.695
		c-0.181,1.271-1.626,2.392-2.372,3.583c-1.955-1.914-3.91-3.828-5.865-5.743c0.553-14.779-7.406-24.507-26.045-31.836
		C71.793,12.032,73.754,10.465,75.714,8.899z"/>
	<path fill-rule="evenodd" clip-rule="evenodd" fill="#482767" d="M36.382,64.688c-1.66,0.38-3.713,0.897-5.373,1.278
		c-5.467-10.174-5.295-21.06-4.048-32.081c0.387-1.627,0.775-3.255,1.162-4.883c1.305-1.198,2.793-2.25,3.883-3.619
		c4.346-5.462,8.462-11.16,16.051-12.405c0.661,0.979,1.322,1.959,1.983,2.939c-4.327,3.988-9.373,7.437-12.84,12.068
		C28.394,39.752,30.71,52.199,36.382,64.688z"/>
	<path fill-rule="evenodd" clip-rule="evenodd" fill="#4C296C" d="M35.99,64.826c-5.672-12.489-7.596-25.074,1.211-36.839
		c3.467-4.631,8.514-8.081,12.84-12.068c0.963,0.383,1.927,0.767,2.89,1.15c-0.042,0.344,0.048,0.648,0.272,0.913
		c-0.051,0.246-0.078,0.495-0.081,0.746c-0.313,2.949-3.163,3.228-4.959,4.445c-13.286,9.006-16.287,26.739-6.852,39.796
		C39.612,63.564,37.688,64.23,35.99,64.826z"/>
	<path fill-rule="evenodd" clip-rule="evenodd" fill="#4B2A6D" d="M69.833,13.598c18.639,7.329,26.598,17.058,26.045,31.836
		c-2.336,0.034-3.077-1.828-4.053-3.411c-0.586-1.015-1.172-2.03-1.759-3.044l-0.029-0.046c-1.011-1.292-2.021-2.585-3.032-3.878
		c-1.277-1.383-2.555-2.766-3.832-4.148c-3.089-4.283-6.375-8.364-11.146-10.932c-0.422-0.32-0.843-0.641-1.264-0.96
		c-0.227-0.178-0.453-0.357-0.68-0.536c-0.356-0.167-0.714-0.333-1.071-0.5c-1.027-0.729-2.055-1.457-3.083-2.186
		C67.231,15.061,68.532,14.33,69.833,13.598z"/>
	<path fill-rule="evenodd" clip-rule="evenodd" fill="#41245B" d="M112.851,50.101c-1.958-8.135-3.989-16.397-5.946-24.533
		c6.582-4.593,10.155,0.668,13.432,4.717c3.38,4.177,2.335,8.614-1.275,12.457C116.881,45.06,113.63,46.588,112.851,50.101z"/>
	<path fill-rule="evenodd" clip-rule="evenodd" fill="#41245B" d="M17.167,63.199c-6.768-4.445-10.7-11.139-11.788-18.734
		c-1.036-7.225,3.733-10.847,10.83-11.278C14.502,43.255,15.985,53.22,17.167,63.199z"/>
	<path fill-rule="evenodd" clip-rule="evenodd" fill="#43245F" d="M16.936,63.199C15.753,53.22,14.294,43.25,16,33.182
		c2.331,0.046,4.877,0.093,7.208,0.139c-3.904,11.398-0.532,22.37,1.996,33.382C20.318,66.842,21.52,67.395,16.936,63.199z"/>
	<path fill-rule="evenodd" clip-rule="evenodd" fill="#462663" d="M24.995,66.693c-2.528-11.012-5.906-21.974-2.002-33.372
		c1.323,0.188,3.018,0.157,4.341,0.346c-1.247,11.021-1.513,22.061,3.954,32.235c-0.368,0.32-1.015,0.706-1.384,1.026
		C28.268,66.851,26.631,66.772,24.995,66.693z"/>
	<path fill-rule="evenodd" clip-rule="evenodd" fill="#4B2C66" d="M48.211,13.207c-7.589,1.245-11.858,6.715-16.205,12.177
		c-1.089,1.369-2.409,2.668-3.714,3.866c-1.873-7.547,7.36-19.996,15.242-20.304C46.408,8.833,47.953,10.46,48.211,13.207z"/>
	<path fill-rule="evenodd" clip-rule="evenodd" fill="#4E386B" d="M96.903,82.17c2.639-0.877,5.277-1.754,7.916-2.626
		c-0.369,3.479-1.349,6.554-5.109,7.804C98.776,85.622,97.84,83.896,96.903,82.17z"/>
	<path fill-rule="evenodd" clip-rule="evenodd" fill="#5F99D1" d="M65.93,15.792c1.028,0.729,2.056,1.458,3.083,2.186
		c-1.803,0.108-3.38-0.185-3.967-2.236C65.347,15.646,65.642,15.663,65.93,15.792z"/>
	<path fill-rule="evenodd" clip-rule="evenodd" fill="#F6A673" d="M82.031,64.996c2.159,4.321,4.317,8.642,6.476,12.962
		c-4.475,4.463-8.947,8.927-13.421,13.388c0.521-1.172,0.929-2.408,1.58-3.501c3.629-6.089,3.645-12.205-1.026-17.508
		c-4.422-5.021-10.366-5.978-16.324-2.9c-5.748,2.969-6.815,7.284-6.195,14.271c0.542,6.109,5.105,7.915,6.873,12.145
		c-1.707,0.717-3.413,1.434-5.12,2.149c-5.545-1.034-7.444-4.939-7.875-10.001c-0.666-0.666-1.332-1.333-1.998-1.999
		c0.112-19.014,13.32-29.892,28.598-23.734C76.669,61.505,78.096,65.471,82.031,64.996z"/>
	<path fill-rule="evenodd" clip-rule="evenodd" fill="#552D79" d="M78.117,34.924c6.359,6.293,6.369,13.5,3.049,21.186
		c-1.385-2.628-2.984-5.34-4.369-7.969c0.643-7.072-2.695-11.636-8.807-14.233c-6.779-2.88-12.11,0.315-15.779,5.723
		c-4.578,6.749-1.493,12.835,2.995,18.418c-1.69,0.68-3.381,1.357-5.071,2.037c-0.272-0.766-0.615-1.69-1.062-2.336
		c-4.475-6.455-4.693-13.619-1.406-20.313c3.408-6.94,9.864-9.505,17.562-8.75c1.746,0.171,4.246,1.203,4.891-1.75
		c1.279,1.046,2.557,2.092,3.834,3.138c1.07,1.253,2.143,2.506,3.213,3.759l0.104,0.137C77.553,34.29,77.834,34.607,78.117,34.924z"
		/>
	<path fill-rule="evenodd" clip-rule="evenodd" fill="#522C75" d="M70.188,26.995c-0.645,2.952-3.254,2.111-4.999,1.939
		c-7.699-0.755-13.949,1.793-17.357,8.733c-3.287,6.693-3.118,13.682,1.357,20.136c0.447,0.646,0.672,1.517,0.945,2.282
		c-1.677,0.586-3.458,1.171-5.134,1.756c-0.181-0.632-0.4-1.27-0.667-1.862c-8.262-18.359-3.761-29.206,14.958-36.42
		c1.057-0.408,1.811-1.578,2.688-2.45c1.425,0.623,2.85,1.246,4.273,1.868c0.241,0.194,0.483,0.388,0.725,0.583
		c0.1,0.248,0.279,0.4,0.539,0.455c-0.002-0.001,0.058,0.299,0.058,0.299l0.297,0.029C68.586,25.207,69.474,26.13,70.188,26.995z"/>
	<path fill-rule="evenodd" clip-rule="evenodd" fill="#4F2A70" d="M61.979,21.109c-0.877,0.873-1.599,2.15-2.656,2.558
		c-18.719,7.215-23.138,17.926-14.876,36.285c0.267,0.593,0.372,1.258,0.553,1.89c-1.305,0.399-2.611,0.798-3.917,1.197
		c-9.435-13.057-6.313-30.908,6.974-39.914c1.796-1.217,4.751-1.448,5.064-4.397c0.944,0.006,1.888,0.012,2.833,0.017
		c0.715,0.078,1.431,0.156,2.146,0.234c0.146,0.346,0.396,0.484,0.746,0.415C59.891,19.965,60.936,20.537,61.979,21.109z"/>
	<path fill-rule="evenodd" clip-rule="evenodd" fill="#5B2E80" d="M74.006,48.013c-4.983,2.715-9.967,5.431-14.951,8.147
		c-0.906-1.531-2.072-2.979-2.868-4.566c-2.339-4.666-2.346-9.382,2.406-12.344c4.216-2.627,9.06-2.191,12.25,2.094
		C72.291,43.288,72.892,45.821,74.006,48.013z"/>
	<path fill-rule="evenodd" clip-rule="evenodd" fill="#582D7C" d="M74.006,48.013c-1.114-2.192-1.952-4.589-3.399-6.533
		c-3.19-4.285-7.671-4.786-11.887-2.159c-4.752,2.962-4.703,7.569-2.364,12.235c0.795,1.587,1.793,3.072,2.699,4.603
		c-1.318,0.629-2.635,1.259-3.953,1.889c-4.488-5.583-7.711-11.827-3.133-18.576c3.669-5.408,9.222-8.666,16-5.786
		c6.112,2.597,9.584,7.464,8.94,14.536C75.941,48.153,74.974,48.083,74.006,48.013z"/>
	<path fill-rule="evenodd" clip-rule="evenodd" fill="#A499B1" d="M75.086,91.348c4.474-4.463,8.946-8.927,13.421-13.39
		c0.528,0.923,1.056,1.845,1.583,2.767C83.4,88.591,78.264,98.52,65.945,98.911c-0.33-1.286-0.66-2.572-0.989-3.858
		C68.847,95.223,72.25,94.063,75.086,91.348z"/>
	<path fill-rule="evenodd" clip-rule="evenodd" fill="#75A2D1" d="M64.956,95.053c0.329,1.286,0.659,2.572,0.989,3.858
		c-2.432,2.764-5.493,2.327-8.596,1.696c-2.679-0.545-2.39-2.674-2.477-4.606c1.707-0.716,3.413-1.433,5.12-2.148
		C61.647,94.252,63.302,94.652,64.956,95.053z"/>
	<path fill-rule="evenodd" clip-rule="evenodd" fill="#F2A170" d="M45,84.001c0.666,0.666,1.332,1.333,1.998,1.999
		C46.332,85.334,45.666,84.667,45,84.001z"/>
	<path fill-rule="evenodd" clip-rule="evenodd" fill="#5F99D1" d="M72.027,19.975c4.771,2.568,8.057,6.649,11.146,10.932
		C78.041,28.707,74.525,24.859,72.027,19.975z"/>
	<path fill-rule="evenodd" clip-rule="evenodd" fill="#5F99D1" d="M77.063,33.835c-1.071-1.253-2.143-2.506-3.214-3.759
		C76.425,30.043,77.034,31.691,77.063,33.835z"/>
	<path fill-rule="evenodd" clip-rule="evenodd" fill="#5F99D1" d="M87.005,35.055c1.011,1.293,2.021,2.586,3.032,3.878
		C87.451,38.872,86.922,37.203,87.005,35.055z"/>
	<path fill-rule="evenodd" clip-rule="evenodd" fill="#5F99D1" d="M90.066,38.979c0.587,1.015,1.173,2.029,1.759,3.044
		C89.97,41.742,89.95,40.399,90.066,38.979z"/>
	<path fill-rule="evenodd" clip-rule="evenodd" fill="#5F99D1" d="M55.955,18.745c-0.944-0.005-1.888-0.011-2.833-0.017
		c0.003-0.251,0.03-0.5,0.081-0.746C54.12,18.236,55.038,18.49,55.955,18.745z"/>
	<path fill-rule="evenodd" clip-rule="evenodd" fill="#5F99D1" d="M70.084,18.479c0.227,0.179,0.453,0.357,0.68,0.536
		C70.469,18.92,70.242,18.742,70.084,18.479z"/>
	<polygon fill-rule="evenodd" clip-rule="evenodd" fill="#5F99D1" points="67.871,24.342 67.574,24.313 67.517,24.014 	"/>
	<path fill-rule="evenodd" clip-rule="evenodd" fill="#5F99D1" d="M78.013,34.924c-0.282-0.317-0.564-0.634-0.847-0.951
		C77.448,34.29,77.73,34.607,78.013,34.924z"/>
	<path fill-rule="evenodd" clip-rule="evenodd" fill="#5F99D1" d="M66.978,23.559c-0.241-0.194-0.483-0.389-0.725-0.583
		C66.555,23.097,66.796,23.291,66.978,23.559z"/>
	<path fill-rule="evenodd" clip-rule="evenodd" fill="#5F99D1" d="M58.847,19.394c-0.351,0.069-0.6-0.069-0.746-0.415
		C58.4,19.028,58.648,19.166,58.847,19.394z"/>
	<path fill-rule="evenodd" clip-rule="evenodd" fill="#F7AA78" d="M64.956,95.053c-1.654-0.4-3.309-0.801-4.963-1.2
		c-1.768-4.23-6.33-6.036-6.873-12.146c-0.62-6.986,0.447-11.302,6.195-14.271c5.958-3.077,11.902-2.12,16.324,2.9
		c4.671,5.303,4.655,11.419,1.026,17.508c-0.651,1.093-1.06,2.329-1.58,3.501C72.25,94.063,68.847,95.223,64.956,95.053z"/>
</g>
</svg>
