<?xml version="1.0" encoding="utf-8"?>
<!-- Generator: Adobe Illustrator 16.0.3, SVG Export Plug-In . SVG Version: 6.00 Build 0)  -->
<!DOCTYPE svg PUBLIC "-//W3C//DTD SVG 1.1//EN" "http://www.w3.org/Graphics/SVG/1.1/DTD/svg11.dtd">
<svg version="1.1" id="Layer_1" xmlns="http://www.w3.org/2000/svg" xmlns:xlink="http://www.w3.org/1999/xlink" x="0px" y="0px"
	 width="90px" height="122px" viewBox="0 0 90 122" enable-background="new 0 0 90 122" xml:space="preserve">
<g>
	<path fill-rule="evenodd" clip-rule="evenodd" fill="#5798D2" d="M42.013,18.849c5.025-5.01,9.962-2.427,14.901,0.169
		c4.609,4.761,10.55,8.176,14.132,13.976c4.697,7.732,5.722,17.699,14.105,23.188c3.285,8.815,4.588,17.603-0.815,26.11
		c-4.47,7.038-7.136,7.739-14.729,4.3c-0.725-0.328-1.571-0.39-2.36-0.573c-0.328-0.749-0.656-1.501-0.983-2.249
		c-0.664-0.622-1.329-1.246-1.994-1.87c-0.347-2.724-0.997-5.362-2.183-7.853c0.917-7-0.116-14.297,3.199-20.93
		c2.277-2.053,4.962-3.922,2.544-7.603c-2.312-3.519-4.506-7.115-6.751-10.677c-2.884-3.75-5.044-8.099-9.044-10.925
		c-0.971-1.719-2.654-2.779-4.403-2.712C45.24,21.291,43.608,20.288,42.013,18.849z"/>
	<path fill-rule="evenodd" clip-rule="evenodd" fill="#F6AC6E" d="M20.241,64.983c-0.003-0.989-0.006-1.979-0.01-2.968
		c3.252,0.343,2.889-2.646,3.861-4.309c3.27-5.591,7.377-9.753,14.449-9.727c7.061,0.027,11.15,4.193,14.414,9.794
		c0.848,1.455,0.417,3.86,2.878,4.228c-0.001,0.999-0.001,1.998-0.001,2.996c-1.148,0.132-1.545,0.884-1.966,1.904
		c-2.835,6.87-7.138,12.034-15.321,12.077c-7.95,0.043-12.311-4.904-15.206-11.53C22.662,65.9,22.092,64.792,20.241,64.983z"/>
	<path fill-rule="evenodd" clip-rule="evenodd" fill="#F5B075" d="M20.241,64.983c1.851-0.191,2.421,0.917,3.098,2.466
		c2.895,6.626,7.256,11.573,15.206,11.53c8.184-0.043,12.486-5.207,15.321-12.077c0.421-1.021,0.817-1.772,1.966-1.904
		c0.111,3.668,0.222,7.335,0.333,11.003c0.342,4.439-3.223,6.799-5.298,9.952c-3.073,3.523-6.186,3.64-10.385,1.338
		c-4.772-2.614-9.471-6.104-15.484-5.457c-0.431-2.355-1.735-3.726-4.233-3.747C19.433,73.766,20.157,69.361,20.241,64.983z"/>
	<path fill-rule="evenodd" clip-rule="evenodd" fill="#1C1A43" d="M5.91,30.028c-2.069-15.177,8-25.846,21.732-25.558
		c4.33,0.09,8.005,2.944,9.765,7.394c-9.104,1.8-17.198,5.517-23.944,12.083C11.163,26.186,9.554,29.415,5.91,30.028z"/>
	<path fill-rule="evenodd" clip-rule="evenodd" fill="#211C50" d="M42.013,18.849c1.595,1.438,3.227,2.441,5.618,2.351
		c1.749-0.066,3.433,0.994,4.403,2.712c-0.717,3.293-3.275,2.136-5.159,2.338C35.843,27.432,26.001,30.58,20,40.81l0.087,0.344
		c-2.99-0.167-6.149-0.585-8.457-2.821c5.791-12.448,16.796-17.039,29.245-19.484C41.186,18.903,41.724,18.975,42.013,18.849z"/>
	<path fill-rule="evenodd" clip-rule="evenodd" fill="#1B1748" d="M20.526,105.159c-1.047-3.352-0.408-6.979-0.362-10.369
		c4.48,0.72,7.312,5.929,12.425,5.003c0.935,1.078,1.979,2.007,3.381,2.438c8.993,4.515,17.914,2.534,26.843-0.688
		c0.036,3.353,1.452,7.359-2.72,9.459c-0.596-1-1.45-0.907-2.545-0.732c-11.157,1.78-22.075,1.234-32.339-3.935
		C23.698,105.573,22.249,104.804,20.526,105.159z"/>
	<path fill-rule="evenodd" clip-rule="evenodd" fill="#1B1748" d="M41.114,18.957c-12.449,2.445-23.473,7.03-29.264,19.478
		c-3.63-1.636-5.782-4.533-5.94-8.623c3.644-0.614,5.253-3.626,7.554-5.866c6.746-6.566,14.769-10.456,23.873-12.256
		C38.572,14.055,39.878,16.593,41.114,18.957z"/>
	<path fill-rule="evenodd" clip-rule="evenodd" fill="#F5B075" d="M55.833,62.002c-2.461-0.367-2.03-2.772-2.878-4.228
		c-3.264-5.601-7.353-9.767-14.414-9.794c-7.072-0.027-11.18,4.135-14.449,9.727c-0.972,1.663-0.609,4.651-3.861,4.309
		c-0.296-4-0.594-8-0.891-12c2.764,0.059,4.523-1.897,6.454-3.37c4.87-3.716,10.072-4.657,16.249-4.027
		c5.618,0.573,8.789,5.217,13.792,6.379C55.834,53.333,55.833,57.667,55.833,62.002z"/>
	<path fill-rule="evenodd" clip-rule="evenodd" fill="#181643" d="M20.441,104.869c1.722-0.355,3.33,0.49,4.84,1.251
		c10.265,5.169,21.109,5.929,32.266,4.148c1.095-0.175,1.949-0.268,2.545,0.732c-4.467,2.924-9.461,3.85-14.69,4.371
		c-5.794,0.577-11.244,3.191-17.135,3.683c-4.264,0.355-6.255-1.805-6.193-5.727C22.12,110.433,21.295,107.526,20.441,104.869z"/>
	<path fill-rule="evenodd" clip-rule="evenodd" fill="#F5B278" d="M55.835,48.998c-5.003-1.162-8.174-5.806-13.792-6.379
		c-6.177-0.63-11.379,0.311-16.249,4.027c-1.931,1.473-3.69,3.429-6.454,3.37c-0.582-3.024-0.215-5.968,0.747-8.862
		c0,0-0.087-0.344-0.088-0.344c3.7,0.717,7.192,0.104,10.356-1.9c3.581-2.268,7.479-3.131,11.646-3.075
		c1.823,1.006,3.789,1.822,5.438,3.059c3,2.248,7.492,2.702,8.727,7.109C56.056,47.001,55.945,48,55.835,48.998z"/>
	<path fill-rule="evenodd" clip-rule="evenodd" fill="#231F53" d="M32.589,99.794c-5.114,0.925-7.946-4.069-12.426-4.789
		c0.098-4.15-3.512-8.657,1.182-12.365c0.55-0.157,1.104-0.317,1.657-0.477c1.557,4.658,5.842,6.302,9.521,8.612
		c1.72,1.08,4.246,1.262,4.457,4.015C34.208,95.31,31.95,96.279,32.589,99.794z"/>
	<path fill-rule="evenodd" clip-rule="evenodd" fill="#231F53" d="M85.151,56.182c-8.384-5.489-9.504-15.609-14.201-23.341
		c2.571-0.628,4.18,2.396,6.685,1.984c0.079,3.361,1.75,5.169,4.903,6.494C88.771,43.937,89.831,51.147,85.151,56.182z"/>
	<path fill-rule="evenodd" clip-rule="evenodd" fill="#211C50" d="M77.563,35c-2.505,0.412-3.945-2.634-6.517-2.006
		c-3.582-5.8-9.522-9.214-14.132-13.976c1.035-0.651,2.328-1.505,3.364-2.157c4.296,3.842,10.376,4.559,14.565,8.701
		c1.289,1.274,2.801,2.848,5.049,2.44C80.864,30.917,78.457,32.707,77.563,35z"/>
	<path fill-rule="evenodd" clip-rule="evenodd" fill="#211C50" d="M62.834,102.004c-8.929,3.223-17.871,4.741-26.864,0.227
		c2.519-0.131,5.328,0.619,6.93-2.287c2.167,1.033,4.241,0.868,6.621,0.321c5.549-1.272,9.461-4.882,13.519-8.389
		C65.804,95.31,62.502,98.62,62.834,102.004z"/>
	<path fill-rule="evenodd" clip-rule="evenodd" fill="#1B1748" d="M79.97,28.264c-2.248,0.408-4.022-1.274-5.312-2.549
		c-4.189-4.142-10.341-4.81-14.637-8.652c4.382-3.523,9.211-3.027,13.659-0.692C78.107,18.694,81.036,22.715,79.97,28.264z"/>
	<path fill-rule="evenodd" clip-rule="evenodd" fill="#3952A0" d="M63.039,91.876c-4.058,3.507-7.97,7.116-13.519,8.389
		c-2.38,0.547-4.454,0.712-6.621-0.321c0.04-0.975,0.079-1.949,0.118-2.923c1.93,0.237,3.445-0.865,5.122-1.518
		c6.855-2.668,12.371-7.378,18.122-11.736c0.328,0.751,0.656,1.503,0.984,2.252C65.844,87.97,64.441,89.923,63.039,91.876z"/>
	<path fill-rule="evenodd" clip-rule="evenodd" fill="#F5B278" d="M23.003,82.163c-0.553,0.159-1.107,0.319-1.657,0.477
		c-0.191-1.519-0.385-3.036-0.58-4.553c2.497,0.021,3.801,1.392,4.232,3.747C24.333,81.944,23.668,82.054,23.003,82.163z"/>
	<path fill-rule="evenodd" clip-rule="evenodd" fill="#252157" d="M42.001,35.834c-4.167-0.056-8.066,0.807-11.646,3.075
		c-3.164,2.004-6.842,2.62-10.542,1.903c6.002-10.23,15.937-13.661,26.969-14.843c1.884-0.202,4.437,1.069,5.153-2.225
		c4,2.826,6.26,7.342,9.144,11.092c-2.004,2.439-3.842-0.128-5.761-0.209C50.82,34.438,46.043,31,42.001,35.834z"/>
	<path fill-rule="evenodd" clip-rule="evenodd" fill="#252259" d="M23.003,82.163c0.665-0.109,1.331-0.219,1.996-0.329
		c6.013-0.646,10.711,2.843,15.483,5.457c4.2,2.302,7.536,1.858,10.609-1.665c5.196,1.06,8.426-3.33,13.061-4.125
		c0.665,0.624,1.447,1.646,2.111,2.269c-5.752,4.355-11.268,9.065-18.123,11.733c-1.677,0.652-3.192,1.755-5.123,1.518
		c-1.395-2.415-3.869-1.906-6.036-2.23c-0.211-2.753-2.737-2.935-4.457-4.015C28.845,88.465,24.56,86.821,23.003,82.163z"/>
	<path fill-rule="evenodd" clip-rule="evenodd" fill="#27245E" d="M41.813,35.832c4.042-4.835,8.987-1.688,13.484-1.499
		c1.919,0.081,3.672,2.805,5.676,0.366c2.245,3.562,4.545,7.296,6.856,10.815c2.418,3.68-0.267,5.549-2.545,7.603
		c-3.643-1.598-5.007-6.117-9.118-7.114c-1.234-4.407-5.727-4.862-8.727-7.109C45.79,37.657,43.636,36.838,41.813,35.832z"/>
	<path fill-rule="evenodd" clip-rule="evenodd" fill="#2A2867" d="M56.166,46.002c4.111,0.998,5.476,5.516,9.118,7.114
		c-3.314,6.633-2.281,13.93-3.199,20.929c-2.242-0.165-3.535,2.55-5.92,1.955c-0.111-3.668-0.222-7.335-0.333-11.003
		c0-0.998,0-1.997,0.001-2.996c0-4.335,0.001-8.669,0.002-13.004C55.945,48,56.056,47.001,56.166,46.002z"/>
	<path fill-rule="evenodd" clip-rule="evenodd" fill="#27245E" d="M56.165,76.001c2.385,0.595,3.678-2.12,5.92-1.955
		c1.187,2.491,1.837,5.13,2.184,7.854c-4.635,0.795-8.205,5.113-13.401,4.054C52.942,82.8,56.507,80.44,56.165,76.001z"/>
	<path fill-rule="evenodd" clip-rule="evenodd" fill="#679DD1" d="M36.981,94.79c2.167,0.324,4.641-0.185,6.036,2.23
		c-0.039,0.974-0.078,1.948-0.117,2.923c-1.603,2.906-4.412,2.156-6.93,2.287c-1.402-0.431-2.446-1.359-3.381-2.438
		C31.95,96.279,34.208,95.31,36.981,94.79z"/>
</g>
</svg>
