<?xml version="1.0" encoding="utf-8"?>
<!-- Generator: Adobe Illustrator 16.0.3, SVG Export Plug-In . SVG Version: 6.00 Build 0)  -->
<!DOCTYPE svg PUBLIC "-//W3C//DTD SVG 1.1//EN" "http://www.w3.org/Graphics/SVG/1.1/DTD/svg11.dtd">
<svg version="1.1" id="Layer_1" xmlns="http://www.w3.org/2000/svg" xmlns:xlink="http://www.w3.org/1999/xlink" x="0px" y="0px"
	 width="520px" height="520px" viewBox="0 0 520 520" enable-background="new 0 0 520 520" xml:space="preserve">
<g>
	<path fill-rule="evenodd" clip-rule="evenodd" fill="#66A2D7" d="M5,281c0-13.333,0-26.667,0-40c1.07-0.596,0.906-1.657,1.004-2.63
		c0.4-3.969,0.672-7.957,1.245-11.9c4.243-29.205,12.83-56.996,26.475-83.256c16.202-31.181,37.833-57.96,64.971-80.125
		c38.574-31.504,82.644-50.437,132.24-56.321C234.269,6.373,237.907,7,241,5c13,0,26,0,39,0c0.606,1.064,1.672,0.887,2.641,0.98
		c4.301,0.414,8.627,0.657,12.898,1.276c29.204,4.231,56.993,12.825,83.251,26.47c31.18,16.202,57.957,37.832,80.12,64.968
		c31.503,38.572,50.425,82.639,56.329,132.23c0.438,3.671-0.226,7.62,1.761,11.076c0,7,0,14,0,21
		c-1.799-0.968-3.017-2.589-4.418-3.99c-35.973-35.947-71.93-71.91-107.891-107.869c-1.058-1.058-2.133-2.097-3.186-3.16
		c-0.761-0.768-1.478-0.435-2.202,0.042c-0.988-5.195-1.93-5.773-6.543-3.33c-8.551,4.529-17.349,8.407-26.649,11.142
		c-4.167,1.225-7.734,0.552-11.109-2.229c-4.244-3.499-8.877-6.442-13.898-8.744c-14.497-6.643-29.479-7.764-44.729-3.357
		c-16.368,4.73-29.105,14.291-37.241,29.528c-6.051,11.458-8.833,23.602-7.72,36.578c0.31,3.612-0.663,4.707-4.146,4.269
		c-11.399-1.435-22.674-3.56-33.613-7.127c-23.615-7.702-44.55-19.917-62.744-36.939c-5.011-4.688-9.323-9.959-14.136-14.791
		c-4.156-4.172-5.689-4.033-8.335,1.372c-7.799,15.932-9.489,32.291-3.803,49.361c2.907,8.726,8.069,15.971,13.432,23.183
		l-0.236,0.233c-1.145-0.158-2.358-0.129-3.421-0.513c-2.339-0.847-4.599-1.914-6.899-2.871c-4.81-2.001-6.538-0.921-6.532,4.13
		c0.002,2.161-0.1,4.359,0.239,6.478c3.354,20.97,13.914,37.042,32.557,47.572c0.794,0.449,1.945,0.553,2.14,1.839
		c-2.704,0.402-5.29-0.058-7.924-0.515c-5.51-0.957-7.152,1.154-5.094,6.43c8.057,20.65,22.706,33.935,44.241,39.507
		c1.174,0.304,2.31,0.752,4.257,1.395c-2.732,1.699-4.645,2.977-6.639,4.113c-19.247,10.977-39.99,15.912-62.096,15.355
		c-3.196-0.081-6.6-0.248-7.865,3.648c-1.225,3.772,1.887,5.19,4.186,6.985c0.797,2.133,2.652,3.388,4.164,4.9
		c47.215,47.229,94.446,94.441,141.692,141.64c4.11,4.105,7.609,9.158,14.163,9.734c-12.667,0-25.333,0-38,0
		c-0.596-1.07-1.657-0.906-2.629-1.004c-3.969-0.4-7.957-0.673-11.901-1.245c-29.205-4.241-56.996-12.831-83.256-26.476
		c-31.182-16.201-57.961-37.832-80.125-64.97C31.584,384.73,12.652,340.662,6.768,291.064C6.373,287.731,7,284.093,5,281z"/>
	<path fill-rule="evenodd" clip-rule="evenodd" fill="#3B7CA5" d="M279,517c-6.554-0.576-10.053-5.629-14.163-9.734
		c-47.246-47.198-94.477-94.411-141.692-141.64c-1.512-1.513-3.367-2.768-4.164-4.9c1.199,0.564,2.425,1.077,3.592,1.702
		c16.375,8.757,33.704,14.626,52.014,17.841c16.833,2.955,33.706,3.446,50.625,1.533c11.865-1.342,23.619-3.471,34.878-7.695
		c0.82-0.114,1.684-0.1,2.453-0.363c17.293-5.923,33.277-14.406,47.584-25.722c19.272-15.242,34.929-33.637,46.455-55.465
		c13.563-25.688,20.942-52.973,21.346-82.044c0.063-4.514,1.395-8.016,4.762-10.968c5.261-4.613,10.302-9.472,14.934-14.726
		c3.413-3.871,6.575-7.949,9.301-12.343c0.863-1.392,0.915-2.817-0.208-4.137c-1.104-1.297-2.508-1.603-4.06-1.043
		c-1.874,0.676-3.688,1.52-5.569,2.167c-3.82,1.313-7.502,3.188-12.525,3.347c6.83-7.69,11.944-15.579,14.742-24.786
		c0.725-0.477,1.441-0.809,2.202-0.042c1.053,1.063,2.128,2.102,3.186,3.16c35.961,35.959,71.918,71.922,107.891,107.869
		c1.401,1.401,2.619,3.022,4.418,3.99c0,6.333,0,12.667,0,19c-0.983,0.364-0.934,1.227-1.003,2.046
		c-1.813,21.469-6.214,42.405-13.677,62.606c-25.917,70.157-73.236,120.281-141.727,150.249
		c-21.88,9.574-44.821,15.52-68.595,18.331c-3.641,0.43-7.589-0.308-10.999,1.768C280.333,517,279.667,517,279,517z"/>
	<path fill-rule="evenodd" clip-rule="evenodd" fill="#FEFEFF" d="M260.09,374.106c-11.259,4.225-23.013,6.354-34.878,7.695
		c-16.919,1.913-33.792,1.422-50.625-1.533c-18.311-3.215-35.639-9.084-52.014-17.841c-1.167-0.625-2.393-1.138-3.592-1.702
		c-2.298-1.795-5.411-3.213-4.186-6.985c1.265-3.896,4.669-3.729,7.865-3.648c22.106,0.557,42.849-4.379,62.096-15.355
		c1.994-1.137,3.907-2.414,6.639-4.113c-1.947-0.643-3.083-1.091-4.257-1.395c-21.536-5.572-36.185-18.856-44.241-39.507
		c-2.058-5.275-0.416-7.387,5.094-6.43c2.635,0.457,5.221,0.917,7.924,0.515c-0.194-1.286-1.345-1.39-2.14-1.839
		c-18.643-10.53-29.203-26.602-32.557-47.572c-0.338-2.118-0.236-4.316-0.239-6.478c-0.006-5.052,1.722-6.131,6.532-4.13
		c2.301,0.957,4.56,2.024,6.899,2.871c1.063,0.384,2.276,0.355,3.421,0.513c0.171,0.454,0.395,0.727,0.84,0.246
		c-0.201-0.16-0.402-0.319-0.604-0.479c-5.362-7.212-10.525-14.457-13.432-23.183c-5.687-17.07-3.997-33.429,3.803-49.361
		c2.646-5.405,4.18-5.544,8.335-1.372c4.813,4.832,9.125,10.103,14.136,14.791c18.193,17.022,39.128,29.238,62.744,36.939
		c10.939,3.567,22.214,5.692,33.613,7.127c3.483,0.438,4.456-0.657,4.146-4.269c-1.113-12.976,1.669-25.119,7.72-36.578
		c1.665,1.874,0.884,4.148,0.886,6.226C260.076,242.875,260.079,308.491,260.09,374.106z"/>
	<path fill-rule="evenodd" clip-rule="evenodd" fill="#D1D2D2" d="M260.09,374.106c-0.011-65.615-0.014-131.231-0.071-196.848
		c-0.002-2.077,0.779-4.352-0.886-6.226c8.136-15.238,20.873-24.798,37.241-29.528c15.249-4.407,30.231-3.286,44.729,3.357
		c5.021,2.301,9.654,5.245,13.898,8.744c3.375,2.782,6.942,3.455,11.109,2.229c9.301-2.735,18.099-6.613,26.649-11.142
		c4.613-2.444,5.555-1.866,6.543,3.33c-2.798,9.207-7.912,17.096-14.742,24.786c5.023-0.158,8.705-2.034,12.525-3.347
		c1.882-0.647,3.695-1.491,5.569-2.167c1.552-0.56,2.956-0.253,4.06,1.043c1.123,1.32,1.071,2.745,0.208,4.137
		c-2.726,4.394-5.888,8.472-9.301,12.343c-4.632,5.254-9.673,10.113-14.934,14.726c-3.367,2.952-4.699,6.454-4.762,10.968
		c-0.403,29.071-7.782,56.356-21.346,82.044c-11.526,21.828-27.183,40.223-46.455,55.465
		c-14.307,11.315-30.291,19.799-47.584,25.722C261.774,374.007,260.91,373.992,260.09,374.106z"/>
	<path fill-rule="evenodd" clip-rule="evenodd" fill="#66A2D7" d="M138.069,226.938c0.201,0.16,0.402,0.32,0.604,0.479
		c-0.445,0.481-0.669,0.208-0.84-0.246L138.069,226.938z"/>
</g>
</svg>
