<?xml version="1.0" encoding="utf-8"?>
<!-- Generator: Adobe Illustrator 16.0.3, SVG Export Plug-In . SVG Version: 6.00 Build 0)  -->
<!DOCTYPE svg PUBLIC "-//W3C//DTD SVG 1.1//EN" "http://www.w3.org/Graphics/SVG/1.1/DTD/svg11.dtd">
<svg version="1.1" id="Layer_1" xmlns="http://www.w3.org/2000/svg" xmlns:xlink="http://www.w3.org/1999/xlink" x="0px" y="0px"
	 width="1600px" height="1600px" viewBox="0 0 1600 1600" enable-background="new 0 0 1600 1600" xml:space="preserve">
<g>
	<path fill-rule="evenodd" clip-rule="evenodd" fill="#86D5F7" d="M449.94,234.883c24.901-17.131,51.865-30.469,79.357-42.757
		c33.899-15.153,68.902-27.251,104.934-36.234c14.429-3.597,28.932-6.999,43.698-9.048c16.632-2.719,33.276-5.242,50.052-7.041
		c18.127-1.944,36.28-3.257,54.478-3.728c25.071-0.649,50.144-0.11,75.146,1.988c11.19,0.939,22.341,2.396,33.488,3.785
		c9.997,1.245,19.966,2.72,29.946,4.093c14.688,3.047,29.437,5.832,44.043,9.229c10.819,2.516,21.525,5.592,32.157,8.828
		c40.478,12.318,79.473,28.294,116.85,48.141c12.616,6.699,25.184,13.519,36.836,21.862c0.372,0.325,0.744,0.649,1.115,0.974
		c0,0-0.02-0.023-0.02-0.023c0.371,0.868,1.098,1.1,1.957,1.093l-0.023-0.009c0.067,1.315,0.769,1.952,2.076,1.939l-0.015-0.007
		c4.847,6.336,11.2,11.257,16.128,17.568c10.856,13.904,19.14,29.1,23.887,46.085c4.383,15.681,6.784,31.529,5.181,48.014
		c-1.181,12.146-3.752,23.8-7.625,35.279c-4.292,12.72-11.492,23.875-18.628,35.073c-0.848,0.782-1.839,1.456-2.522,2.361
		c-7.065,9.358-15.447,17.49-24.941,24.196c-34.462,24.34-72.218,32.078-113.461,21.729c-6.11-1.533-11.657-4.877-18.069-5.268
		l0.046,0.028c-0.35-1.004-1.185-1.057-2.051-1.046l0.065,0.048c-0.417-0.328-0.835-0.656-1.252-0.983
		c-0.919-0.358-1.917-0.585-2.744-1.092c-28.045-17.195-57.765-30.671-89.139-40.589c-36.138-11.424-73.201-17.158-111.001-18.263
		c-9.949-0.291-19.911-0.039-29.899,0.629c-15.566,1.04-31.023,2.537-46.408,5.122c-36.579,6.146-71.559,17.253-105.003,33.264
		c-12.745,6.102-25.04,13.039-37.382,19.891c-0.885,0.031-1.73,0.148-2.21,1.041l0.071-0.051c-0.36,0.344-0.719,0.688-1.079,1.033
		l0.06-0.043c-1.139-0.021-2.352-0.255-3.035,1.046l0.032-0.014c-1.13,0.209-2.322,0.255-3.382,0.652
		c-23.09,8.628-46.768,10.736-71.004,6.339c-24.813-4.502-46.665-15.177-65.266-32.193c-6.113-5.592-11.568-11.904-17.324-17.886
		c-1.429-2.238-2.826-4.497-4.292-6.71c-18.439-27.812-26.119-58.35-21.583-91.395c4.487-32.687,18.697-60.611,43.85-82.518
		c1.011-0.881,2.037-1.754,2.011-3.273c0,0-0.021,0.005-0.021,0.005C448.901,236.051,449.649,235.844,449.94,234.883z
		 M1101.095,339.767c0.043-13.188-5.767-23.173-17.364-29.862c-31.229-18.011-63.981-32.648-98.144-44.112
		c-27.255-9.146-55.067-16.056-83.403-21.045c-31.468-5.542-63.134-8.469-95.06-8.729c-12.475-0.102-24.937,0.151-37.417,0.772
		c-13.779,0.686-27.539,1.701-41.162,3.513c-26.782,3.563-53.329,8.501-79.466,15.603c-46.148,12.539-90.044,30.432-131.419,54.396
		c-11.131,6.447-16.741,16.855-16.465,29.499c0.562,25.722,28.581,40.576,50.861,27.546c24.336-14.231,49.911-25.875,76.46-35.323
		c36.888-13.128,74.732-22.112,113.733-26.216c26.135-2.75,52.225-4.382,78.56-3.083c23.091,1.139,45.978,3.383,68.756,7.22
		c25.425,4.284,50.335,10.596,74.738,18.827c30.504,10.289,59.566,23.762,87.662,39.526
		C1074.374,380.874,1101.013,365.064,1101.095,339.767z"/>
	<path fill-rule="evenodd" clip-rule="evenodd" fill="#86D5F7" d="M444.913,1363.978c-21.951-12.306-41.896-27.491-61.459-43.176
		c-19.841-15.907-38.577-33.063-56.397-51.222c-22.012-22.429-42.356-46.266-60.983-71.573c-0.343-0.352-0.686-0.702-1.028-1.054
		c0,0,0.014,0.008,0.014,0.008c-0.027-0.839-0.247-1.57-1.099-1.942c0,0,0.018,0.016,0.018,0.016
		c-0.32-0.355-0.641-0.711-0.961-1.065l0.02,0.019c-0.032-0.836-0.237-1.574-1.095-1.945c0,0,0.011,0.004,0.011,0.003
		c-0.322-0.351-0.643-0.701-0.965-1.052l0.019,0.019c-0.324-0.351-0.649-0.702-0.973-1.053c0,0,0.017,0.013,0.017,0.013
		c-0.026-0.839-0.234-1.577-1.093-1.948l0.016,0.013c-0.323-0.353-0.646-0.704-0.968-1.057c0,0,0.018,0.019,0.018,0.019
		c-0.016-0.842-0.218-1.581-1.08-1.956l0.01,0.003c-0.32-0.351-0.641-0.701-0.962-1.052c0,0,0.017,0.018,0.017,0.017
		c-0.322-0.352-0.644-0.703-0.965-1.055c0,0,0.014,0.009,0.014,0.009c-0.022-0.838-0.218-1.582-1.076-1.963l0.017,0.018
		c-0.322-0.353-0.643-0.705-0.964-1.058l0.016,0.012c-0.022-0.84-0.216-1.585-1.082-1.96l0.017,0.016
		c-0.323-0.352-0.647-0.704-0.971-1.056c0,0,0.018,0.018,0.018,0.018c-0.013-0.844-0.204-1.591-1.075-1.966
		c0,0,0.016,0.012,0.016,0.011c-0.321-0.352-0.643-0.704-0.963-1.056c0,0,0.015,0.015,0.015,0.015
		c-0.006-0.846-0.191-1.594-1.065-1.971l0.014,0.011c-0.321-0.353-0.642-0.704-0.963-1.056l0.016,0.016
		c-0.006-0.846-0.191-1.595-1.063-1.975c0,0,0.014,0.012,0.015,0.012c-0.322-0.352-0.644-0.703-0.966-1.055
		c0,0,0.016,0.016,0.016,0.016c-0.007-0.845-0.188-1.597-1.059-1.979l0.015,0.014c-0.322-0.353-0.644-0.704-0.965-1.056l0.016,0.015
		c-0.009-0.843-0.181-1.599-1.055-1.98l0.014,0.014c-0.323-0.352-0.645-0.701-0.967-1.052c0,0,0.016,0.01,0.016,0.01
		c0.053-1.712-0.266-3.227-2.1-3.931c0,0-0.004,0.009-0.004,0.009c0.049-1.471-0.589-2.495-1.97-3.037l0.014,0.008
		c-0.321-0.351-0.642-0.701-0.963-1.052l0.014,0.01c0.063-1.716-0.25-3.232-2.087-3.941c0,0-0.002,0.01-0.002,0.01
		c0.043-1.466-0.579-2.501-1.965-3.042l0.012,0.009c-0.321-0.35-0.642-0.699-0.962-1.049c0,0,0.012,0.006,0.011,0.006
		c0.066-1.713-0.239-3.233-2.06-3.966l0.006,0.007c0.017-0.85-0.157-1.599-1.04-1.974c0,0-0.006,0.011-0.005,0.01
		c-0.27-2.103-0.937-3.972-2.972-5.032l0.003,0.012c-0.665-2.719-1.49-5.347-4.002-7.01l0.001,0.009
		c-1.001-3.373-2.124-6.678-4.999-9.011l0.001,0.008c-0.096-2.272-1.481-4.031-2.466-5.918
		c-19.378-37.133-35.786-75.501-48.249-115.523c-0.825-2.65-1.13-5.561-3.208-7.706c-0.026-0.259-0.055-0.517-0.086-0.775
		c-0.117-1.611,0.68-3.65-1.92-4.096c-2.032-7.835-4.187-15.642-6.073-23.512c-6.057-25.268-10.75-50.785-14.08-76.563
		c-2.637-20.41-4.256-40.869-5.164-61.438c-0.506-11.477-0.945-22.95-0.529-34.387c0.657-18.049,0.825-36.164,3.814-54.061
		c0.314-0.563,0.779-1.091,0.92-1.694c7.527-32.192,24.528-58.283,51.12-77.817c31.456-23.107,66.582-30.892,104.984-23.637
		c32.38,6.738,58.85,23.221,79.224,49.114c14.999,19.062,23.793,40.859,27,65.035c0.876,6.611-0.32,13.287,1.459,19.765
		c-0.553,7.274-1.414,14.541-1.597,21.825c-0.421,16.787,0.129,33.536,1.742,50.284c1.639,17.013,4.102,33.855,7.843,50.518
		c8.574,38.194,22.466,74.331,41.646,108.479c16.783,29.881,37.131,57.057,60.847,81.755c22.445,23.377,47.584,43.449,74.759,61.03
		c0.363,0.433,0.726,0.865,1.089,1.298l-0.047-0.052c0.348,0.347,0.695,0.692,1.042,1.039l-0.033-0.038
		c1.202,1.357,2.302,2.823,3.622,4.054c13.042,12.157,23.104,26.404,30.289,42.721c11.734,26.647,14.133,54.223,8.435,82.642
		c-2.196,10.952-6.59,21.157-10.575,31.504c-0.682,0.924-1.499,1.776-2.025,2.781c-10.489,20-25.267,36.217-44.142,48.433
		c-33.568,21.726-69.89,27.221-108.662,17.479C459.347,1369.657,452.512,1365.755,444.913,1363.978z M302.157,767.004
		c2.233-21.15-14.6-38.997-36.055-37.254c-14.63,1.188-28.981,13.531-29.969,28.538c-1.155,17.542-1.939,35.086-1.463,52.741
		c0.708,26.283,3.091,52.313,7.236,78.248c4.912,30.735,12.615,60.782,22.549,90.215c12.747,37.766,29.273,73.862,49.41,108.313
		c21.234,36.327,46.01,70.032,74.562,100.892c14.808,16.006,30.425,31.262,47.142,45.322c15.786,13.276,32.023,25.983,49.343,37.204
		c14.659,9.497,34.646,4.876,44.977-10.006c9.7-13.976,6.343-34.385-7.535-44.608c-15.924-11.731-31.902-23.337-46.894-36.322
		c-26.274-22.758-49.729-48.048-70.712-75.7c-15.31-20.177-29.049-41.386-41.092-63.649c-14.746-27.256-27.231-55.509-36.929-84.997
		c-9.048-27.511-16.003-55.5-20.26-84.135c-2.755-18.533-4.981-37.154-5.345-55.903
		C300.805,799.601,300.455,783.277,302.157,767.004z"/>
	<path fill-rule="evenodd" clip-rule="evenodd" fill="#86D5F7" d="M1365.064,1154.082c-0.069,0.617-0.14,1.234-0.209,1.852
		c-1.23,0.171-1.856,0.855-1.795,2.121c0,0-0.002-0.01-0.003-0.011c-1.829,0.709-2.149,2.222-2.098,3.934l0.016-0.009
		c-0.322,0.351-0.645,0.702-0.967,1.053l0.016-0.015c-0.876,0.381-1.05,1.136-1.057,1.98l0.017-0.015
		c-0.32,0.354-0.642,0.706-0.962,1.059l0.015-0.013c-0.868,0.38-1.057,1.128-1.065,1.972l0.017-0.015
		c-0.319,0.354-0.64,0.707-0.959,1.061c0,0,0.015-0.012,0.014-0.013c-0.867,0.379-1.063,1.123-1.068,1.969l0.016-0.014
		c-0.32,0.353-0.641,0.705-0.961,1.057c0,0,0.014-0.011,0.014-0.012c-0.872,0.378-1.06,1.127-1.065,1.973
		c0,0,0.016-0.017,0.016-0.016c-0.321,0.352-0.644,0.703-0.966,1.055l0.015-0.013c-0.869,0.376-1.059,1.124-1.073,1.967l0.018-0.017
		c-0.323,0.353-0.646,0.705-0.97,1.057l0.018-0.017c-0.86,0.379-1.062,1.12-1.081,1.962l0.017-0.013
		c-0.321,0.354-0.642,0.706-0.963,1.06l0.017-0.018c-0.861,0.379-1.058,1.122-1.077,1.963l0.015-0.01
		c-0.322,0.352-0.644,0.703-0.966,1.055l0.017-0.017c-0.322,0.35-0.644,0.699-0.965,1.049c0,0,0.01-0.004,0.01-0.005
		c-0.868,0.374-1.064,1.116-1.077,1.96c0,0,0.018-0.019,0.017-0.018c-0.322,0.352-0.646,0.703-0.969,1.055l0.016-0.015
		c-0.853,0.379-1.068,1.111-1.09,1.953l0.018-0.013c-0.324,0.352-0.647,0.704-0.972,1.056l0.019-0.019
		c-0.323,0.349-0.646,0.698-0.97,1.047l0.011-0.005c-0.857,0.374-1.062,1.113-1.091,1.949l0.02-0.019
		c-0.322,0.354-0.646,0.707-0.969,1.061c0,0,0.019-0.019,0.018-0.019c-0.849,0.378-1.066,1.109-1.095,1.948l0.015-0.008
		c-0.327,0.366-0.653,0.731-0.98,1.098c-23.476,31.787-49.457,61.399-78.213,88.478c-29.211,27.507-60.203,52.832-94.522,73.847
		c-1.4,0.858-2.807,1.707-4.211,2.562c-0.843,0.045-1.638,0.18-2.049,1.06c0,0,0.022-0.018,0.022-0.017
		c-0.973,0.17-2.022,0.158-2.905,0.536c-23.551,10.071-47.854,13.493-73.341,9.619c-27.836-4.231-51.634-16.338-72.192-35.174
		c-11.497-10.534-20.023-23.378-27.484-36.966c-0.07-0.326-0.081-0.679-0.218-0.974c-10.469-22.571-15.368-46.088-12.935-71.074
		c2.121-21.773,9.104-41.7,20.772-60.139c6.545-10.341,15.138-18.896,23.292-27.853l-0.027,0.035
		c0.441-0.356,0.883-0.712,1.325-1.067c6.412-5.88,14.081-10.006,21.093-15.051c33.059-23.788,61.84-51.965,86.283-84.48
		c23.018-30.621,41.217-63.931,54.739-99.844c16.431-43.637,24.554-88.759,25.615-135.275c0.271-11.829-0.651-23.605-1.04-35.404
		c-0.013-5.292-0.026-10.587-0.04-15.881c-0.046-5.66,0.904-11.198,1.966-16.732c7.842-40.873,29.931-71.647,65.78-92.577
		c11.953-6.979,24.847-11.678,38.348-14.708c17.231-3.015,34.43-3.62,51.708-0.074c42.148,8.652,73.101,32.177,93.645,69.792
		c5.764,10.552,8.892,22.055,12.583,33.366c9.96,85.263,0.522,168.75-22.966,250.952c-1.418,1.107-0.923,2.666-0.968,4.098
		c-0.034,0.258-0.063,0.516-0.089,0.774c-3.613,6.237-4.771,13.336-7.07,20.034c-12.192,35.517-26.896,69.955-44.38,103.199
		c-0.99,1.882-2.374,3.643-2.467,5.916l0.002-0.009c-2.881,2.331-3.991,5.644-4.999,9.014l0.003-0.013
		c-2.507,1.669-3.347,4.289-3.998,7.015l0.001-0.011c-2.037,1.057-2.703,2.927-2.979,5.026l-0.005-0.012
		c-0.884,0.376-1.055,1.127-1.041,1.976l0.008-0.009c-1.818,0.736-2.122,2.258-2.059,3.971c0,0,0.013-0.007,0.014-0.007
		c-0.321,0.35-0.643,0.699-0.964,1.049c0,0,0.013-0.009,0.012-0.009c-1.384,0.543-2.009,1.576-1.965,3.042l-0.003-0.01
		C1366.227,1150.773,1365.773,1152.522,1365.064,1154.082z M1367.584,795.719c-1.526-9.037-0.488-22.211-1.312-35.33
		c-0.979-15.606-14.671-32.697-34.91-31.623c-17.349,0.921-31.172,14.585-31.486,32.278c-0.154,8.679,1.102,17.259,1.11,25.915
		c0.018,17.633-0.195,35.229-1.778,52.836c-1.891,21.023-4.802,41.849-9.243,62.468c-12.881,59.795-35.925,115.465-68.35,167.257
		c-14.321,22.875-30.574,44.361-48.38,64.645c-11.877,13.528-24.53,26.333-37.804,38.481
		c-17.195,15.737-35.841,29.659-54.763,43.255c-12.26,8.809-16.274,23.315-11.394,37.612c6.723,19.694,31.385,28.413,48.81,17.004
		c23.286-15.247,44.977-32.605,65.269-51.606c17.378-16.271,33.904-33.403,49.141-51.771c26.979-32.522,50.281-67.468,69.78-104.927
		c17.633-33.877,31.776-69.187,42.502-105.854C1359.735,905.222,1367.512,853.024,1367.584,795.719z"/>
	<path fill-rule="evenodd" clip-rule="evenodd" fill="#C5CAE6" d="M981.081,1301.996c7.46,13.588,15.986,26.432,27.483,36.966
		c20.559,18.836,44.356,30.942,72.192,35.174c25.486,3.874,49.79,0.452,73.341-9.619c0.883-0.378,1.933-0.366,2.905-0.536
		c-6,5.627-13.471,9.012-20.433,13.11c-43.744,25.756-89.992,45.897-138.442,60.98c-30.746,9.572-62.084,16.754-93.869,21.743
		c-20.275,3.184-40.699,5.352-61.252,6.327c-16.257,0.772-32.52,2.361-48.771,1.669c-20.03-0.854-40.065-1.574-60.067-3.567
		c-35.863-3.574-71.143-10.015-105.925-19.262c-32.798-8.72-64.695-20.017-95.788-33.679c-28.533-12.537-55.891-27.234-82.49-43.403
		c-1.804-1.097-3.921-1.907-5.051-3.922c7.599,1.777,14.433,5.68,22.035,7.59c38.772,9.741,75.094,4.246,108.662-17.479
		c18.875-12.216,33.653-28.433,44.142-48.433c0.527-1.005,1.344-1.857,2.028-2.78c3.189,1.345,6.296,2.937,9.575,3.995
		c25.885,8.358,52.148,15.2,78.989,19.791c21.558,3.688,43.262,6.534,65.078,7.134c28.052,0.771,56.145,0.827,84.127-2.677
		c14.775-1.851,29.539-3.729,44.143-6.574c22.139-4.314,43.92-10.104,65.352-17.139
		C973.211,1306.036,977.807,1305.429,981.081,1301.996z"/>
	<path fill-rule="evenodd" clip-rule="evenodd" fill="#C5CAE6" d="M295.033,631.902c-38.402-7.254-73.528,0.531-104.984,23.638
		c-26.592,19.534-43.592,45.625-51.12,77.817c-0.141,0.604-0.606,1.131-0.92,1.694c0.364-14.947,2.928-29.657,5.371-44.329
		c4.054-24.348,9.504-48.415,16.26-72.182c8.003-28.159,17.786-55.68,29.416-82.529c16.563-38.239,36.558-74.625,60.026-109.06
		c13.741-20.163,28.615-39.46,44.362-58.14c16.443-19.504,34.236-37.679,52.688-55.183c16.363-15.523,33.661-30.044,51.738-43.603
		c15.416-11.563,31.048-22.796,47.479-32.885c0.816-0.501,1.794-0.741,2.696-1.103c0.027,1.52-0.999,2.393-2.01,3.274
		c-25.152,21.907-39.363,49.831-43.85,82.518c-4.536,33.045,3.144,63.583,21.583,91.395c1.467,2.213,2.863,4.472,4.292,6.71
		c-9.803,8.514-17.984,18.557-26.694,28.112c-13.975,15.329-26.671,31.661-38.484,48.672c-18.882,27.19-35.267,55.825-48.77,86.072
		C306.945,598.845,300.56,615.208,295.033,631.902z"/>
	<path fill-rule="evenodd" clip-rule="evenodd" fill="#C5CAE6" d="M1463.97,734.057c-3.691-11.311-6.819-22.814-12.583-33.366
		c-20.544-37.615-51.496-61.14-93.645-69.792c-17.278-3.546-34.477-2.941-51.709,0.074c-0.869-6.658-3.852-12.639-6.156-18.819
		c-12.05-32.307-27.303-63.045-45.584-92.279c-18.6-29.743-39.712-57.526-63.755-83.133c-5.21-5.549-10.954-10.649-15.58-16.755
		c7.137-11.198,14.337-22.353,18.629-35.073c3.873-11.479,6.444-23.134,7.625-35.279c1.604-16.485-0.798-32.333-5.181-48.014
		c-4.747-16.985-13.03-32.181-23.887-46.085c-4.928-6.311-11.281-11.232-16.128-17.568c2.36-0.221,4.059,1.153,5.888,2.332
		c25.718,16.586,50.31,34.739,73.405,54.777c23.381,20.286,45.309,42.084,65.854,65.321c21.843,24.705,41.753,50.825,59.65,78.451
		c21.745,33.565,40.31,68.828,55.696,105.809c14.271,34.298,25.508,69.515,34.049,105.616c5.378,22.733,9.104,45.784,12.328,68.91
		C1463.572,724.096,1463.625,729.097,1463.97,734.057z"/>
	<path fill-rule="evenodd" clip-rule="evenodd" fill="#C7D1EB" d="M921.04,145.941c-9.98-1.374-19.949-2.848-29.946-4.093
		c-11.147-1.389-22.298-2.845-33.488-3.785c-25.003-2.098-50.075-2.637-75.146-1.988c-18.198,0.471-36.351,1.784-54.478,3.728
		c-16.776,1.799-33.42,4.322-50.052,7.041c3.669-3.912,8.856-2.931,13.301-3.63c21.391-3.365,42.846-6.098,64.517-7.442
		c21.234-1.317,42.473-2.472,63.686-1.549c25.098,1.091,50.21,2.504,75.104,6.528c7.321,1.184,14.659,2.524,22.063,3.27
		C918.3,144.193,919.857,144.611,921.04,145.941z"/>
	<path fill-rule="evenodd" clip-rule="evenodd" fill="#C5CFEA" d="M162.048,989.882c2.078,2.146,2.383,5.056,3.208,7.706
		c12.462,40.022,28.87,78.391,48.249,115.523c0.984,1.887,2.37,3.646,2.466,5.918c-2.133-0.179-2.39-2.086-3.128-3.485
		c-18.483-35.017-34.248-71.201-46.361-108.92C164.723,1001.149,162.259,995.793,162.048,989.882z"/>
	<path fill-rule="evenodd" clip-rule="evenodd" fill="#C5CFEA" d="M1386.03,1119.03c0.093-2.273,1.477-4.034,2.467-5.916
		c17.484-33.244,32.188-67.683,44.38-103.199c2.299-6.698,3.457-13.797,7.07-20.034c-1.484,9.721-4.994,18.878-8.17,28.089
		c-11.547,33.493-25.845,65.807-42.4,97.122C1388.572,1116.615,1388.371,1118.767,1386.03,1119.03z"/>
	<path fill-rule="evenodd" clip-rule="evenodd" fill="#C5CFEA" d="M215.969,1119.021c2.875,2.333,3.998,5.638,4.999,9.011
		C217.502,1126.026,216.579,1122.61,215.969,1119.021z"/>
	<path fill-rule="evenodd" clip-rule="evenodd" fill="#C5CFEA" d="M1381.033,1128.035c1.008-3.37,2.118-6.683,4.999-9.014
		C1385.417,1122.609,1384.493,1126.024,1381.033,1128.035z"/>
	<path fill-rule="evenodd" clip-rule="evenodd" fill="#C5CFEA" d="M220.966,1128.023c2.513,1.663,3.337,4.291,4.002,7.01
		C221.823,1133.73,221.315,1130.923,220.966,1128.023z"/>
	<path fill-rule="evenodd" clip-rule="evenodd" fill="#C5CFEA" d="M1377.038,1135.037c0.651-2.726,1.491-5.346,3.998-7.015
		C1380.682,1130.918,1380.171,1133.726,1377.038,1135.037z"/>
	<path fill-rule="evenodd" clip-rule="evenodd" fill="#C5CFEA" d="M224.966,1135.021c2.035,1.061,2.702,2.93,2.972,5.032
		C225.278,1139.362,225.093,1137.209,224.966,1135.021z"/>
	<path fill-rule="evenodd" clip-rule="evenodd" fill="#C5CFEA" d="M1374.06,1140.053c0.276-2.1,0.942-3.97,2.979-5.026
		C1376.898,1137.207,1376.716,1139.363,1374.06,1140.053z"/>
	<path fill-rule="evenodd" clip-rule="evenodd" fill="#C5CFEA" d="M1365.064,1154.082c0.709-1.56,1.162-3.309,2.992-4.038
		C1368.099,1152.159,1367.529,1153.823,1365.064,1154.082z"/>
	<path fill-rule="evenodd" clip-rule="evenodd" fill="#C5CFEA" d="M228.977,1142.011c1.821,0.732,2.126,2.253,2.06,3.966
		C229.194,1145.255,228.902,1143.729,228.977,1142.011z"/>
	<path fill-rule="evenodd" clip-rule="evenodd" fill="#C5CFEA" d="M1370.963,1145.979c-0.063-1.713,0.24-3.234,2.059-3.971
		C1373.101,1143.728,1372.799,1145.251,1370.963,1145.979z"/>
	<path fill-rule="evenodd" clip-rule="evenodd" fill="#C5CFEA" d="M1360.96,1161.978c-0.052-1.712,0.269-3.225,2.098-3.934
		C1363.102,1159.752,1362.782,1161.266,1360.96,1161.978z"/>
	<path fill-rule="evenodd" clip-rule="evenodd" fill="#C5CFEA" d="M233.944,1150.043c1.838,0.709,2.15,2.226,2.087,3.941
		C234.205,1153.27,233.903,1151.746,233.944,1150.043z"/>
	<path fill-rule="evenodd" clip-rule="evenodd" fill="#C5CFEA" d="M1440.036,989.106c0.045-1.432-0.45-2.99,0.968-4.098
		C1442.604,986.829,1440.965,987.884,1440.036,989.106z"/>
	<path fill-rule="evenodd" clip-rule="evenodd" fill="#C5CFEA" d="M238.94,1158.047c1.834,0.704,2.153,2.219,2.1,3.931
		C239.212,1161.271,238.899,1159.754,238.94,1158.047z"/>
	<path fill-rule="evenodd" clip-rule="evenodd" fill="#C5CFEA" d="M1368.06,1150.054c-0.044-1.466,0.581-2.499,1.965-3.042
		C1370.053,1148.467,1369.986,1149.861,1368.06,1150.054z"/>
	<path fill-rule="evenodd" clip-rule="evenodd" fill="#C5CFEA" d="M231.977,1147.011c1.386,0.541,2.009,1.576,1.965,3.042
		C232.005,1149.866,231.948,1148.467,231.977,1147.011z"/>
	<path fill-rule="evenodd" clip-rule="evenodd" fill="#C5CFEA" d="M160.042,985.011c2.6,0.445,1.803,2.484,1.92,4.096
		C161.322,987.742,160.682,986.376,160.042,985.011z"/>
	<path fill-rule="evenodd" clip-rule="evenodd" fill="#C5CFEA" d="M236.966,1155.019c1.381,0.542,2.02,1.566,1.97,3.037
		C237.012,1157.865,236.948,1156.469,236.966,1155.019z"/>
	<path fill-rule="evenodd" clip-rule="evenodd" fill="#C5CAE6" d="M1156.031,237.975c-1.308,0.013-2.009-0.624-2.076-1.939
		C1155.271,236.015,1156.006,236.615,1156.031,237.975z"/>
	<path fill-rule="evenodd" clip-rule="evenodd" fill="#C5CFEA" d="M1363.061,1158.055c-0.062-1.266,0.564-1.95,1.795-2.121
		C1364.947,1157.225,1364.374,1157.953,1363.061,1158.055z"/>
	<path fill-rule="evenodd" clip-rule="evenodd" fill="#C5CAE6" d="M449.94,234.883c-0.292,0.96-1.039,1.167-1.917,1.16
		C448.359,235.155,449.141,235.005,449.94,234.883z"/>
	<path fill-rule="evenodd" clip-rule="evenodd" fill="#C5CAE6" d="M1153.979,236.044c-0.859,0.006-1.586-0.225-1.957-1.093
		C1152.858,234.985,1153.616,235.161,1153.979,236.044z"/>
	<path fill-rule="evenodd" clip-rule="evenodd" fill="#C5CFEA" d="M1352.978,1173.996c0.006-0.846,0.193-1.595,1.065-1.973
		C1354.028,1172.865,1353.846,1173.616,1352.978,1173.996z"/>
	<path fill-rule="evenodd" clip-rule="evenodd" fill="#C5CFEA" d="M249.956,1175.024c0.871,0.375,1.062,1.122,1.075,1.966
		C250.167,1176.611,249.974,1175.866,249.956,1175.024z"/>
	<path fill-rule="evenodd" clip-rule="evenodd" fill="#C5CFEA" d="M227.943,1140.044c0.883,0.375,1.057,1.124,1.04,1.974
		C228.13,1141.627,227.946,1140.883,227.943,1140.044z"/>
	<path fill-rule="evenodd" clip-rule="evenodd" fill="#C5CFEA" d="M1350.969,1176.989c0.015-0.843,0.204-1.591,1.073-1.967
		C1352.026,1175.865,1351.839,1176.613,1350.969,1176.989z"/>
	<path fill-rule="evenodd" clip-rule="evenodd" fill="#C5CFEA" d="M1373.014,1142.017c-0.014-0.849,0.157-1.6,1.041-1.976
		C1374.053,1140.881,1373.866,1141.625,1373.014,1142.017z"/>
	<path fill-rule="evenodd" clip-rule="evenodd" fill="#C5CFEA" d="M251.967,1178.013c0.866,0.375,1.06,1.12,1.082,1.96
		C252.181,1179.6,251.981,1178.857,251.967,1178.013z"/>
	<path fill-rule="evenodd" clip-rule="evenodd" fill="#C5CFEA" d="M1348.953,1179.975c0.02-0.842,0.221-1.583,1.081-1.962
		C1350.019,1178.856,1349.818,1179.6,1348.953,1179.975z"/>
	<path fill-rule="evenodd" clip-rule="evenodd" fill="#C5CFEA" d="M253.98,1181.001c0.858,0.381,1.053,1.125,1.076,1.963
		C254.187,1182.59,253.987,1181.849,253.98,1181.001z"/>
	<path fill-rule="evenodd" clip-rule="evenodd" fill="#C5CFEA" d="M1346.946,1182.967c0.02-0.841,0.216-1.584,1.077-1.963
		C1348.01,1181.847,1347.814,1182.592,1346.946,1182.967z"/>
	<path fill-rule="evenodd" clip-rule="evenodd" fill="#C5CFEA" d="M256.942,1185.042c0.862,0.375,1.064,1.114,1.08,1.956
		C257.165,1186.621,256.963,1185.881,256.942,1185.042z"/>
	<path fill-rule="evenodd" clip-rule="evenodd" fill="#C5CFEA" d="M1343.979,1186.999c0.013-0.844,0.209-1.586,1.077-1.96
		C1345.035,1185.879,1344.836,1186.619,1343.979,1186.999z"/>
	<path fill-rule="evenodd" clip-rule="evenodd" fill="#C5CFEA" d="M258.957,1188.023c0.859,0.371,1.067,1.109,1.093,1.948
		C259.187,1189.603,258.979,1188.865,258.957,1188.023z"/>
	<path fill-rule="evenodd" clip-rule="evenodd" fill="#C5CFEA" d="M1341.953,1189.975c0.021-0.842,0.237-1.574,1.09-1.953
		C1343.02,1188.862,1342.816,1189.603,1341.953,1189.975z"/>
	<path fill-rule="evenodd" clip-rule="evenodd" fill="#C5CFEA" d="M241.979,1163.006c0.874,0.382,1.046,1.138,1.055,1.98
		C242.159,1164.604,241.979,1163.854,241.979,1163.006z"/>
	<path fill-rule="evenodd" clip-rule="evenodd" fill="#C5CFEA" d="M1358.968,1164.987c0.007-0.845,0.181-1.6,1.057-1.98
		C1360.02,1163.852,1359.84,1164.604,1358.968,1164.987z"/>
	<path fill-rule="evenodd" clip-rule="evenodd" fill="#C5CFEA" d="M261.941,1192.042c0.857,0.371,1.063,1.109,1.095,1.945
		C262.186,1193.612,261.968,1192.881,261.941,1192.042z"/>
	<path fill-rule="evenodd" clip-rule="evenodd" fill="#C5CFEA" d="M1338.968,1193.99c0.029-0.836,0.233-1.575,1.091-1.949
		C1340.032,1192.88,1339.818,1193.613,1338.968,1193.99z"/>
	<path fill-rule="evenodd" clip-rule="evenodd" fill="#C5CFEA" d="M243.968,1166.014c0.871,0.382,1.051,1.134,1.059,1.979
		C244.159,1167.608,243.974,1166.859,243.968,1166.014z"/>
	<path fill-rule="evenodd" clip-rule="evenodd" fill="#C5CFEA" d="M1356.972,1167.99c0.009-0.844,0.197-1.592,1.065-1.972
		C1358.024,1166.86,1357.843,1167.611,1356.972,1167.99z"/>
	<path fill-rule="evenodd" clip-rule="evenodd" fill="#C5CFEA" d="M263.959,1195.019c0.853,0.372,1.072,1.104,1.099,1.942
		C264.201,1196.592,263.988,1195.857,263.959,1195.019z"/>
	<path fill-rule="evenodd" clip-rule="evenodd" fill="#C5CFEA" d="M1336.941,1196.962c0.028-0.839,0.246-1.57,1.095-1.948
		C1338.008,1195.853,1337.801,1196.591,1336.941,1196.962z"/>
	<path fill-rule="evenodd" clip-rule="evenodd" fill="#C5CFEA" d="M245.962,1169.02c0.872,0.38,1.056,1.129,1.063,1.975
		C246.154,1170.613,245.972,1169.863,245.962,1169.02z"/>
	<path fill-rule="evenodd" clip-rule="evenodd" fill="#C5CFEA" d="M1354.975,1170.992c0.006-0.846,0.201-1.59,1.068-1.969
		C1356.027,1169.865,1355.846,1170.616,1354.975,1170.992z"/>
	<path fill-rule="evenodd" clip-rule="evenodd" fill="#C5CAE6" d="M1156.98,1363.997c0.411-0.88,1.206-1.015,2.049-1.06
		C1158.605,1363.79,1157.855,1364.015,1156.98,1363.997z"/>
	<path fill-rule="evenodd" clip-rule="evenodd" fill="#C5CFEA" d="M247.958,1172.023c0.874,0.377,1.059,1.125,1.065,1.971
		C248.154,1173.615,247.97,1172.866,247.958,1172.023z"/>
	<path fill-rule="evenodd" clip-rule="evenodd" fill="#C5CFEA" d="M231.026,1145.971c0.321,0.35,0.642,0.699,0.962,1.049
		C231.667,1146.67,231.347,1146.32,231.026,1145.971z"/>
	<path fill-rule="evenodd" clip-rule="evenodd" fill="#C5CFEA" d="M1370.013,1147.021c0.321-0.35,0.643-0.699,0.964-1.049
		C1370.655,1146.321,1370.334,1146.671,1370.013,1147.021z"/>
	<path fill-rule="evenodd" clip-rule="evenodd" fill="#C5CAE6" d="M1152.041,234.974c-0.371-0.325-0.743-0.649-1.115-0.974
		C1151.297,234.325,1151.669,234.649,1152.041,234.974z"/>
	<path fill-rule="evenodd" clip-rule="evenodd" fill="#C5CFEA" d="M236.017,1153.975c0.321,0.351,0.642,0.701,0.963,1.052
		C236.659,1154.676,236.338,1154.325,236.017,1153.975z"/>
	<path fill-rule="evenodd" clip-rule="evenodd" fill="#C5CFEA" d="M241.025,1161.968c0.322,0.351,0.645,0.7,0.967,1.052
		C241.669,1162.669,241.347,1162.318,241.025,1161.968z"/>
	<path fill-rule="evenodd" clip-rule="evenodd" fill="#C5CFEA" d="M1360.009,1163.021c0.322-0.351,0.645-0.702,0.967-1.053
		C1360.653,1162.319,1360.331,1162.671,1360.009,1163.021z"/>
	<path fill-rule="evenodd" clip-rule="evenodd" fill="#C5CFEA" d="M243.018,1164.972c0.321,0.352,0.643,0.703,0.965,1.056
		C243.661,1165.676,243.339,1165.323,243.018,1164.972z"/>
	<path fill-rule="evenodd" clip-rule="evenodd" fill="#C5CFEA" d="M1358.022,1166.031c0.32-0.353,0.642-0.705,0.962-1.059
		C1358.664,1165.325,1358.343,1165.679,1358.022,1166.031z"/>
	<path fill-rule="evenodd" clip-rule="evenodd" fill="#C5CFEA" d="M245.011,1167.977c0.322,0.352,0.644,0.703,0.966,1.055
		C245.654,1168.68,245.333,1168.328,245.011,1167.977z"/>
	<path fill-rule="evenodd" clip-rule="evenodd" fill="#C5CFEA" d="M1356.029,1169.036c0.319-0.354,0.64-0.707,0.959-1.061
		C1356.669,1168.329,1356.349,1168.683,1356.029,1169.036z"/>
	<path fill-rule="evenodd" clip-rule="evenodd" fill="#C5CFEA" d="M247.009,1170.979c0.321,0.352,0.643,0.703,0.963,1.056
		C247.651,1171.683,247.33,1171.33,247.009,1170.979z"/>
	<path fill-rule="evenodd" clip-rule="evenodd" fill="#C5CFEA" d="M1345.047,1185.044c0.321-0.35,0.643-0.699,0.965-1.049
		C1345.689,1184.345,1345.368,1184.694,1345.047,1185.044z"/>
	<path fill-rule="evenodd" clip-rule="evenodd" fill="#C5CFEA" d="M249.008,1173.979c0.321,0.352,0.643,0.704,0.964,1.056
		C249.65,1174.684,249.329,1174.332,249.008,1173.979z"/>
	<path fill-rule="evenodd" clip-rule="evenodd" fill="#C5CFEA" d="M1352.027,1175.035c0.322-0.352,0.645-0.703,0.966-1.055
		C1352.672,1174.332,1352.35,1174.684,1352.027,1175.035z"/>
	<path fill-rule="evenodd" clip-rule="evenodd" fill="#C5CFEA" d="M258.004,1186.979c0.323,0.353,0.646,0.704,0.968,1.057
		C258.65,1187.684,258.327,1187.332,258.004,1186.979z"/>
	<path fill-rule="evenodd" clip-rule="evenodd" fill="#C5CFEA" d="M1343.027,1188.036c0.322-0.352,0.646-0.703,0.969-1.055
		C1343.674,1187.333,1343.35,1187.685,1343.027,1188.036z"/>
	<path fill-rule="evenodd" clip-rule="evenodd" fill="#C5CFEA" d="M253.032,1179.961c0.321,0.353,0.643,0.705,0.964,1.058
		C253.675,1180.666,253.354,1180.313,253.032,1179.961z"/>
	<path fill-rule="evenodd" clip-rule="evenodd" fill="#C5CFEA" d="M1354.029,1172.035c0.32-0.352,0.641-0.704,0.961-1.057
		C1354.67,1171.33,1354.35,1171.683,1354.029,1172.035z"/>
	<path fill-rule="evenodd" clip-rule="evenodd" fill="#C5CFEA" d="M1348.007,1181.021c0.321-0.354,0.642-0.706,0.963-1.06
		C1348.648,1180.315,1348.328,1180.668,1348.007,1181.021z"/>
	<path fill-rule="evenodd" clip-rule="evenodd" fill="#C5CFEA" d="M1340.999,1191.018c0.324-0.352,0.647-0.704,0.972-1.056
		C1341.646,1190.313,1341.323,1190.666,1340.999,1191.018z"/>
	<path fill-rule="evenodd" clip-rule="evenodd" fill="#C5CFEA" d="M260.988,1190.993c0.321,0.351,0.643,0.701,0.964,1.052
		C261.631,1191.695,261.31,1191.344,260.988,1190.993z"/>
	<path fill-rule="evenodd" clip-rule="evenodd" fill="#C5CFEA" d="M1340.048,1192.046c0.323-0.349,0.646-0.698,0.97-1.047
		C1340.694,1191.348,1340.371,1191.697,1340.048,1192.046z"/>
	<path fill-rule="evenodd" clip-rule="evenodd" fill="#C5CFEA" d="M251.013,1176.973c0.324,0.352,0.647,0.704,0.971,1.056
		C251.661,1177.677,251.337,1177.324,251.013,1176.973z"/>
	<path fill-rule="evenodd" clip-rule="evenodd" fill="#C5CFEA" d="M1350.017,1178.029c0.323-0.352,0.646-0.704,0.97-1.057
		C1350.663,1177.325,1350.34,1177.678,1350.017,1178.029z"/>
	<path fill-rule="evenodd" clip-rule="evenodd" fill="#C5CFEA" d="M263.017,1193.969c0.32,0.354,0.641,0.71,0.961,1.065
		C263.657,1194.679,263.337,1194.323,263.017,1193.969z"/>
	<path fill-rule="evenodd" clip-rule="evenodd" fill="#C5CFEA" d="M1338.019,1195.032c0.323-0.354,0.646-0.707,0.969-1.061
		C1338.665,1194.325,1338.342,1194.679,1338.019,1195.032z"/>
	<path fill-rule="evenodd" clip-rule="evenodd" fill="#C5CFEA" d="M255.042,1182.955c0.322,0.352,0.644,0.703,0.965,1.055
		C255.686,1183.658,255.364,1183.307,255.042,1182.955z"/>
	<path fill-rule="evenodd" clip-rule="evenodd" fill="#C5CFEA" d="M1345.995,1184.012c0.322-0.352,0.644-0.703,0.966-1.055
		C1346.639,1183.309,1346.316,1183.66,1345.995,1184.012z"/>
	<path fill-rule="evenodd" clip-rule="evenodd" fill="#C5CFEA" d="M265.045,1196.953c0.342,0.352,0.685,0.702,1.028,1.054
		C265.731,1197.655,265.388,1197.305,265.045,1196.953z"/>
	<path fill-rule="evenodd" clip-rule="evenodd" fill="#C5CFEA" d="M1335.976,1198.052c0.327-0.366,0.653-0.731,0.98-1.098
		C1336.629,1197.32,1336.303,1197.686,1335.976,1198.052z"/>
	<path fill-rule="evenodd" clip-rule="evenodd" fill="#C5CFEA" d="M255.99,1183.993c0.321,0.351,0.642,0.701,0.962,1.052
		C256.631,1184.694,256.311,1184.344,255.99,1183.993z"/>
	<path fill-rule="evenodd" clip-rule="evenodd" fill="#C5CFEA" d="M260.033,1189.959c0.324,0.351,0.649,0.702,0.973,1.053
		C260.682,1190.661,260.357,1190.311,260.033,1189.959z"/>
	<path fill-rule="evenodd" clip-rule="evenodd" fill="#90A4AE" d="M1199.98,770.869c0.389,11.8,1.311,23.576,1.04,35.405
		c-1.062,46.517-9.185,91.639-25.615,135.275c-13.522,35.913-31.722,69.223-54.739,99.844
		c-24.443,32.516-53.225,60.692-86.283,84.48c-7.012,5.045-14.681,9.171-21.097,15.051c-0.683,0.06-1.23,0.28-1.321,1.067
		l0.027-0.035c-1.887-0.444-3.106,0.879-4.508,1.709c-29.016,17.199-59.55,30.901-91.889,40.643
		c-31.305,9.43-63.362,14.603-95.871,16.452c-14.857,0.846-29.864,0.924-44.821-0.612c-13.862-1.422-27.717-2.647-41.478-4.987
		c-44.991-7.649-87.342-22.632-127.207-44.834c-5.295-2.949-10.133-6.904-16.212-8.373l0.033,0.038
		c-0.006-0.689-0.43-0.959-1.042-1.039c0,0,0.047,0.052,0.047,0.051c-0.363-0.432-0.726-0.864-1.089-1.297
		c-27.175-17.581-52.313-37.653-74.759-61.03c-23.715-24.698-44.063-51.874-60.847-81.755
		c-19.18-34.147-33.072-70.284-41.646-108.479c-3.741-16.662-6.204-33.505-7.843-50.518c-1.613-16.748-2.164-33.497-1.742-50.284
		c0.183-7.284,1.044-14.551,1.598-21.824c0.487-5.457,0.732-10.949,1.497-16.369c4.043-28.678,10.587-56.742,20.446-84.029
		c18.394-50.906,45.987-96.23,82.639-135.964c22.08-23.938,46.746-44.957,74.088-62.762c1.402-0.913,3.568-1.337,3.649-3.671
		l-0.032,0.014c1.247,0.333,2.283,0.057,3.035-1.046l-0.06,0.043c0.36-0.344,0.719-0.688,1.079-1.033c0,0-0.071,0.051-0.071,0.052
		c0.911,0.023,1.692-0.23,2.21-1.041c12.343-6.852,24.638-13.789,37.382-19.891c33.444-16.011,68.424-27.118,105.003-33.264
		c15.384-2.585,30.842-4.082,46.408-5.122c9.988-0.667,19.95-0.92,29.899-0.629c37.8,1.105,74.863,6.838,111.001,18.263
		c31.374,9.918,61.094,23.394,89.139,40.589c0.827,0.507,1.825,0.734,2.746,1.091c0.418,0.328,0.834,0.656,1.25,0.984l-0.065-0.048
		c0.446,0.814,1.179,1.068,2.051,1.046l-0.046-0.028c1.106,2.039,3.274,2.762,5.041,3.921
		c33.379,21.884,62.733,48.313,88.135,79.021c33.359,40.328,57.961,85.526,73.592,135.521c7.498,23.981,12.876,48.428,15.48,73.45
		C1198.746,760.241,1198.486,765.652,1199.98,770.869z M788.733,857.87c-1.867-1.456-1.964-3.259-2.472-4.755
		c-7.544-22.202-15-44.435-22.501-66.651c-20.27-60.033-40.596-120.048-60.732-180.126c-1.408-4.201-3.303-5.474-7.724-5.453
		c-40.494,0.195-80.99,0.114-121.485,0.116c-6.291,0-6.238-0.011-4.46,5.727c8.46,27.313,16.918,54.626,25.324,81.955
		c20.671,67.208,41.317,134.423,61.965,201.638c14.204,46.24,28.427,92.476,42.521,138.75c1.137,3.733,2.683,5.218,6.88,5.204
		c52.16-0.171,104.32-0.168,156.48-0.002c4.056,0.013,5.882-1.304,7.259-4.926c12.642-33.271,25.417-66.492,38.172-99.72
		c25.212-65.682,50.44-131.356,75.654-197.037c20.326-52.947,40.652-105.895,60.947-158.854c2.241-5.849,2.146-5.896-4.137-5.897
		c-51.161-0.003-102.321,0.083-153.481-0.131c-5.199-0.022-7.414,1.367-9.007,6.465c-24.835,79.502-49.91,158.929-74.929,238.374
		C798.28,827.552,793.555,842.558,788.733,857.87z"/>
	<path fill-rule="evenodd" clip-rule="evenodd" fill="#FEFFFF" d="M1101.095,339.767c-0.082,25.297-26.721,41.107-49.129,28.534
		c-28.096-15.765-57.158-29.237-87.662-39.526c-24.403-8.231-49.313-14.543-74.738-18.827c-22.778-3.837-45.665-6.081-68.756-7.22
		c-26.335-1.299-52.425,0.333-78.56,3.083c-39.001,4.104-76.845,13.088-113.733,26.216c-26.549,9.448-52.125,21.091-76.46,35.323
		c-22.28,13.03-50.3-1.824-50.861-27.546c-0.276-12.643,5.334-23.052,16.465-29.499c41.375-23.964,85.271-41.857,131.419-54.396
		c26.138-7.102,52.684-12.041,79.466-15.603c13.624-1.812,27.383-2.827,41.162-3.513c12.48-0.621,24.941-0.874,37.417-0.772
		c31.926,0.26,63.592,3.187,95.06,8.729c28.336,4.99,56.148,11.899,83.403,21.045c34.162,11.464,66.915,26.101,98.144,44.112
		C1095.328,316.594,1101.138,326.579,1101.095,339.767z"/>
	<path fill-rule="evenodd" clip-rule="evenodd" fill="#E7E9F5" d="M585.036,463.024c-0.082,2.334-2.247,2.758-3.649,3.671
		c-27.342,17.805-52.008,38.824-74.088,62.762c-36.651,39.733-64.245,85.058-82.639,135.964
		c-9.859,27.287-16.402,55.351-20.446,84.029c-0.764,5.419-1.01,10.912-1.497,16.369c-1.781-6.479-0.584-13.155-1.461-19.767
		c-3.207-24.176-12-45.973-27-65.035c-20.374-25.893-46.844-42.376-79.224-49.114c5.527-16.694,11.912-33.057,19.078-49.11
		c13.503-30.248,29.888-58.882,48.77-86.072c11.813-17.011,24.509-33.343,38.484-48.672c8.71-9.555,16.892-19.598,26.694-28.112
		c5.756,5.982,11.212,12.293,17.325,17.886c18.601,17.017,40.453,27.691,65.266,32.193c24.236,4.397,47.914,2.29,71.004-6.339
		C582.714,463.279,583.906,463.233,585.036,463.024z"/>
	<path fill-rule="evenodd" clip-rule="evenodd" fill="#E7E9F5" d="M1198.213,754.918c-2.604-25.022-7.982-49.469-15.48-73.45
		c-15.631-49.995-40.232-95.193-73.592-135.521c-25.401-30.708-54.756-57.137-88.135-79.021c-1.767-1.159-3.935-1.882-5.041-3.921
		c6.412,0.391,11.959,3.734,18.069,5.268c41.243,10.35,78.999,2.611,113.461-21.729c9.494-6.706,17.876-14.838,24.941-24.196
		c0.684-0.906,1.675-1.58,2.522-2.361c4.625,6.106,10.369,11.207,15.579,16.755c24.043,25.607,45.155,53.39,63.755,83.133
		c18.281,29.233,33.534,59.972,45.584,92.279c2.305,6.18,5.287,12.161,6.156,18.819c-13.5,3.03-26.394,7.729-38.347,14.708
		c-35.85,20.93-57.938,51.705-65.78,92.577c-1.062,5.534-2.012,11.072-1.965,16.732
		C1199.365,754.966,1198.789,754.942,1198.213,754.918z"/>
	<path fill-rule="evenodd" clip-rule="evenodd" fill="#E7E9F5" d="M588.039,461.991c-0.751,1.103-1.788,1.379-3.035,1.046
		C585.688,461.736,586.9,461.971,588.039,461.991z"/>
	<path fill-rule="evenodd" clip-rule="evenodd" fill="#E7E9F5" d="M1016.011,463.033c-0.872,0.022-1.604-0.232-2.051-1.046
		C1014.826,461.977,1015.661,462.029,1016.011,463.033z"/>
	<path fill-rule="evenodd" clip-rule="evenodd" fill="#E7E9F5" d="M591.197,460.013c-0.518,0.811-1.299,1.064-2.21,1.041
		C589.467,460.161,590.312,460.044,591.197,460.013z"/>
	<path fill-rule="evenodd" clip-rule="evenodd" fill="#E7E9F5" d="M589.058,461.002c-0.36,0.344-0.719,0.688-1.079,1.033
		C588.339,461.69,588.698,461.346,589.058,461.002z"/>
	<path fill-rule="evenodd" clip-rule="evenodd" fill="#E7E9F5" d="M1014.025,462.035c-0.416-0.328-0.832-0.656-1.25-0.984
		C1013.19,461.379,1013.608,461.708,1014.025,462.035z"/>
	<path fill-rule="evenodd" clip-rule="evenodd" fill="#E7E9F5" d="M590.007,1141.954c6.079,1.469,10.917,5.424,16.212,8.373
		c39.865,22.202,82.215,37.185,127.207,44.834c13.761,2.34,27.616,3.565,41.478,4.987c14.957,1.536,29.964,1.458,44.821,0.612
		c32.509-1.85,64.566-7.022,95.871-16.452c32.339-9.741,62.873-23.443,91.889-40.643c1.401-0.83,2.621-2.153,4.508-1.709
		c-8.154,8.956-16.747,17.512-23.292,27.853c-11.669,18.438-18.651,38.365-20.772,60.139c-2.434,24.986,2.466,48.503,12.935,71.074
		c0.137,0.295,0.147,0.647,0.218,0.974c-3.273,3.433-7.869,4.04-12.037,5.409c-21.432,7.035-43.213,12.824-65.352,17.139
		c-14.604,2.846-29.367,4.724-44.143,6.574c-27.982,3.504-56.075,3.448-84.127,2.677c-21.816-0.6-43.52-3.445-65.078-7.134
		c-26.841-4.591-53.104-11.433-78.989-19.791c-3.279-1.059-6.386-2.65-9.575-3.995c3.982-10.348,8.376-20.553,10.572-31.505
		c5.698-28.419,3.299-55.994-8.435-82.642c-7.186-16.316-17.248-30.563-30.289-42.721
		C592.309,1144.777,591.208,1143.312,590.007,1141.954z"/>
	<path fill-rule="evenodd" clip-rule="evenodd" fill="#FEFFFF" d="M302.157,767.004c-1.702,16.273-1.352,32.597-1.036,48.896
		c0.364,18.749,2.59,37.37,5.345,55.903c4.257,28.635,11.212,56.624,20.26,84.135c9.698,29.488,22.184,57.741,36.929,84.997
		c12.043,22.264,25.783,43.473,41.092,63.649c20.982,27.652,44.438,52.942,70.712,75.7c14.992,12.985,30.97,24.591,46.894,36.322
		c13.878,10.224,17.235,30.633,7.535,44.608c-10.33,14.882-30.317,19.503-44.977,10.006c-17.32-11.221-33.557-23.928-49.343-37.204
		c-16.717-14.061-32.334-29.316-47.142-45.322c-28.552-30.859-53.327-64.564-74.562-100.892
		c-20.137-34.45-36.663-70.547-49.41-108.313c-9.934-29.433-17.637-59.479-22.549-90.215c-4.145-25.935-6.528-51.965-7.236-78.248
		c-0.476-17.654,0.309-35.199,1.463-52.741c0.988-15.007,15.339-27.349,29.969-28.538
		C287.557,728.007,304.39,745.854,302.157,767.004z"/>
	<path fill-rule="evenodd" clip-rule="evenodd" fill="#E7E9F5" d="M587.956,1139.707c0.363,0.433,0.726,0.865,1.089,1.297
		C588.682,1140.572,588.319,1140.14,587.956,1139.707z"/>
	<path fill-rule="evenodd" clip-rule="evenodd" fill="#E7E9F5" d="M588.998,1140.953c0.612,0.08,1.036,0.35,1.042,1.039
		C589.693,1141.646,589.345,1141.3,588.998,1140.953z"/>
	<path fill-rule="evenodd" clip-rule="evenodd" fill="#FEFFFF" d="M1367.584,795.719c-0.072,57.306-7.849,109.503-22.808,160.641
		c-10.726,36.667-24.869,71.977-42.502,105.854c-19.499,37.459-42.801,72.404-69.78,104.927
		c-15.236,18.367-31.763,35.499-49.141,51.771c-20.292,19.001-41.982,36.359-65.269,51.606c-17.425,11.409-42.087,2.69-48.81-17.004
		c-4.881-14.297-0.866-28.804,11.394-37.612c18.922-13.596,37.567-27.518,54.763-43.255c13.273-12.148,25.927-24.953,37.804-38.481
		c17.806-20.283,34.059-41.77,48.38-64.645c32.425-51.792,55.469-107.462,68.35-167.257c4.441-20.619,7.353-41.444,9.243-62.468
		c1.583-17.607,1.796-35.203,1.778-52.836c-0.009-8.656-1.265-17.236-1.11-25.915c0.314-17.693,14.138-31.357,31.486-32.278
		c20.239-1.075,33.931,16.016,34.91,31.623C1367.096,773.507,1366.058,786.682,1367.584,795.719z"/>
	<path fill-rule="evenodd" clip-rule="evenodd" fill="#C0D4E2" d="M1198.213,754.918c0.576,0.024,1.152,0.048,1.729,0.072
		c0.013,5.294,0.026,10.588,0.039,15.881C1198.486,765.652,1198.746,760.241,1198.213,754.918z"/>
	<path fill-rule="evenodd" clip-rule="evenodd" fill="#E7E9F5" d="M1011.965,1141.992c0.091-0.787,0.639-1.008,1.321-1.067
		C1012.848,1141.28,1012.406,1141.636,1011.965,1141.992z"/>
	<path fill-rule="evenodd" clip-rule="evenodd" fill="#FFFFFF" d="M788.733,857.87c4.822-15.313,9.547-30.318,14.273-45.323
		c25.019-79.445,50.094-158.872,74.929-238.374c1.593-5.099,3.808-6.487,9.007-6.465c51.16,0.214,102.32,0.128,153.481,0.131
		c6.283,0,6.378,0.048,4.137,5.897c-20.295,52.959-40.621,105.907-60.947,158.854c-25.214,65.681-50.442,131.355-75.654,197.037
		c-12.755,33.228-25.53,66.448-38.172,99.72c-1.377,3.622-3.203,4.938-7.259,4.926c-52.16-0.166-104.321-0.169-156.48,0.002
		c-4.197,0.014-5.743-1.471-6.88-5.204c-14.093-46.274-28.316-92.51-42.521-138.75c-20.647-67.215-41.294-134.43-61.965-201.638
		c-8.406-27.329-16.864-54.643-25.324-81.955c-1.777-5.737-1.831-5.727,4.46-5.727c40.495-0.002,80.991,0.08,121.485-0.116
		c4.421-0.021,6.316,1.252,7.724,5.453c20.136,60.078,40.462,120.093,60.732,180.126c7.501,22.216,14.958,44.449,22.501,66.651
		C786.769,854.611,786.866,856.414,788.733,857.87z"/>
</g>
</svg>
