<?xml version="1.0" encoding="utf-8"?>
<!-- Generator: Adobe Illustrator 16.0.3, SVG Export Plug-In . SVG Version: 6.00 Build 0)  -->
<!DOCTYPE svg PUBLIC "-//W3C//DTD SVG 1.1//EN" "http://www.w3.org/Graphics/SVG/1.1/DTD/svg11.dtd">
<svg version="1.1" id="Layer_1" xmlns="http://www.w3.org/2000/svg" xmlns:xlink="http://www.w3.org/1999/xlink" x="0px" y="0px"
	 width="980px" height="980px" viewBox="0 0 980 980" enable-background="new 0 0 980 980" xml:space="preserve">
<g>
	<path fill-rule="evenodd" clip-rule="evenodd" fill="#E4E4E4" d="M421.69,190c82.325,0,164.651,0,246.977,0
		c7.33,0,7.333,0.004,7.333,7.486c0,157.985,0,315.97,0,473.955c0,8.348-0.203,8.558-8.288,8.558
		c-75.493,0.001-150.985,0.001-226.479,0c-7.926,0-8.232-0.301-8.232-8.112c-0.002-30.164-0.004-60.328,0.002-90.491
		c0.001-6.375,0.019-6.392,6.421-6.393c27.831-0.007,55.662-0.003,83.492-0.003c12.938,0,25.879-0.153,38.813,0.089
		c4.105,0.077,5.382-1.057,5.362-5.274c-0.159-35.496-0.091-70.993-0.091-106.49c0-53.995-0.062-107.99,0.104-161.984
		c0.015-4.853-0.915-6.483-6.22-6.473c-92.658,0.184-185.316,0.171-277.973,0.025c-4.895-0.008-6.016,1.425-6.013,6.152
		c0.122,160.317,0.108,320.634,0.034,480.952c-0.001,2.268,1.526,5.522-1.403,6.701c-2.837,1.142-4.407-1.925-5.925-3.696
		c-7.439-8.681-16.386-15.772-24.478-23.741c-8.214-8.089-16.942-15.725-24.207-24.768c-2.52-3.137-6.724-4.158-9.352-7.347
		c-8.694-10.545-19.227-19.304-28.777-29.023c-3.685-3.75-8.075-6.87-11.869-10.613c-2.039-2.012-2.982-4.059-2.98-6.994
		C168.013,588.523,168,494.532,168,400.541c0-67.767-0.006-135.533,0.008-203.3c0.002-8.041-0.827-7.231,7.206-7.233
		C257.373,189.995,339.532,190,421.69,190z"/>
	<path fill-rule="evenodd" clip-rule="evenodd" fill="#E4E4E4" d="M302.04,330.054c0.391-3.345-1.097-6.872,0.972-10.055
		c79-0.001,158-0.002,237.001-0.003l-0.009-0.008c0.002,33.367,0.004,66.734,0.006,100.102c-2.744,3.824-6.688,1.872-9.921,1.554
		c-3.176-0.313-6.119-0.559-9.299,0.122c-4.838,1.036-9.75-0.375-14.729-0.126c-7.298,0.365-14.697,0.388-22.056,0.361
		c-16.933-0.062-33.876,0.307-50.796-0.173c-7.14-0.203-14.224-0.189-21.349,0.037c-3.677,0.117-3.916,1.881-3.894,4.709
		c0.077,10.16,0.008,20.321-0.004,30.481c-1.25,0.977-0.948,2.378-0.949,3.664c-0.016,15.534-0.017,31.068-0.005,46.602
		c0.001,1.288-0.291,2.687,0.972,3.653c0.007,62.327,0.066,124.655-0.084,186.982c-0.011,4.745,1.147,6.145,6.026,6.137
		c93.325-0.146,186.65-0.159,279.975,0.024c5.303,0.011,6.159-1.626,6.223-6.468c2.115-160.442,0.231-320.892,0.896-481.335
		c0.007-1.577-0.885-3.798,0.757-4.614c1.82-0.905,2.741,1.388,3.837,2.455c16.81,16.383,33.258,33.153,50.439,49.134
		c12.325,11.463,23.928,23.626,36.062,35.261c3.595,3.447,7.291,6.796,11.066,10.044c2.223,1.912,2.893,4.121,2.881,7.015
		c-0.101,24.273-0.059,48.547-0.058,72.821c0.003,52.104,0.002,104.208,0.013,156.313c0.003,17.046-0.371,34.104,0.13,51.137
		c2.002,67.948,0.264,135.907,0.814,203.858c0.018,2.216,0.822,4.792-1.838,6.28c-165.305-0.005-330.607-0.013-495.91,0.014
		c-1.745,0.001-3.706-0.688-5.186,0.954c-1.002-0.347-1.656-1.032-1.985-2.035c1.619-1.489,0.927-3.445,0.927-5.189
		c0.033-154.838,0.033-309.675,0-464.512C302.965,333.501,303.65,331.547,302.04,330.054z"/>
	<path fill-rule="evenodd" clip-rule="evenodd" fill="#D3D4D4" d="M304.023,806.983c1.479-1.642,3.44-0.953,5.186-0.954
		c165.303-0.026,330.605-0.019,495.91-0.014c-1.498,1.578-3.445,0.959-5.204,0.959C634.618,806.996,469.321,806.989,304.023,806.983
		z"/>
	<path fill-rule="evenodd" clip-rule="evenodd" fill="#D3D4D4" d="M302.04,330.054c1.61,1.493,0.925,3.448,0.925,5.193
		c0.032,154.837,0.032,309.674,0,464.512c0,1.744,0.692,3.7-0.927,5.189C302.039,646.649,302.04,488.352,302.04,330.054z"/>
	<path fill-rule="evenodd" clip-rule="evenodd" fill="#D3D4D4" d="M540.013,319.996c-79,0.001-158,0.002-237.001,0.003
		c1.476-1.641,3.434-0.956,5.177-0.957c75.549-0.035,151.098-0.035,226.646-0.001C536.578,319.042,538.536,318.356,540.013,319.996z
		"/>
	<path fill-rule="evenodd" clip-rule="evenodd" fill="#D3D4D4" d="M540.01,420.089c-0.002-33.367-0.004-66.734-0.006-100.102
		c1.558,1.288,0.993,3.072,0.994,4.661c0.031,30.254,0.031,60.508,0.005,90.762C541.001,417.01,541.512,418.781,540.01,420.089z"/>
	<path fill-rule="evenodd" clip-rule="evenodd" fill="#D3D4D4" d="M407.979,510.972c-1.263-0.967-0.971-2.365-0.972-3.653
		c-0.012-15.533-0.011-31.068,0.005-46.602c0.001-1.286-0.301-2.687,0.949-3.664C407.967,475.026,407.973,492.999,407.979,510.972z"
		/>
</g>
</svg>
