<?xml version="1.0" encoding="utf-8"?>
<!-- Generator: Adobe Illustrator 16.0.3, SVG Export Plug-In . SVG Version: 6.00 Build 0)  -->
<!DOCTYPE svg PUBLIC "-//W3C//DTD SVG 1.1//EN" "http://www.w3.org/Graphics/SVG/1.1/DTD/svg11.dtd">
<svg version="1.1" id="Layer_1" xmlns="http://www.w3.org/2000/svg" xmlns:xlink="http://www.w3.org/1999/xlink" x="0px" y="0px"
	 width="520px" height="520px" viewBox="0 0 520 520" enable-background="new 0 0 520 520" xml:space="preserve">
<g>
	<path fill-rule="evenodd" clip-rule="evenodd" fill="#452616" d="M5,403c0-91.333,0-182.667,0-274
		c2.094-4.552,1.283-9.591,2.474-14.334c7.507-29.892,31.741-49.314,63.263-49.356C197.868,65.139,325,65.105,452.13,65.344
		c27.204,0.051,47.255,12.729,59.38,37.411c2.699,5.495,3.391,11.584,5.49,17.245c0,94.333,0,188.667,0,283
		c-1.037,0.311-0.89,1.215-1.046,2.003c-2.617,13.264-8.687,24.667-18.479,34.029c-13.084,12.508-28.94,17.733-46.777,17.732
		c-55.623-0.003-111.245,0-166.868,0c-70.777,0-141.554,0.022-212.332-0.012c-29.604-0.015-53.673-16.572-63.15-43.123
		C7.094,410.118,7.119,406.222,5,403z M260.904,437.199c63.324,0,126.648,0.039,189.973-0.018
		c27.667-0.024,45.946-17.993,45.979-45.522c0.106-86.82,0.069-173.641,0-260.461c-0.009-10.359-2.44-20.128-8.987-28.503
		c-9.572-12.243-22.369-16.965-37.638-16.952c-122.815,0.102-245.631,0.05-368.446,0.081c-5.287,0.001-10.562,0.532-15.833,0.906
		c-22.363,1.588-40.879,19.091-40.865,45.776c0.045,86.321-0.007,172.641,0.06,258.962c0.006,7.517,1.067,14.945,4.64,21.754
		c8.81,16.787,23.013,24.04,41.646,24.013C134.59,437.143,197.747,437.2,260.904,437.199z"/>
	<path fill-rule="evenodd" clip-rule="evenodd" fill="#E84546" d="M260.904,437.199c-63.157,0.001-126.314-0.057-189.472,0.036
		c-18.633,0.027-32.836-7.226-41.646-24.013c-3.573-6.809-4.634-14.237-4.64-21.754c-0.067-86.321-0.015-172.642-0.06-258.962
		c-0.014-26.686,18.502-44.188,40.865-45.776c5.271-0.375,10.547-0.905,15.833-0.906c122.815-0.031,245.63,0.021,368.446-0.081
		c15.269-0.013,28.065,4.709,37.638,16.952c6.547,8.375,8.979,18.144,8.987,28.503c0.069,86.82,0.106,173.641,0,260.461
		c-0.033,27.529-18.313,45.498-45.979,45.522C387.553,437.238,324.229,437.199,260.904,437.199z M261.24,122.002
		c-62.819,0-125.639-0.002-188.459,0.002c-8.719,0.001-10.789,2.104-10.789,10.907c-0.001,85.648-0.001,171.297,0.001,256.945
		c0,7.699,2.387,10.136,10.057,10.136c125.973,0.009,251.947,0.009,377.919,0c7.65-0.001,10.038-2.448,10.039-10.154
		c0.002-85.481,0.002-170.963,0.001-256.445c0-9.483-1.89-11.39-11.308-11.39C386.214,122.001,323.728,122.002,261.24,122.002z"/>
	<path fill-rule="evenodd" clip-rule="evenodd" fill="#EE5757" d="M261.24,122.002c62.487,0,124.974-0.001,187.461,0.001
		c9.418,0,11.308,1.907,11.308,11.39c0.001,85.482,0.001,170.963-0.001,256.445c-0.001,7.706-2.389,10.153-10.039,10.154
		c-125.973,0.009-251.946,0.009-377.919,0c-7.67,0-10.057-2.437-10.057-10.136c-0.002-85.648-0.002-171.297-0.001-256.945
		c0-8.803,2.07-10.906,10.789-10.907C135.601,122,198.421,122.002,261.24,122.002z M200.419,251.697
		c0,10.662-0.003,21.324,0.001,31.986c0.005,12.494-0.196,24.993,0.093,37.481c0.229,9.893,6.912,14.004,15.433,9.754
		c46.732-23.313,93.43-46.694,140.157-70.015c4.517-2.254,6.207-5.917,5.519-10.649c-0.663-4.561-3.917-7.028-7.853-8.981
		c-24.28-12.052-48.517-24.192-72.766-36.306c-21.57-10.776-43.125-21.581-64.713-32.321c-8.066-4.013-14.709-0.347-15.694,8.592
		c-0.2,1.813-0.169,3.658-0.17,5.488C200.416,208.382,200.419,230.04,200.419,251.697z"/>
	<path fill-rule="evenodd" clip-rule="evenodd" fill="#432615" d="M200.419,251.697c0-21.657-0.004-43.314,0.007-64.971
		c0-1.831-0.03-3.675,0.17-5.488c0.985-8.938,7.628-12.605,15.694-8.592c21.588,10.74,43.144,21.545,64.713,32.321
		c24.249,12.114,48.485,24.254,72.766,36.306c3.936,1.954,7.189,4.421,7.853,8.981c0.688,4.732-1.002,8.396-5.519,10.649
		c-46.728,23.32-93.425,46.702-140.157,70.015c-8.521,4.25-15.205,0.139-15.433-9.754c-0.289-12.488-0.088-24.987-0.093-37.481
		C200.416,273.021,200.419,262.358,200.419,251.697z M296.991,266.969c10.193-4.932,20.387-9.863,31.289-15.138
		c-36.549-18.274-72.168-36.083-108.222-54.11c0,36.337,0,72.04,0,108.29c8.27-4.371,16.144-8.534,24.019-12.696
		C261.95,285.006,279.473,275.991,296.991,266.969z"/>
	<path fill-rule="evenodd" clip-rule="evenodd" fill="#D9CDC1" d="M244.077,293.314c-7.875,4.162-15.749,8.325-24.019,12.696
		c0-36.25,0-71.952,0-108.29c36.054,18.026,71.673,35.836,108.222,54.11c-10.902,5.275-21.096,10.206-31.289,15.138
		c-0.044-2.881-2.572-3.214-4.397-4.114c-14.3-7.06-28.633-14.054-42.962-21.056c-4.938-2.413-5.57-2.033-5.579,3.642
		C244.029,261.398,244.064,277.356,244.077,293.314z"/>
	<path fill-rule="evenodd" clip-rule="evenodd" fill="#FEF6EE" d="M244.077,293.314c-0.012-15.958-0.048-31.916-0.024-47.874
		c0.009-5.675,0.642-6.055,5.579-3.642c14.329,7.002,28.662,13.996,42.962,21.056c1.825,0.9,4.354,1.233,4.397,4.114
		C279.473,275.991,261.95,285.006,244.077,293.314z"/>
</g>
</svg>
